{"glyphs":{"0":{"ha":861,"x_min":49,"x_max":831,"o":"m 65 499 q 49 328 49 407 q 353 0 49 0 q 663 133 551 0 q 814 499 774 267 q 831 667 831 589 q 528 996 831 996 q 65 499 153 996 m 621 499 q 544 266 594 347 q 385 185 493 185 q 276 228 308 185 q 243 351 243 272 q 258 499 243 415 q 335 731 285 650 q 494 811 386 811 q 603 767 571 811 q 636 644 636 724 q 621 499 636 582 z "},"1":{"ha":458,"x_min":71,"x_max":456,"o":"m 71 797 l 103 981 l 456 981 l 283 0 l 78 0 l 218 797 l 71 797 z "},"2":{"ha":781,"x_min":-28,"x_max":774,"o":"m -3 154 q 565 685 528 481 q 569 726 569 708 q 542 807 569 778 q 454 836 514 836 q 282 649 315 836 l 92 649 q 170 846 111 767 q 313 963 229 925 q 490 1001 396 1001 q 701 938 629 1001 q 774 764 774 874 q 767 694 774 733 q 594 410 742 550 q 261 168 446 269 l 690 168 l 663 8 l -28 8 l -3 154 z "},"3":{"ha":789,"x_min":24,"x_max":781,"o":"m 503 1018 q 708 954 636 1018 q 781 789 781 890 q 776 738 781 765 q 698 592 760 649 q 549 522 636 536 l 547 515 q 669 438 625 490 q 714 300 714 385 q 708 239 714 268 q 597 59 689 128 q 356 -10 506 -10 q 110 64 196 -10 q 24 279 24 138 q 25 317 24 304 l 217 317 q 215 292 215 308 q 253 190 215 226 q 367 154 290 154 q 470 186 429 154 q 519 268 511 218 q 522 304 522 281 q 474 400 522 367 q 333 433 426 433 l 293 433 l 322 593 l 361 593 q 581 722 557 590 q 583 751 583 742 q 553 828 583 800 q 471 856 524 856 q 360 815 408 856 q 299 706 313 775 l 107 706 q 242 936 138 854 q 503 1018 346 1018 z "},"4":{"ha":869,"x_min":1,"x_max":839,"o":"m 1 197 l 31 360 l 610 992 l 821 992 l 711 367 l 839 367 l 808 197 l 681 197 l 647 0 l 449 0 l 483 197 l 1 197 m 597 763 l 232 367 l 529 367 l 597 763 z "},"5":{"ha":829,"x_min":54,"x_max":829,"o":"m 800 828 l 335 828 l 290 581 q 390 642 329 619 q 519 664 451 664 q 708 594 646 664 q 769 410 769 524 q 763 331 769 376 q 633 88 736 179 q 371 -4 531 -4 q 137 66 219 -4 q 54 256 54 136 q 57 301 54 271 l 247 301 q 283 203 246 240 q 390 165 321 165 q 513 212 467 165 q 572 335 560 258 q 576 381 576 360 q 542 476 576 443 q 442 510 507 510 q 344 485 389 510 q 274 421 299 460 l 85 421 l 186 1000 l 829 1000 l 800 828 z "},"6":{"ha":839,"x_min":61,"x_max":806,"o":"m 621 714 q 589 821 618 783 q 493 858 560 858 q 341 773 399 858 q 257 506 283 688 q 362 612 290 572 q 518 651 433 651 q 706 587 639 651 q 774 403 774 522 q 765 315 774 361 q 640 81 740 171 q 382 -10 540 -10 q 136 79 211 -10 q 61 325 61 168 q 79 506 61 401 q 229 890 124 764 q 524 1015 335 1015 q 738 940 671 1015 q 806 743 806 864 l 804 714 l 621 714 m 243 340 q 239 297 239 319 q 276 197 239 235 q 389 158 314 158 q 516 200 464 158 q 582 318 568 242 q 586 364 586 343 q 549 464 586 429 q 446 499 513 499 q 315 458 374 499 q 243 340 256 417 z "},"7":{"ha":675,"x_min":15,"x_max":751,"o":"m 725 843 l 218 0 l 15 0 l 522 821 l 69 821 l 99 989 l 751 989 l 725 843 z "},"8":{"ha":860,"x_min":28,"x_max":838,"o":"m 139 771 q 201 897 151 839 q 337 990 251 954 q 533 1025 422 1025 q 701 993 633 1025 q 803 908 769 961 q 838 789 838 854 q 833 743 838 767 q 770 617 819 669 q 639 536 721 564 q 749 451 711 506 q 788 321 788 397 q 782 260 788 288 q 642 51 758 125 q 347 -24 525 -24 q 116 44 204 -24 q 28 236 28 113 q 33 300 28 271 q 105 444 47 385 q 256 536 163 504 q 165 606 196 558 q 135 717 135 653 q 139 771 133 733 m 324 697 q 359 615 324 643 q 456 586 394 586 q 586 629 535 586 q 638 751 638 672 q 602 835 638 806 q 506 865 567 865 q 375 821 426 865 q 324 697 324 776 m 221 268 q 262 172 221 207 q 376 138 303 138 q 530 189 471 138 q 589 325 589 240 q 546 419 589 388 q 432 451 503 451 q 282 403 343 451 q 221 268 221 356 z "},"9":{"ha":814,"x_min":46,"x_max":797,"o":"m 233 292 q 262 185 231 222 q 357 147 293 147 q 512 232 454 147 q 597 500 569 317 q 493 394 564 433 q 336 354 422 354 q 148 419 215 354 q 81 603 81 483 q 89 690 81 644 q 156 858 106 785 q 290 973 207 931 q 481 1015 374 1015 q 724 931 651 1015 q 797 696 797 847 q 776 500 797 615 q 697 221 747 332 q 560 50 647 110 q 339 -10 472 -10 q 169 32 235 -10 q 74 142 103 74 q 50 292 46 211 l 233 292 m 615 710 q 578 809 615 771 q 465 847 540 847 q 338 803 390 847 q 272 679 286 758 q 268 635 268 657 q 306 539 268 572 q 408 506 343 506 q 507 528 460 506 q 585 598 554 551 q 615 710 615 644 z "},"\u0000":{"ha":0,"x_min":0,"x_max":0,"o":""},"\r":{"ha":303,"x_min":0,"x_max":0,"o":""}," ":{"ha":303,"x_min":0,"x_max":0,"o":""},"अ":{"ha":1157,"x_min":58,"x_max":1276,"o":"m 1276 1028 l 1251 878 l 1097 878 l 942 0 l 763 0 l 833 399 l 671 400 q 667 349 671 374 q 553 152 644 225 q 332 79 461 79 q 133 142 207 79 q 58 311 58 206 q 64 368 58 342 l 231 368 q 228 342 228 351 q 260 264 228 294 q 349 233 293 233 q 463 278 418 233 q 508 393 508 324 q 476 471 508 440 q 376 501 443 501 l 317 501 l 342 646 l 401 646 q 521 689 475 646 q 567 790 567 732 q 538 862 567 836 q 461 888 508 888 q 362 855 404 888 q 310 769 319 822 l 144 769 q 261 966 167 892 q 488 1040 356 1040 q 666 986 600 1040 q 732 840 732 932 q 728 790 732 815 q 665 658 715 713 q 536 581 615 603 l 536 576 q 601 547 571 569 l 860 547 l 944 1028 l 1276 1028 z "},"आ":{"ha":1586,"x_min":58,"x_max":1706,"o":"m 1276 1028 l 1251 878 l 1097 878 l 942 0 l 763 0 l 833 399 l 671 400 q 667 349 671 374 q 553 152 644 225 q 332 79 461 79 q 133 142 207 79 q 58 311 58 206 q 64 368 58 342 l 231 368 q 228 342 228 351 q 260 264 228 294 q 349 233 293 233 q 463 278 418 233 q 508 393 508 324 q 476 471 508 440 q 376 501 443 501 l 317 501 l 342 646 l 401 646 q 521 689 475 646 q 567 790 567 732 q 538 862 567 836 q 461 888 508 888 q 362 855 404 888 q 310 769 319 822 l 144 769 q 261 966 167 892 q 488 1040 356 1040 q 666 986 600 1040 q 732 840 732 932 q 728 790 732 815 q 665 658 715 713 q 536 581 615 603 l 536 576 q 601 547 571 569 l 860 547 l 944 1028 l 1276 1028 m 1346 878 l 1192 878 l 1218 1028 l 1706 1028 l 1679 878 l 1525 878 l 1372 0 l 1192 0 l 1346 878 z "},"इ":{"ha":811,"x_min":19,"x_max":942,"o":"m 917 878 l 724 878 l 694 711 l 678 624 l 425 624 q 329 601 369 624 q 289 521 289 578 q 315 472 289 488 q 385 457 342 457 l 446 457 q 622 409 551 457 q 693 260 693 361 q 688 203 693 231 q 597 40 671 101 q 407 -22 522 -22 q 285 7 331 -22 q 221 71 239 36 l 189 -112 l 19 -112 l 82 243 l 243 243 q 272 147 238 182 q 375 111 307 111 q 483 149 443 111 q 522 242 522 188 q 389 329 522 329 q 308 332 338 329 q 166 378 224 335 q 108 504 108 422 q 113 547 108 525 q 210 703 131 653 q 401 753 290 753 l 528 753 l 550 878 l 36 878 l 63 1028 l 942 1028 l 917 878 z "},"ई":{"ha":804,"x_min":19,"x_max":1119,"o":"m 907 1411 q 1065 1360 1010 1411 q 1119 1219 1119 1310 q 1111 1144 1119 1185 l 953 1144 q 957 1183 957 1165 q 938 1240 957 1219 q 883 1261 918 1261 q 763 1124 786 1261 l 746 1028 l 944 1028 l 918 878 l 725 878 l 694 711 l 678 624 l 425 624 q 329 601 369 624 q 289 521 289 578 q 315 472 289 488 q 385 457 342 457 l 446 457 q 622 409 551 457 q 693 260 693 361 q 688 203 693 231 q 597 40 671 101 q 407 -22 522 -22 q 285 7 331 -22 q 221 71 239 36 l 189 -112 l 19 -112 l 82 243 l 243 243 q 272 147 238 182 q 375 111 307 111 q 482 149 443 111 q 521 240 521 186 q 389 329 521 329 q 308 332 338 329 q 166 378 224 335 q 108 504 108 422 q 113 547 108 525 q 210 703 131 653 q 401 753 290 753 l 528 753 l 551 878 l 38 878 l 64 1028 l 581 1028 l 597 1122 q 694 1330 619 1249 q 907 1411 769 1411 z "},"उ":{"ha":790,"x_min":22,"x_max":910,"o":"m 882 878 l 743 878 l 724 772 q 662 632 710 688 q 550 564 614 576 l 549 561 q 649 490 613 543 q 685 360 685 436 q 681 306 685 333 q 558 88 656 171 q 314 6 460 6 q 101 74 181 6 q 22 261 22 143 q 28 325 22 296 l 199 325 q 196 294 196 303 q 234 201 196 238 q 335 165 272 165 q 452 208 403 165 q 514 319 501 251 q 517 351 517 342 q 483 443 517 407 q 379 479 450 479 l 303 479 l 331 635 l 382 635 q 496 673 450 635 q 554 781 542 711 l 571 878 l 35 878 l 61 1028 l 910 1028 l 882 878 z "},"ऊ":{"ha":1189,"x_min":22,"x_max":1308,"o":"m 724 772 q 662 632 710 688 q 550 564 614 576 l 550 561 l 813 561 q 1019 508 943 561 q 1094 346 1094 454 q 1089 288 1094 329 q 983 99 1067 167 q 776 31 899 31 q 701 38 746 31 l 726 174 q 769 172 740 172 q 866 202 826 172 q 917 293 906 232 q 919 321 919 313 q 884 394 919 371 q 790 418 849 418 l 674 418 q 682 353 682 389 q 676 296 682 322 q 613 147 661 213 q 487 43 564 81 q 314 6 410 6 q 101 74 181 6 q 22 261 22 143 q 28 325 22 296 l 199 325 q 196 294 196 303 q 234 201 196 238 q 335 165 272 165 q 452 208 403 165 q 514 319 501 251 q 517 351 517 342 q 483 443 517 407 q 379 479 450 479 l 303 479 l 331 635 l 382 635 q 496 673 450 635 q 554 781 542 711 l 571 878 l 35 878 l 61 1028 l 1308 1028 l 1282 878 l 743 878 l 724 772 z "},"ऋ":{"ha":1444,"x_min":36,"x_max":1564,"o":"m 903 878 l 857 619 l 1078 619 q 1188 689 1165 619 l 1201 768 l 1357 768 l 1271 281 l 1238 281 q 1124 240 1165 281 q 1082 140 1082 200 q 1115 72 1082 94 q 1204 50 1149 50 q 1285 61 1240 50 l 1260 -82 q 1156 -93 1204 -93 q 974 -43 1043 -93 q 906 99 906 7 q 910 147 906 122 q 985 297 925 236 q 1133 379 1044 357 l 1154 500 q 1026 476 1099 476 l 832 476 l 749 0 l 583 0 l 635 290 l 278 0 l 51 0 l 53 8 l 664 468 q 615 567 657 529 q 501 604 572 604 q 335 544 403 604 q 249 385 267 485 l 69 385 q 145 578 89 494 q 287 709 201 663 q 475 756 372 756 q 697 646 632 756 l 738 878 l 36 878 l 61 1028 l 1564 1028 l 1538 878 l 903 878 z "},"ॠ":{"ha":1447,"x_min":35,"x_max":1567,"o":"m 903 878 l 857 619 l 1076 619 q 1155 642 1126 619 q 1190 706 1183 664 l 1193 719 l 1201 768 l 1357 768 l 1269 276 l 1218 276 q 1093 194 1107 276 q 1092 179 1092 189 q 1119 131 1092 146 q 1193 115 1147 115 l 1267 115 l 1243 -18 l 1175 -18 q 1039 -103 1054 -18 q 1038 -118 1038 -108 q 1150 -185 1038 -185 q 1228 -178 1189 -185 q 1293 -164 1268 -171 l 1271 -297 q 1192 -317 1239 -310 q 1100 -324 1144 -324 q 928 -283 996 -324 q 860 -160 860 -243 q 908 -27 860 -82 q 1026 44 956 28 l 1028 49 q 949 90 979 60 q 919 171 919 121 q 922 204 919 192 q 996 324 936 283 q 1132 374 1056 365 l 1154 500 q 1025 476 1092 476 l 832 476 l 749 0 l 583 0 l 635 292 l 278 0 l 50 0 l 51 8 l 664 469 q 614 567 657 531 q 500 604 571 604 q 334 544 403 604 q 249 385 265 483 l 69 385 q 144 578 89 494 q 285 709 200 663 q 474 756 371 756 q 697 644 632 756 l 738 878 l 35 878 l 61 1028 l 1567 1028 l 1539 878 l 903 878 z "},"ऌ":{"ha":1254,"x_min":28,"x_max":1367,"o":"m 1031 878 l 1004 729 q 1115 646 1075 706 q 1156 494 1156 586 q 1149 415 1156 461 q 1101 276 1136 338 l 1092 276 q 958 238 1003 276 q 914 136 914 199 q 949 69 914 92 q 1040 47 983 47 q 1122 57 1088 47 l 1097 -86 q 993 -96 1039 -96 q 808 -46 876 -96 q 739 100 739 4 q 743 150 739 124 q 817 290 757 231 q 960 369 878 350 l 971 417 q 975 460 975 440 q 946 551 975 517 q 860 586 917 586 q 738 531 786 586 q 678 388 690 475 l 671 353 l 522 353 l 528 388 q 532 446 532 419 q 505 549 532 511 q 419 586 478 586 q 300 538 347 586 q 240 413 253 490 q 235 361 235 376 q 273 259 235 294 q 381 224 311 224 l 421 226 l 394 69 q 344 68 374 68 q 126 139 200 68 q 51 335 51 210 q 58 415 51 381 q 129 594 76 521 q 258 706 182 668 q 419 743 333 743 q 565 694 514 743 q 628 568 617 644 l 633 568 q 714 672 664 628 q 832 733 764 715 l 857 878 l 28 878 l 56 1028 l 1367 1028 l 1340 878 l 1031 878 z "},"ॡ":{"ha":1269,"x_min":32,"x_max":1381,"o":"m 1031 878 l 1004 729 q 1115 646 1075 706 q 1156 496 1156 586 q 1149 415 1156 451 q 1103 276 1138 346 l 1057 276 q 931 194 944 276 q 929 179 929 189 q 958 131 929 146 q 1032 115 986 115 l 1106 115 l 1082 -18 l 1015 -18 q 878 -103 893 -18 q 876 -118 876 -108 q 990 -185 876 -185 q 1133 -164 1058 -185 l 1110 -297 q 1031 -317 1078 -310 q 939 -324 983 -324 q 768 -283 836 -324 q 700 -157 700 -242 q 748 -27 700 -82 q 865 44 796 28 l 867 49 q 788 90 818 60 q 758 171 758 121 q 761 204 758 192 q 831 320 775 279 q 958 372 886 361 q 971 417 967 393 q 975 460 975 440 q 946 551 975 517 q 860 586 917 586 q 737 531 785 586 q 676 388 689 475 l 671 353 l 522 353 l 528 388 q 532 443 532 417 q 505 547 532 508 q 419 586 478 586 q 300 538 347 586 q 239 413 253 490 q 235 364 235 386 q 272 260 235 296 q 381 224 310 224 l 421 226 l 393 69 q 344 68 374 68 q 126 139 200 68 q 51 335 51 210 q 58 415 51 381 q 129 594 76 521 q 258 706 182 668 q 419 743 333 743 q 565 693 514 743 q 628 568 617 643 l 633 568 q 713 672 664 628 q 832 733 763 715 l 857 878 l 32 878 l 58 1028 l 1381 1028 l 1354 878 l 1031 878 z "},"ए":{"ha":904,"x_min":33,"x_max":1024,"o":"m 997 878 l 863 878 l 840 749 q 744 531 814 604 q 543 457 674 457 q 476 461 513 457 l 504 621 q 532 619 514 619 q 622 652 590 619 q 667 753 654 685 l 688 878 l 365 878 l 276 369 q 271 318 271 333 q 308 215 271 251 q 413 179 346 179 q 532 222 485 179 q 592 342 579 264 l 768 342 q 647 109 743 192 q 399 26 550 26 q 171 99 250 26 q 92 299 92 172 q 99 376 92 332 l 186 878 l 33 878 l 60 1028 l 1024 1028 l 997 878 z "},"ऐ":{"ha":906,"x_min":35,"x_max":1025,"o":"m 999 878 l 864 878 l 842 749 q 745 531 815 604 q 544 457 675 457 q 478 461 514 457 l 506 621 q 533 619 515 619 q 624 652 592 619 q 668 753 656 685 l 689 878 l 367 878 l 278 369 q 272 318 272 333 q 310 215 272 251 q 414 179 347 179 q 533 222 486 179 q 593 342 581 264 l 769 342 q 648 109 744 192 q 400 26 551 26 q 172 99 251 26 q 93 299 93 172 q 100 376 93 332 l 188 878 l 35 878 l 61 1028 l 711 1028 q 635 1165 667 1122 q 567 1221 604 1207 q 461 1235 529 1235 l 394 1235 l 421 1379 l 485 1379 q 655 1356 594 1378 q 766 1260 715 1333 q 879 1028 817 1188 l 1025 1028 l 999 878 z "},"ओ":{"ha":1586,"x_min":58,"x_max":1706,"o":"m 1276 1028 l 1251 878 l 1097 878 l 942 0 l 763 0 l 833 399 l 671 400 q 667 349 671 374 q 553 152 644 225 q 332 79 461 79 q 133 142 207 79 q 58 311 58 206 q 64 368 58 342 l 231 368 q 228 342 228 351 q 260 264 228 294 q 349 233 293 233 q 463 278 418 233 q 508 393 508 324 q 476 471 508 440 q 376 501 443 501 l 317 501 l 342 646 l 401 646 q 521 689 475 646 q 567 790 567 732 q 538 862 567 836 q 461 888 508 888 q 362 855 404 888 q 310 769 319 822 l 144 769 q 261 966 167 892 q 488 1040 356 1040 q 666 986 600 1040 q 732 840 732 932 q 728 790 732 815 q 665 658 715 713 q 536 581 615 603 l 536 576 q 601 547 571 569 l 860 547 l 944 1028 l 1276 1028 m 1346 878 l 1192 878 l 1218 1028 l 1706 1028 l 1679 878 l 1525 878 l 1372 0 l 1192 0 l 1346 878 m 1424 1022 q 1345 1164 1378 1121 q 1276 1221 1313 1207 q 1171 1235 1239 1235 l 1104 1235 l 1129 1379 l 1193 1379 q 1365 1356 1304 1378 q 1476 1259 1425 1333 q 1592 1022 1528 1185 l 1424 1022 z "},"औ":{"ha":1586,"x_min":58,"x_max":1706,"o":"m 1276 1028 l 1251 878 l 1097 878 l 942 0 l 763 0 l 833 399 l 671 400 q 667 349 671 374 q 553 152 644 225 q 332 79 461 79 q 133 142 207 79 q 58 311 58 206 q 64 368 58 342 l 231 368 q 228 342 228 351 q 260 264 228 294 q 349 233 293 233 q 463 278 418 233 q 508 393 508 324 q 476 471 508 440 q 376 501 443 501 l 317 501 l 342 646 l 401 646 q 521 689 475 646 q 567 790 567 732 q 538 862 567 836 q 461 888 508 888 q 362 855 404 888 q 310 769 319 822 l 144 769 q 261 966 167 892 q 488 1040 356 1040 q 666 986 600 1040 q 732 840 732 932 q 728 790 732 815 q 665 658 715 713 q 536 581 615 603 l 536 576 q 601 547 571 569 l 860 547 l 944 1028 l 1276 1028 m 1346 878 l 1192 878 l 1218 1028 l 1706 1028 l 1679 878 l 1525 878 l 1372 0 l 1192 0 l 1346 878 m 1199 1472 q 1363 1448 1310 1472 q 1465 1333 1417 1424 q 1589 1024 1514 1243 l 1435 1024 q 1325 1104 1358 1083 q 1256 1131 1292 1125 q 1140 1136 1221 1136 l 1071 1136 l 1092 1249 l 1156 1249 q 1270 1244 1233 1249 q 1342 1220 1307 1239 q 1426 1157 1378 1201 q 1354 1294 1389 1251 q 1283 1348 1319 1338 q 1183 1358 1246 1358 l 1111 1358 l 1131 1472 l 1199 1472 z "},"ऍ":{"ha":906,"x_min":-1,"x_max":989,"o":"m 531 1147 q 326 1206 393 1147 q 260 1365 260 1265 q 265 1422 260 1383 l 419 1422 q 417 1393 417 1403 q 451 1312 417 1343 q 554 1281 485 1281 q 681 1322 633 1281 q 738 1422 728 1363 l 892 1422 q 778 1224 871 1300 q 531 1147 686 1147 m 963 878 l 828 878 l 806 749 q 709 531 779 604 q 508 457 639 457 q 442 461 478 457 l 469 621 q 497 619 479 619 q 588 652 556 619 q 632 753 619 685 l 653 878 l 331 878 l 242 369 q 236 318 236 333 q 274 215 236 251 q 378 179 311 179 q 497 222 450 179 q 557 342 544 264 l 733 342 q 612 109 708 192 q 364 26 515 26 q 136 99 215 26 q 57 299 57 172 q 64 376 57 332 l 151 878 l -1 878 l 25 1028 l 989 1028 l 963 878 z "},"ॲ":{"ha":1157,"x_min":58,"x_max":1479,"o":"m 1276 1028 l 1251 878 l 1097 878 l 942 0 l 763 0 l 833 399 l 671 400 q 667 349 671 374 q 553 152 644 225 q 332 79 461 79 q 133 142 207 79 q 58 311 58 206 q 64 368 58 342 l 231 368 q 228 342 228 351 q 260 264 228 294 q 349 233 293 233 q 463 278 418 233 q 508 393 508 324 q 476 471 508 440 q 376 501 443 501 l 317 501 l 342 646 l 401 646 q 521 689 475 646 q 567 790 567 732 q 538 862 567 836 q 461 888 508 888 q 362 855 404 888 q 310 769 319 822 l 144 769 q 261 966 167 892 q 488 1040 356 1040 q 666 986 600 1040 q 732 840 732 932 q 728 790 732 815 q 665 658 715 713 q 536 581 615 603 l 536 576 q 601 547 571 569 l 860 547 l 944 1028 l 1276 1028 m 1126 1153 q 917 1213 988 1153 q 847 1372 847 1272 q 853 1428 847 1389 l 1007 1428 q 1004 1397 1004 1408 q 1038 1317 1004 1347 q 1140 1286 1071 1286 q 1267 1326 1219 1286 q 1325 1428 1315 1367 l 1479 1428 q 1370 1228 1458 1304 q 1126 1153 1282 1153 z "},"ऑ":{"ha":1586,"x_min":58,"x_max":1706,"o":"m 1276 1028 l 1251 878 l 1097 878 l 942 0 l 763 0 l 833 399 l 671 400 q 667 349 671 374 q 553 152 644 225 q 332 79 461 79 q 133 142 207 79 q 58 311 58 206 q 64 368 58 342 l 231 368 q 228 342 228 351 q 260 264 228 294 q 349 233 293 233 q 463 278 418 233 q 508 393 508 324 q 476 471 508 440 q 376 501 443 501 l 317 501 l 342 646 l 401 646 q 521 689 475 646 q 567 790 567 732 q 538 862 567 836 q 461 888 508 888 q 362 855 404 888 q 310 769 319 822 l 144 769 q 261 966 167 892 q 488 1040 356 1040 q 666 986 600 1040 q 732 840 732 932 q 728 790 732 815 q 665 658 715 713 q 536 581 615 603 l 536 576 q 601 547 571 569 l 860 547 l 944 1028 l 1276 1028 m 1346 878 l 1192 878 l 1218 1028 l 1706 1028 l 1679 878 l 1525 878 l 1372 0 l 1192 0 l 1346 878 m 1332 1149 q 1123 1208 1193 1149 q 1053 1368 1053 1268 q 1058 1424 1053 1385 l 1213 1424 q 1210 1393 1210 1404 q 1243 1313 1210 1343 q 1346 1282 1276 1282 q 1473 1322 1425 1282 q 1531 1424 1521 1363 l 1685 1424 q 1576 1224 1664 1300 q 1332 1149 1488 1149 z "},"ा":{"ha":429,"x_min":35,"x_max":549,"o":"m 189 878 l 35 878 l 61 1028 l 549 1028 l 522 878 l 368 878 l 215 0 l 35 0 l 189 878 z "},"ि":{"ha":429,"x_min":33,"x_max":1343,"o":"m 846 1414 q 1106 1373 993 1414 q 1281 1255 1218 1332 q 1343 1074 1343 1178 q 1338 1011 1343 1040 l 1333 988 l 1153 988 l 1157 1008 q 1160 1047 1160 1022 q 1061 1212 1160 1157 q 819 1267 963 1267 q 541 1209 663 1267 q 393 1028 419 1151 l 549 1028 l 522 878 l 368 878 l 214 0 l 33 0 l 189 878 l 35 878 l 61 1028 l 215 1028 q 330 1237 242 1150 q 551 1369 418 1324 q 846 1414 685 1414 z "},"ी":{"ha":429,"x_min":-222,"x_max":549,"o":"m 549 1028 l 522 878 l 369 878 l 214 0 l 35 0 l 190 878 l 36 878 l 63 1028 l 221 1028 l 231 1082 q 238 1147 238 1117 q 135 1263 238 1263 q -31 1082 4 1263 l -47 988 l -222 988 l -206 1074 q -90 1322 -179 1231 q 161 1414 0 1414 q 354 1350 294 1414 q 414 1175 414 1286 q 404 1074 414 1135 l 396 1028 l 549 1028 z "},"ु":{"ha":0,"x_min":-751,"x_max":-111,"o":"m -447 -451 q -664 -392 -576 -451 q -751 -211 -751 -333 q -744 -140 -751 -172 l -585 -140 q -590 -187 -590 -162 q -548 -279 -590 -249 q -435 -310 -506 -310 q -322 -279 -367 -310 q -268 -194 -278 -249 q -267 -175 -267 -187 q -292 -112 -267 -136 q -367 -87 -318 -87 l -410 -87 l -385 53 l -342 53 q -172 -3 -233 53 q -111 -154 -111 -60 q -114 -197 -111 -167 q -221 -383 -131 -315 q -447 -451 -311 -451 z "},"ू":{"ha":0,"x_min":-635,"x_max":-4,"o":"m -407 -433 q -568 -383 -501 -433 q -635 -240 -635 -332 q -631 -194 -635 -219 q -525 -17 -611 -81 q -312 46 -439 46 q -83 -40 -161 46 q -4 -265 -4 -126 q -12 -358 -4 -311 q -20 -396 -17 -379 q -26 -425 -24 -412 l -174 -425 l -160 -350 q -151 -275 -151 -311 q -197 -137 -151 -187 q -326 -87 -242 -87 q -432 -117 -387 -87 q -486 -200 -476 -147 q -487 -221 -487 -207 q -458 -282 -487 -260 q -383 -304 -429 -304 q -344 -303 -358 -304 l -367 -432 q -407 -433 -381 -433 z "},"ृ":{"ha":0,"x_min":-608,"x_max":-192,"o":"m -360 -453 q -479 -428 -422 -453 q -572 -355 -536 -404 q -608 -236 -608 -306 q -604 -186 -608 -214 q -498 -14 -585 -76 q -274 49 -411 49 q -207 47 -218 49 l -228 -75 l -281 -75 q -392 -111 -351 -75 q -433 -208 -433 -147 q -397 -283 -433 -256 q -306 -310 -360 -310 q -192 -293 -251 -310 l -217 -432 q -360 -453 -283 -453 z "},"ॄ":{"ha":0,"x_min":-617,"x_max":-182,"o":"m -376 -650 q -548 -609 -479 -650 q -617 -485 -617 -568 q -569 -354 -617 -408 q -450 -283 -521 -300 l -450 -279 q -529 -236 -500 -267 q -558 -154 -558 -206 q -556 -124 -558 -146 q -467 7 -539 -35 q -310 49 -394 49 l -207 49 l -224 -50 l -258 -50 q -383 -132 -369 -50 q -385 -147 -385 -137 q -357 -196 -385 -181 q -283 -211 -329 -211 l -210 -211 l -232 -344 l -300 -344 q -437 -426 -424 -344 q -439 -443 -439 -432 q -407 -495 -439 -479 q -325 -511 -375 -511 q -182 -490 -257 -511 l -207 -624 q -285 -643 -237 -636 q -376 -650 -332 -650 z "},"ॢ":{"ha":0,"x_min":-765,"x_max":63,"o":"m 15 -378 q -78 -401 -46 -378 q -118 -464 -111 -424 q -119 -478 -119 -469 q -93 -528 -119 -511 q -26 -544 -67 -544 q 36 -536 7 -544 l 15 -649 q -64 -656 -24 -656 q -203 -617 -151 -656 q -256 -507 -256 -578 q -208 -378 -256 -433 q -92 -306 -161 -322 q -86 -276 -89 -296 q -82 -240 -82 -258 q -103 -176 -82 -200 q -164 -153 -125 -153 q -249 -192 -217 -153 q -294 -296 -282 -232 l -299 -321 l -415 -321 l -411 -296 q -407 -250 -407 -271 q -427 -179 -407 -206 q -489 -153 -447 -153 q -574 -187 -540 -153 q -619 -278 -608 -221 q -622 -311 -622 -300 q -594 -386 -622 -360 q -517 -412 -567 -412 q -487 -410 -497 -412 l -510 -532 q -544 -533 -522 -533 q -709 -480 -653 -533 q -765 -335 -765 -426 q -760 -276 -765 -304 q -663 -94 -740 -158 q -487 -31 -586 -31 q -380 -67 -417 -31 q -333 -158 -343 -103 l -329 -158 q -247 -67 -300 -103 q -121 -31 -194 -31 q 12 -79 -39 -31 q 63 -218 63 -128 q 57 -276 63 -249 q 24 -378 46 -333 l 15 -378 z "},"ॣ":{"ha":0,"x_min":-765,"x_max":63,"o":"m -14 -378 q -79 -394 -53 -378 q -106 -446 -106 -410 q -85 -483 -106 -471 q -29 -494 -64 -494 l 24 -494 l 4 -599 l -43 -599 q -112 -612 -85 -599 q -144 -660 -139 -625 q -126 -703 -150 -690 q -62 -717 -103 -717 q -4 -712 -33 -717 q 43 -701 25 -707 l 24 -806 q -34 -819 1 -814 q -103 -824 -69 -824 q -231 -794 -181 -824 q -282 -701 -282 -764 q -247 -601 -282 -642 q -157 -550 -211 -561 l -157 -547 q -236 -453 -236 -529 q -194 -349 -236 -385 q -92 -303 -151 -312 q -85 -276 -86 -287 q -82 -243 -82 -254 q -103 -177 -82 -201 q -164 -153 -124 -153 q -249 -192 -217 -153 q -293 -296 -281 -232 l -297 -321 l -415 -321 l -410 -296 q -406 -251 -406 -274 q -426 -180 -406 -207 q -489 -153 -447 -153 q -574 -187 -540 -153 q -619 -278 -608 -221 q -622 -310 -622 -300 q -594 -386 -622 -360 q -515 -412 -567 -412 q -487 -410 -496 -412 l -508 -532 q -544 -533 -522 -533 q -709 -480 -653 -533 q -765 -335 -765 -426 q -760 -276 -765 -304 q -662 -94 -737 -158 q -487 -31 -586 -31 q -380 -66 -417 -31 q -332 -158 -343 -101 l -329 -158 q -247 -67 -300 -103 q -121 -31 -194 -31 q 12 -78 -39 -31 q 63 -215 63 -126 q 57 -276 63 -247 q 24 -378 49 -326 l -14 -378 z "},"े":{"ha":0,"x_min":-524,"x_max":-36,"o":"m -204 1022 q -283 1164 -250 1121 q -352 1221 -315 1207 q -457 1235 -389 1235 l -524 1235 l -499 1379 l -435 1379 q -263 1356 -324 1378 q -151 1259 -203 1333 q -36 1022 -100 1185 l -204 1022 z "},"ै":{"ha":0,"x_min":-561,"x_max":-43,"o":"m -433 1472 q -269 1448 -322 1472 q -167 1333 -215 1424 q -43 1024 -118 1243 l -197 1024 q -307 1104 -274 1083 q -376 1131 -340 1125 q -492 1136 -411 1136 l -561 1136 l -540 1249 l -476 1249 q -362 1244 -399 1249 q -290 1220 -325 1239 q -206 1157 -254 1201 q -278 1294 -243 1251 q -349 1348 -312 1338 q -449 1358 -386 1358 l -521 1358 l -501 1472 l -433 1472 z "},"ो":{"ha":431,"x_min":-94,"x_max":550,"o":"m 550 1028 l 522 878 l 369 878 l 215 0 l 36 0 l 190 878 l 36 878 l 63 1028 l 222 1028 q 147 1165 178 1122 q 78 1221 115 1207 q -26 1235 42 1235 l -94 1235 l -68 1379 l -4 1379 q 167 1356 107 1378 q 277 1260 226 1333 q 390 1028 328 1188 l 550 1028 z "},"ौ":{"ha":429,"x_min":-169,"x_max":510,"o":"m 510 1028 l 483 878 l 329 878 l 175 0 l -4 0 l 150 878 l -4 878 l 22 1028 l 189 1028 q 83 1105 115 1085 q 15 1131 50 1125 q -101 1136 -21 1136 l -169 1136 l -150 1249 l -85 1249 q 29 1244 -8 1249 q 101 1220 67 1239 q 186 1156 136 1201 q 114 1293 149 1250 q 42 1347 79 1336 q -58 1358 6 1358 l -131 1358 l -111 1472 l -43 1472 q 123 1448 69 1472 q 224 1335 176 1424 q 347 1028 272 1246 l 510 1028 z "},"ॅ":{"ha":0,"x_min":-378,"x_max":254,"o":"m -99 1131 q -308 1190 -237 1131 q -378 1350 -378 1250 q -372 1406 -378 1367 l -218 1406 q -221 1375 -221 1386 q -187 1294 -221 1325 q -85 1264 -154 1264 q 42 1304 -6 1264 q 100 1406 90 1344 l 254 1406 q 145 1206 233 1282 q -99 1131 57 1131 z "},"ॉ":{"ha":432,"x_min":35,"x_max":685,"o":"m 332 1131 q 123 1190 193 1131 q 53 1350 53 1250 q 58 1406 53 1367 l 213 1406 q 210 1375 210 1386 q 243 1294 210 1325 q 346 1264 276 1264 q 473 1304 425 1264 q 531 1406 521 1344 l 685 1406 q 576 1206 664 1282 q 332 1131 488 1131 m 189 878 l 35 878 l 61 1028 l 549 1028 l 522 878 l 368 878 l 215 0 l 35 0 l 189 878 z "},"क":{"ha":1356,"x_min":35,"x_max":1475,"o":"m 838 878 l 796 640 q 893 722 835 692 q 1024 751 951 751 q 1200 681 1135 751 q 1265 497 1265 610 q 1258 426 1265 468 q 1137 198 1231 279 q 915 117 1043 117 q 826 128 874 117 l 851 268 q 894 264 868 264 q 1013 309 961 264 q 1078 431 1065 354 q 1081 465 1081 456 q 1045 562 1081 525 q 949 599 1010 599 q 820 546 869 599 q 757 415 771 493 l 757 417 l 683 0 l 511 0 l 550 221 q 448 138 508 168 q 310 107 388 107 q 130 177 199 107 q 61 364 61 247 q 68 435 61 393 q 190 665 94 579 q 419 751 285 751 q 549 722 497 751 q 624 639 601 692 l 665 878 l 35 878 l 61 1028 l 1475 1028 l 1447 878 l 838 878 m 586 428 q 589 463 589 439 q 553 560 589 521 q 449 600 518 600 q 349 574 396 600 q 274 500 303 547 q 246 393 246 453 q 285 294 246 331 q 386 258 324 258 q 519 308 467 258 q 585 421 572 357 l 586 428 z "},"ख":{"ha":1319,"x_min":36,"x_max":1439,"o":"m 1439 1028 l 1413 878 l 1258 878 l 1106 0 l 926 0 l 971 250 q 775 168 896 168 q 731 172 751 168 q 581 42 669 92 q 383 -7 492 -7 q 150 67 233 -7 q 67 279 67 142 q 75 367 67 321 l 108 557 l 149 557 q 299 601 242 557 q 374 749 357 646 l 396 878 l 36 878 l 63 1028 l 1439 1028 m 1081 878 l 576 878 l 550 725 q 449 513 526 586 q 264 431 372 439 l 250 346 q 246 301 246 324 q 290 189 246 231 q 415 147 333 147 q 528 174 479 147 q 610 243 576 201 q 557 407 557 310 q 563 472 557 443 q 667 665 583 593 q 863 738 750 738 q 1042 653 992 738 l 1081 878 m 838 304 q 928 331 889 304 q 988 399 967 358 q 1008 482 1008 440 q 978 567 1008 532 q 886 601 947 601 q 776 563 824 601 q 715 456 728 524 q 713 424 713 433 q 747 335 713 367 q 838 304 782 304 z "},"ग":{"ha":1096,"x_min":35,"x_max":1214,"o":"m 1214 1028 l 1188 878 l 1033 878 l 879 0 l 700 0 l 854 878 l 651 878 l 593 540 q 496 340 572 417 q 288 264 419 264 q 117 319 179 264 q 54 472 54 375 q 60 532 54 504 l 68 575 l 242 575 l 233 532 q 231 497 231 507 q 303 417 231 417 q 378 451 351 417 q 413 533 404 485 l 472 878 l 35 878 l 61 1028 l 1214 1028 z "},"घ":{"ha":976,"x_min":35,"x_max":1096,"o":"m 1068 878 l 917 878 l 763 0 l 582 0 l 628 263 q 499 170 575 203 q 338 138 424 138 q 148 192 222 138 q 74 346 74 247 q 78 390 74 368 q 149 525 93 471 q 278 594 206 579 l 278 599 q 194 647 225 611 q 164 744 164 682 q 169 797 164 758 l 183 878 l 35 878 l 61 1028 l 1096 1028 l 1068 878 m 736 878 l 363 878 l 350 806 q 347 771 347 781 q 378 696 347 721 q 475 671 408 671 l 535 671 l 508 526 l 436 526 q 306 486 351 526 q 261 385 261 446 q 301 309 261 335 q 406 283 340 283 q 574 341 500 283 q 668 490 649 399 l 736 878 z "},"ङ":{"ha":954,"x_min":32,"x_max":1074,"o":"m 1074 1028 l 1047 878 l 721 878 l 697 750 l 699 750 l 675 624 l 424 624 q 334 605 372 624 q 288 540 296 586 q 286 525 286 535 q 313 474 286 490 q 382 457 339 457 l 443 457 q 622 408 551 457 q 692 261 692 358 q 688 211 692 239 q 579 38 667 101 q 346 -25 492 -25 q 118 37 204 -25 q 32 206 32 99 q 35 243 32 218 l 214 243 q 213 221 213 235 q 251 140 213 169 q 357 111 289 111 q 475 148 431 111 q 519 242 519 185 q 484 308 519 288 q 389 329 449 329 l 336 329 q 176 371 247 329 q 106 504 106 413 q 110 546 106 524 q 208 699 128 649 q 397 750 288 750 l 524 750 l 547 878 l 38 878 l 64 1028 l 1074 1028 m 856 624 q 916 601 893 624 q 939 542 939 578 q 938 525 939 531 q 896 456 929 485 q 821 428 863 428 q 762 450 785 428 q 739 507 739 472 q 774 589 739 554 q 856 624 810 624 z "},"च":{"ha":1036,"x_min":35,"x_max":1156,"o":"m 1129 878 l 975 878 l 821 0 l 642 0 l 685 246 q 563 156 635 188 q 411 124 492 124 q 234 181 303 124 q 165 339 165 239 q 171 393 165 354 q 212 498 182 450 q 289 578 242 546 l 81 578 l 106 719 l 615 719 l 590 578 l 536 578 q 410 535 463 578 q 344 424 357 492 q 342 393 342 401 q 383 304 342 336 q 490 272 425 272 q 647 337 582 274 q 729 499 711 400 l 796 878 l 35 878 l 61 1028 l 1156 1028 l 1129 878 z "},"छ":{"ha":1138,"x_min":33,"x_max":1257,"o":"m 954 878 l 931 744 q 1037 669 999 724 q 1075 531 1075 614 q 1068 460 1075 501 q 964 233 1044 329 q 756 84 883 136 q 468 32 629 32 q 253 63 347 32 q 107 155 160 94 q 54 297 54 215 q 60 349 54 325 q 131 485 76 432 q 265 558 185 538 l 265 563 q 153 710 153 589 q 157 761 153 735 l 178 878 l 33 878 l 60 1028 l 1257 1028 l 1231 878 l 954 878 m 788 878 l 358 878 l 339 769 q 335 731 335 749 q 453 635 335 635 l 482 635 l 457 490 l 431 490 q 290 443 340 490 q 240 328 240 396 q 306 222 240 258 q 496 185 371 185 q 776 259 667 185 q 911 468 886 333 q 915 510 915 492 q 890 592 915 563 q 825 622 865 622 q 742 589 779 622 q 693 493 704 556 q 688 433 688 467 q 692 378 688 406 l 543 378 q 539 433 539 403 q 546 513 539 467 q 622 668 563 610 q 764 746 681 726 l 788 878 z "},"ज":{"ha":1183,"x_min":35,"x_max":1303,"o":"m 1276 878 l 1122 878 l 969 0 l 789 0 l 882 531 l 683 531 l 669 454 q 555 238 646 321 q 328 156 464 156 q 139 221 208 156 q 69 396 69 286 q 75 461 69 432 l 115 683 l 294 683 l 256 460 q 251 417 251 438 q 276 340 251 367 q 349 313 301 313 q 444 352 406 313 q 496 460 483 392 l 536 683 l 910 683 l 943 878 l 35 878 l 61 1028 l 1303 1028 l 1276 878 z "},"झ":{"ha":1207,"x_min":25,"x_max":1326,"o":"m 1300 878 l 1146 878 l 990 0 l 815 0 l 872 322 l 667 322 q 685 240 685 283 q 681 193 685 218 q 592 42 663 100 q 411 -17 522 -17 q 292 10 338 -17 q 226 69 247 38 l 194 -114 l 25 -114 l 86 236 l 247 236 q 278 149 244 183 q 379 115 313 115 q 484 151 447 115 q 521 240 521 188 q 488 306 521 282 q 390 329 454 329 q 308 332 338 329 q 164 379 222 336 q 106 508 106 422 q 110 551 106 529 q 209 704 128 656 q 401 753 290 753 l 528 753 l 550 878 l 46 878 l 72 1028 l 1326 1028 l 1300 878 m 969 878 l 724 878 l 694 711 l 678 624 l 425 624 q 329 601 369 624 q 289 521 289 578 q 315 472 289 488 q 385 457 342 457 l 446 457 l 896 457 l 969 878 z "},"ञ":{"ha":1146,"x_min":35,"x_max":1265,"o":"m 1239 878 l 1086 878 l 932 0 l 751 0 l 814 356 l 689 356 q 551 164 647 235 q 326 93 456 93 q 126 158 200 93 q 53 328 53 222 l 54 353 l 224 353 q 262 275 228 306 q 354 244 296 244 q 481 296 431 244 q 544 425 532 347 q 549 467 549 446 q 516 565 549 528 q 418 603 483 603 q 314 572 360 603 q 249 494 268 540 l 79 494 q 208 683 110 611 q 443 756 307 756 q 640 688 568 756 q 714 507 711 621 l 840 507 l 906 878 l 35 878 l 61 1028 l 1265 1028 l 1239 878 z "},"ट":{"ha":896,"x_min":32,"x_max":1015,"o":"m 507 600 q 331 547 406 600 q 238 393 256 493 q 233 353 233 372 q 282 238 233 282 q 413 194 331 194 q 574 252 507 194 q 656 403 640 310 l 828 403 q 749 212 808 294 q 599 84 690 129 q 393 39 507 39 q 215 76 293 39 q 94 179 138 113 q 51 335 51 246 q 57 399 51 369 q 211 660 86 568 q 524 751 336 751 l 529 751 l 551 878 l 32 878 l 58 1028 l 1015 1028 l 989 878 l 728 878 l 678 600 l 507 600 z "},"ठ":{"ha":931,"x_min":32,"x_max":1050,"o":"m 614 878 l 590 746 q 767 648 700 722 q 835 463 835 574 q 828 394 835 433 q 747 211 810 289 q 590 92 683 133 q 388 51 496 51 q 217 88 293 51 q 98 190 142 124 q 54 346 54 257 q 60 411 54 382 q 181 640 83 553 q 414 749 278 726 l 438 878 l 32 878 l 58 1028 l 1050 1028 l 1024 878 l 614 878 m 654 442 q 607 559 654 514 q 479 604 560 604 q 356 573 413 604 q 267 488 300 542 q 233 365 233 433 q 281 246 233 292 q 407 200 328 200 q 531 231 474 200 q 621 318 588 263 q 654 442 654 374 z "},"ड":{"ha":792,"x_min":32,"x_max":911,"o":"m 424 624 q 334 605 372 624 q 288 540 296 586 q 286 525 286 535 q 313 474 286 490 q 382 457 339 457 l 443 457 q 622 408 551 457 q 692 261 692 358 q 688 211 692 239 q 579 38 667 101 q 346 -25 492 -25 q 118 37 204 -25 q 32 206 32 99 q 35 243 32 218 l 214 243 q 213 221 213 235 q 251 140 213 169 q 357 111 289 111 q 475 148 431 111 q 519 242 519 185 q 484 308 519 288 q 389 329 449 329 l 336 329 q 176 371 247 329 q 106 504 106 413 q 110 546 106 524 q 208 699 128 649 q 397 750 288 750 l 519 750 l 543 878 l 38 878 l 64 1028 l 911 1028 l 885 878 l 717 878 l 671 624 l 424 624 z "},"ढ":{"ha":903,"x_min":36,"x_max":1022,"o":"m 565 636 q 347 569 440 636 q 232 378 254 501 q 228 326 228 351 q 286 181 228 236 q 454 126 344 126 q 604 167 542 126 q 679 275 667 207 q 681 294 681 282 q 658 355 681 332 q 597 378 635 378 q 528 355 558 378 q 492 292 499 332 q 489 265 489 283 l 361 265 q 365 314 361 293 q 452 455 381 404 q 628 506 524 506 q 779 453 722 506 q 836 314 836 400 q 832 269 836 293 q 703 71 808 144 q 436 -3 599 -3 q 238 38 325 -3 q 103 151 151 78 q 54 322 54 225 q 61 393 54 351 q 151 594 83 511 q 317 718 218 676 q 532 760 415 760 l 569 760 l 590 878 l 36 878 l 63 1028 l 1022 1028 l 994 878 l 758 878 l 717 636 l 565 636 z "},"ण":{"ha":1224,"x_min":35,"x_max":1342,"o":"m 1315 878 l 1163 878 l 1007 0 l 828 0 l 983 878 l 764 878 l 700 517 q 593 302 676 383 q 374 221 510 221 q 183 285 253 221 q 113 456 113 349 q 118 517 113 489 l 182 878 l 35 878 l 61 1028 l 1342 1028 l 1315 878 m 589 878 l 358 878 l 292 500 q 289 469 289 478 q 314 399 289 425 q 385 372 339 372 q 475 407 439 372 q 522 500 511 442 l 589 878 z "},"त":{"ha":976,"x_min":35,"x_max":1094,"o":"m 1068 878 l 914 878 l 760 0 l 581 0 l 674 532 l 489 532 q 317 483 386 532 q 232 339 249 433 q 228 293 228 317 q 273 183 228 222 q 406 143 318 143 l 432 143 l 407 1 l 369 1 q 138 73 229 1 q 47 279 47 144 q 53 347 47 315 q 206 603 82 519 q 508 686 329 686 l 701 686 l 735 878 l 35 878 l 61 1028 l 1094 1028 l 1068 878 z "},"थ":{"ha":1088,"x_min":79,"x_max":1206,"o":"m 1206 1028 l 1181 878 l 1026 878 l 871 0 l 692 0 l 742 285 q 613 172 700 219 q 413 124 525 124 q 169 205 258 124 q 79 428 79 286 q 88 513 79 467 q 110 601 100 574 l 236 601 q 438 640 358 601 q 535 772 518 678 q 538 796 538 789 q 513 862 538 836 q 444 888 488 888 q 342 837 379 888 q 308 714 306 786 l 146 714 q 189 878 149 804 q 303 997 229 953 q 474 1040 376 1040 q 644 983 581 1040 q 707 826 707 925 q 701 767 707 794 q 568 549 678 626 q 283 472 458 472 l 256 472 q 253 440 253 450 q 306 319 253 365 q 464 272 360 272 q 609 306 540 272 q 726 406 678 340 q 790 561 775 472 l 872 1028 l 1206 1028 z "},"द":{"ha":851,"x_min":39,"x_max":971,"o":"m 489 597 q 333 551 397 597 q 253 421 268 506 q 250 383 250 408 q 288 286 250 322 q 390 250 325 250 q 505 290 453 250 q 569 401 557 329 l 735 401 l 658 -36 l 483 -36 l 522 192 q 433 130 486 151 q 315 108 379 108 q 135 176 206 108 q 64 361 64 243 q 71 433 64 392 q 215 670 99 589 q 497 751 332 751 l 568 751 l 590 878 l 39 878 l 65 1028 l 971 1028 l 943 878 l 769 878 l 721 597 l 489 597 z "},"ध":{"ha":1013,"x_min":76,"x_max":1132,"o":"m 1106 878 l 956 878 l 801 0 l 621 0 l 667 258 q 529 154 611 190 q 346 118 447 118 q 152 173 228 118 q 76 325 76 228 q 81 368 76 346 q 154 503 96 453 q 279 567 213 554 l 281 572 q 182 636 221 589 q 143 758 143 683 q 147 807 143 781 q 242 978 165 915 q 429 1040 319 1040 q 589 990 532 1040 q 646 853 646 940 q 631 758 646 811 l 497 758 q 504 804 504 786 q 483 867 504 844 q 418 890 461 890 q 330 849 365 890 q 294 751 294 808 q 333 672 294 699 q 436 646 371 646 l 543 646 l 518 500 l 444 500 q 313 465 361 500 q 265 367 265 429 q 306 292 265 318 q 417 265 347 265 q 607 333 525 265 q 711 511 689 401 l 776 878 l 801 1028 l 1132 1028 l 1106 878 z "},"न":{"ha":1125,"x_min":35,"x_max":1244,"o":"m 1218 878 l 1064 878 l 910 0 l 731 0 l 826 544 l 615 544 q 642 435 642 499 q 638 385 642 413 q 576 243 624 303 q 460 152 528 183 q 317 121 392 121 q 180 151 240 121 q 85 238 119 182 q 51 363 51 293 q 57 417 51 381 q 179 622 81 551 q 419 693 278 693 l 853 693 l 885 878 l 35 878 l 61 1028 l 1244 1028 l 1218 878 m 500 436 q 469 514 500 485 q 385 543 438 543 q 266 497 315 543 q 217 381 217 450 q 249 302 217 332 q 336 272 281 272 q 452 321 404 272 q 500 436 500 369 z "},"प":{"ha":929,"x_min":35,"x_max":1047,"o":"m 1021 878 l 868 878 l 714 0 l 535 0 l 593 331 q 372 242 507 242 q 178 315 247 242 q 108 510 108 388 q 117 594 108 551 l 167 878 l 35 878 l 61 1028 l 1047 1028 l 1021 878 m 689 878 l 346 878 l 296 594 q 290 540 290 556 q 328 432 290 471 q 439 393 365 393 q 569 443 517 393 q 635 572 621 493 l 689 878 z "},"फ":{"ha":1368,"x_min":35,"x_max":1486,"o":"m 844 878 l 801 639 q 906 722 844 692 q 1046 751 968 751 q 1219 685 1157 751 q 1281 507 1281 618 q 1275 439 1281 471 q 1207 266 1257 339 q 1085 155 1157 193 q 929 117 1013 117 q 835 131 875 117 l 858 268 q 908 263 889 263 q 1026 308 976 263 q 1090 431 1076 354 q 1094 468 1094 450 q 1058 563 1094 526 q 963 599 1022 599 q 829 544 882 599 q 761 407 776 490 l 689 0 l 510 0 l 567 328 q 358 242 485 242 q 172 311 238 242 q 107 499 107 381 q 115 586 107 540 l 168 878 l 35 878 l 61 1028 l 1486 1028 l 1460 878 l 844 878 m 664 878 l 347 878 l 296 586 q 290 526 290 558 q 324 428 290 463 q 425 393 357 393 q 544 440 496 393 q 607 557 593 486 l 664 878 z "},"ब":{"ha":956,"x_min":35,"x_max":1075,"o":"m 1075 1028 l 1049 878 l 894 878 l 740 0 l 568 0 l 606 211 q 496 129 563 160 q 349 99 429 99 q 201 133 265 99 q 100 231 136 168 q 64 376 64 294 q 71 444 64 406 q 142 615 88 542 q 280 727 197 688 q 461 767 363 767 q 597 737 540 767 q 683 657 653 707 l 722 878 l 35 878 l 61 1028 l 1075 1028 m 656 438 q 658 475 658 450 q 611 600 658 550 q 478 650 564 650 q 328 601 396 650 l 613 335 q 656 438 647 385 m 226 436 q 222 394 222 414 q 274 272 222 317 q 407 228 326 228 q 554 275 492 228 l 269 542 q 226 436 236 493 z "},"भ":{"ha":1153,"x_min":57,"x_max":1272,"o":"m 1272 1028 l 1247 878 l 1092 878 l 936 0 l 757 0 l 843 493 l 651 493 l 636 411 q 525 185 611 265 q 303 106 439 106 q 123 163 189 106 q 57 319 57 221 q 63 374 57 335 q 180 571 85 501 q 406 640 275 640 l 508 640 l 529 754 q 533 800 533 779 q 457 886 533 886 q 383 857 414 886 q 343 776 353 828 q 339 729 339 754 l 160 729 q 164 783 160 757 q 265 969 183 899 q 475 1040 347 1040 q 700 817 700 1040 q 692 722 700 772 l 676 640 l 869 640 l 938 1028 l 1272 1028 m 483 493 l 385 493 q 272 453 317 493 q 226 349 226 414 q 254 283 226 307 q 326 258 282 258 q 419 297 382 258 q 467 401 456 335 l 483 493 z "},"म":{"ha":1140,"x_min":31,"x_max":1260,"o":"m 1233 878 l 1079 878 l 925 0 l 744 0 l 832 493 l 624 493 l 610 411 q 498 186 585 267 q 276 106 411 106 q 97 164 163 106 q 31 321 31 222 q 35 374 31 347 q 153 571 57 501 q 378 640 249 640 l 482 640 l 524 878 l 35 878 l 61 1028 l 1260 1028 l 1233 878 m 900 878 l 692 878 l 650 640 l 858 640 l 900 878 m 457 493 l 357 493 q 245 453 290 493 q 200 350 200 414 q 228 283 200 307 q 299 258 256 258 q 392 297 356 258 q 440 401 429 335 l 457 493 z "},"य":{"ha":1040,"x_min":35,"x_max":1160,"o":"m 1133 878 l 979 878 l 825 0 l 646 0 l 689 246 q 565 160 638 192 q 403 129 492 129 q 164 212 251 129 q 76 436 76 294 q 85 521 76 478 q 104 597 90 557 l 121 597 q 297 648 236 597 q 378 803 358 699 l 392 878 l 35 878 l 61 1028 l 1160 1028 l 1133 878 m 800 878 l 568 878 l 549 771 q 456 581 528 650 q 260 503 385 513 q 256 454 256 478 q 308 326 256 374 q 457 279 361 279 q 641 346 564 279 q 736 518 718 413 l 736 517 l 800 878 z "},"र":{"ha":740,"x_min":36,"x_max":860,"o":"m 833 878 l 697 878 l 681 782 q 293 438 619 438 l 263 438 l 235 279 q 231 240 231 258 q 256 167 231 194 q 326 140 281 140 q 413 176 378 140 q 458 271 447 213 l 463 304 l 635 304 l 632 276 q 526 65 608 142 q 314 -12 443 -12 q 122 52 190 -12 q 53 224 53 117 q 58 288 53 258 l 110 582 l 253 582 q 424 633 364 582 q 501 782 485 683 l 518 878 l 36 878 l 63 1028 l 860 1028 l 833 878 z "},"ल":{"ha":1258,"x_min":31,"x_max":1378,"o":"m 1054 878 l 1026 715 q 1127 625 1090 686 q 1164 476 1164 564 q 1157 399 1164 444 q 1023 152 1131 244 q 750 63 915 60 l 700 65 l 728 221 q 767 218 750 218 q 904 269 849 218 q 975 407 960 321 q 979 453 979 432 q 949 545 979 511 q 861 579 919 579 q 740 525 786 579 q 678 382 693 471 l 672 353 l 524 353 l 528 382 q 535 446 535 419 q 506 543 535 507 q 418 579 476 579 q 299 532 346 579 q 240 407 253 485 q 236 360 236 382 q 274 256 236 293 q 386 218 313 218 q 422 221 394 218 l 393 64 q 353 63 376 63 q 131 138 208 63 q 53 339 53 214 q 60 417 53 372 q 185 655 86 572 q 415 738 283 738 q 565 688 511 738 q 632 564 618 639 l 635 564 q 722 672 668 626 q 853 732 776 717 l 878 878 l 31 878 l 57 1028 l 1378 1028 l 1351 878 l 1054 878 z "},"व":{"ha":931,"x_min":35,"x_max":1049,"o":"m 1049 1028 l 1022 878 l 869 878 l 715 0 l 540 0 l 578 217 q 470 134 533 164 q 331 104 407 104 q 136 175 208 104 q 64 369 64 246 q 72 450 64 407 q 194 674 97 590 q 431 757 292 757 q 565 728 510 757 q 653 649 621 699 l 693 878 l 35 878 l 61 1028 l 1049 1028 m 397 247 q 542 301 485 247 q 615 428 600 354 l 617 438 q 618 467 618 447 q 578 572 618 529 q 461 614 539 614 q 352 586 403 614 q 272 508 301 558 q 242 394 242 458 q 284 287 242 326 q 397 247 326 247 z "},"श":{"ha":1167,"x_min":61,"x_max":1286,"o":"m 354 144 q 456 187 415 144 q 508 304 496 229 l 682 304 q 576 74 663 157 q 342 -10 489 -10 q 135 57 210 -10 q 61 239 61 124 q 68 308 61 267 l 114 567 l 311 567 q 498 610 419 567 q 593 747 576 654 q 596 778 596 769 q 567 856 596 826 q 492 885 539 885 q 378 830 421 885 q 336 694 336 775 l 157 694 q 209 878 163 800 q 333 999 256 957 q 511 1040 411 1040 q 704 976 629 1040 q 779 800 779 911 q 772 735 779 772 q 628 497 744 578 q 350 417 513 417 l 268 417 l 247 299 q 243 256 243 276 q 270 174 243 204 q 354 144 297 144 m 1286 1028 l 1258 878 l 1106 878 l 951 0 l 769 0 l 950 1028 l 1286 1028 z "},"ष":{"ha":944,"x_min":35,"x_max":1064,"o":"m 1036 878 l 883 878 l 729 0 l 553 0 l 610 325 q 376 228 521 228 q 178 303 249 228 q 108 506 108 378 q 117 594 108 549 l 167 878 l 35 878 l 61 1028 l 1064 1028 l 1036 878 m 707 878 l 343 878 l 660 613 l 707 878 m 435 379 q 549 410 499 379 q 626 493 599 440 l 318 750 l 289 590 q 283 536 283 551 q 323 422 283 464 q 435 379 363 379 z "},"स":{"ha":1146,"x_min":36,"x_max":1265,"o":"m 1239 878 l 1085 878 l 931 0 l 751 0 l 829 443 l 263 443 l 235 281 q 232 244 232 268 q 257 168 232 196 q 332 140 282 140 q 422 181 388 140 q 468 288 457 221 l 640 288 q 538 69 625 150 q 314 -12 451 -12 q 122 56 190 -12 q 54 235 54 124 q 60 300 54 271 l 108 572 l 221 572 q 469 772 432 572 l 488 878 l 36 878 l 63 1028 l 1265 1028 l 1239 878 m 906 878 l 667 878 l 649 772 q 567 590 629 665 l 856 590 l 906 878 z "},"ह":{"ha":826,"x_min":39,"x_max":946,"o":"m 946 1028 l 919 878 l 735 878 l 713 757 l 689 628 l 443 628 q 362 608 396 628 q 319 544 328 588 q 318 528 318 539 q 330 490 318 506 q 363 465 342 474 q 431 469 396 469 q 590 433 525 469 q 683 340 654 397 q 707 222 713 283 l 536 222 q 499 295 533 264 q 403 326 465 326 q 308 299 351 326 q 238 226 264 272 q 213 125 213 181 q 248 31 213 65 q 347 -3 283 -3 q 450 27 406 -3 q 514 99 494 57 l 686 99 q 617 -28 667 28 q 494 -118 568 -85 q 332 -151 421 -151 q 176 -118 242 -151 q 74 -25 110 -85 q 39 111 39 35 q 44 174 39 146 q 104 317 58 254 q 219 418 150 379 q 146 546 146 463 q 218 700 146 643 q 404 757 290 757 l 542 757 l 563 878 l 49 878 l 76 1028 l 946 1028 z "},"ळ":{"ha":1346,"x_min":28,"x_max":1465,"o":"m 1121 878 l 1092 718 q 1209 628 1167 690 q 1251 478 1251 565 q 1246 414 1251 443 q 1176 247 1229 319 q 1044 135 1122 175 q 878 96 967 96 q 715 143 782 96 q 629 269 649 190 l 622 269 q 497 142 576 189 q 319 96 417 96 q 126 165 201 96 q 51 349 51 233 q 57 414 51 385 q 128 583 74 510 q 260 697 182 657 q 425 736 338 736 q 583 692 519 736 q 675 564 647 649 l 681 564 q 786 676 725 633 q 921 731 847 718 l 947 878 l 28 878 l 54 1028 l 1465 1028 l 1439 878 l 1121 878 m 565 450 q 528 547 565 511 q 428 583 492 583 q 328 558 374 583 q 256 485 283 532 q 229 379 229 438 q 267 284 229 319 q 369 249 306 249 q 469 275 424 249 q 540 347 514 301 q 565 450 565 393 m 1071 414 q 1074 447 1074 436 q 1035 547 1074 510 q 933 583 997 583 q 806 536 860 583 q 739 414 753 489 q 736 381 736 392 q 774 285 736 321 q 875 249 811 249 q 1002 294 947 249 q 1071 414 1057 340 z "},"क़":{"ha":1356,"x_min":35,"x_max":1475,"o":"m 838 878 l 796 640 q 893 722 835 692 q 1024 751 951 751 q 1200 681 1135 751 q 1265 497 1265 610 q 1258 426 1265 468 q 1137 198 1231 279 q 915 117 1043 117 q 826 128 874 117 l 851 268 q 894 264 868 264 q 1013 309 961 264 q 1078 431 1065 354 q 1081 465 1081 456 q 1045 562 1081 525 q 949 599 1010 599 q 820 546 869 599 q 757 415 771 493 l 757 417 l 683 0 l 511 0 l 550 221 q 448 138 508 168 q 310 107 388 107 q 130 177 199 107 q 61 364 61 247 q 68 435 61 393 q 190 665 94 579 q 419 751 285 751 q 549 722 497 751 q 624 639 601 692 l 665 878 l 35 878 l 61 1028 l 1475 1028 l 1447 878 l 838 878 m 586 428 q 589 463 589 439 q 553 560 589 521 q 449 600 518 600 q 349 574 396 600 q 274 500 303 547 q 246 393 246 453 q 285 294 246 331 q 386 258 324 258 q 519 308 467 258 q 585 421 572 357 l 586 428 m 221 -201 q 155 -176 181 -201 q 129 -112 129 -151 q 168 -24 129 -61 q 258 14 207 14 q 323 -11 297 14 q 349 -75 349 -36 q 310 -164 349 -126 q 221 -201 272 -201 z "},"ख़":{"ha":1319,"x_min":36,"x_max":1439,"o":"m 1439 1028 l 1413 878 l 1258 878 l 1106 0 l 926 0 l 971 250 q 775 168 896 168 q 731 172 751 168 q 581 42 669 92 q 383 -7 492 -7 q 150 67 233 -7 q 67 279 67 142 q 75 367 67 321 l 108 557 l 149 557 q 299 601 242 557 q 374 749 357 646 l 396 878 l 36 878 l 63 1028 l 1439 1028 m 1081 878 l 576 878 l 550 725 q 449 513 526 586 q 264 431 372 439 l 250 346 q 246 301 246 324 q 290 189 246 231 q 415 147 333 147 q 528 174 479 147 q 610 243 576 201 q 557 407 557 310 q 563 472 557 443 q 667 665 583 593 q 863 738 750 738 q 1042 653 992 738 l 1081 878 m 838 304 q 928 331 889 304 q 988 399 967 358 q 1008 482 1008 440 q 978 567 1008 532 q 886 601 947 601 q 776 563 824 601 q 715 456 728 524 q 713 424 713 433 q 747 335 713 367 q 838 304 782 304 m 301 -311 q 235 -286 261 -311 q 210 -222 210 -261 q 249 -133 210 -171 q 339 -96 288 -96 q 403 -121 378 -96 q 429 -185 429 -146 q 391 -274 429 -236 q 301 -311 353 -311 z "},"ग़":{"ha":1096,"x_min":35,"x_max":1214,"o":"m 1214 1028 l 1188 878 l 1033 878 l 879 0 l 700 0 l 854 878 l 651 878 l 593 540 q 496 340 572 417 q 288 264 419 264 q 117 319 179 264 q 54 472 54 375 q 60 532 54 504 l 68 575 l 242 575 l 233 532 q 231 497 231 507 q 303 417 231 417 q 378 451 351 417 q 413 533 404 485 l 472 878 l 35 878 l 61 1028 l 1214 1028 m 231 -47 q 165 -22 190 -47 q 139 42 139 3 q 178 131 139 93 q 268 168 217 168 q 333 143 307 168 q 358 79 358 118 q 320 -10 358 28 q 231 -47 282 -47 z "},"ज़":{"ha":1183,"x_min":35,"x_max":1303,"o":"m 1276 878 l 1122 878 l 969 0 l 789 0 l 882 531 l 683 531 l 669 454 q 555 238 646 321 q 328 156 464 156 q 139 221 208 156 q 69 396 69 286 q 75 461 69 432 l 115 683 l 294 683 l 256 460 q 251 417 251 438 q 276 340 251 367 q 349 313 301 313 q 444 352 406 313 q 496 460 483 392 l 536 683 l 910 683 l 943 878 l 35 878 l 61 1028 l 1303 1028 l 1276 878 m 271 -151 q 205 -126 231 -151 q 179 -62 179 -101 q 218 26 179 -11 q 308 64 257 64 q 373 39 347 64 q 399 -25 399 14 q 360 -114 399 -76 q 271 -151 322 -151 z "},"ड़":{"ha":792,"x_min":32,"x_max":911,"o":"m 424 624 q 334 605 372 624 q 288 540 296 586 q 286 525 286 535 q 313 474 286 490 q 382 457 339 457 l 443 457 q 622 408 551 457 q 692 261 692 358 q 688 211 692 239 q 579 38 667 101 q 346 -25 492 -25 q 118 37 204 -25 q 32 206 32 99 q 35 243 32 218 l 214 243 q 213 221 213 235 q 251 140 213 169 q 357 111 289 111 q 475 148 431 111 q 519 242 519 185 q 484 308 519 288 q 389 329 449 329 l 336 329 q 176 371 247 329 q 106 504 106 413 q 110 546 106 524 q 208 699 128 649 q 397 750 288 750 l 519 750 l 543 878 l 38 878 l 64 1028 l 911 1028 l 885 878 l 717 878 l 671 624 l 424 624 m 281 -332 q 215 -307 240 -332 q 189 -243 189 -282 q 228 -154 189 -192 q 318 -117 267 -117 q 383 -142 357 -117 q 408 -206 408 -167 q 370 -294 408 -257 q 281 -332 332 -332 z "},"ढ़":{"ha":903,"x_min":36,"x_max":1022,"o":"m 565 636 q 347 569 440 636 q 232 378 254 501 q 228 326 228 351 q 286 181 228 236 q 454 126 344 126 q 604 167 542 126 q 679 275 667 207 q 681 294 681 282 q 658 355 681 332 q 597 378 635 378 q 528 355 558 378 q 492 292 499 332 q 489 265 489 283 l 361 265 q 365 314 361 293 q 452 455 381 404 q 628 506 524 506 q 779 453 722 506 q 836 314 836 400 q 832 269 836 293 q 703 71 808 144 q 436 -3 599 -3 q 238 38 325 -3 q 103 151 151 78 q 54 322 54 225 q 61 393 54 351 q 151 594 83 511 q 317 718 218 676 q 532 760 415 760 l 569 760 l 590 878 l 36 878 l 63 1028 l 1022 1028 l 994 878 l 758 878 l 717 636 l 565 636 m 343 -308 q 277 -283 303 -308 q 251 -219 251 -258 q 290 -131 251 -168 q 381 -93 329 -93 q 445 -118 419 -93 q 471 -182 471 -143 q 433 -271 471 -233 q 343 -308 394 -308 z "},"फ़":{"ha":1368,"x_min":35,"x_max":1486,"o":"m 844 878 l 801 639 q 906 722 844 692 q 1046 751 968 751 q 1219 685 1157 751 q 1281 507 1281 618 q 1275 439 1281 471 q 1207 266 1257 339 q 1085 155 1157 193 q 929 117 1013 117 q 835 131 875 117 l 858 268 q 908 263 889 263 q 1026 308 976 263 q 1090 431 1076 354 q 1094 468 1094 450 q 1058 563 1094 526 q 963 599 1022 599 q 829 544 882 599 q 761 407 776 490 l 689 0 l 510 0 l 567 328 q 358 242 485 242 q 172 311 238 242 q 107 499 107 381 q 115 586 107 540 l 168 878 l 35 878 l 61 1028 l 1486 1028 l 1460 878 l 844 878 m 664 878 l 347 878 l 296 586 q 290 526 290 558 q 324 428 290 463 q 425 393 357 393 q 544 440 496 393 q 607 557 593 486 l 664 878 m 232 -60 q 166 -35 192 -60 q 140 29 140 -10 q 179 118 140 81 q 269 156 218 156 q 334 131 308 156 q 360 67 360 106 q 322 -22 360 15 q 232 -60 283 -60 z "},"ऱ":{"ha":740,"x_min":-68,"x_max":860,"o":"m 833 878 l 697 878 l 681 782 q 293 438 619 438 l 263 438 l 235 279 q 231 240 231 258 q 256 167 231 194 q 326 140 281 140 q 413 176 378 140 q 458 271 447 213 l 463 304 l 635 304 l 632 276 q 526 65 608 142 q 314 -12 443 -12 q 122 52 190 -12 q 53 224 53 117 q 58 288 53 258 l 110 582 l 253 582 q 424 633 364 582 q 501 782 485 683 l 518 878 l 36 878 l 63 1028 l 860 1028 l 833 878 m 24 -267 q -42 -242 -17 -267 q -68 -178 -68 -217 q -29 -89 -68 -126 q 61 -51 10 -51 q 126 -76 100 -51 q 151 -140 151 -101 q 113 -229 151 -192 q 24 -267 75 -267 z "},"ं":{"ha":0,"x_min":-199,"x_max":22,"o":"m -107 1140 q -173 1166 -147 1140 q -199 1231 -199 1192 q -160 1319 -199 1282 q -71 1357 -121 1357 q -3 1332 -29 1357 q 22 1267 22 1307 q -17 1178 22 1217 q -107 1140 -56 1140 z "},"ँ":{"ha":0,"x_min":-378,"x_max":254,"o":"m -67 1368 q -112 1385 -94 1368 q -129 1429 -129 1401 q -102 1490 -129 1464 q -40 1515 -75 1515 q 6 1499 -11 1515 q 24 1454 24 1482 q -3 1394 24 1419 q -67 1368 -31 1368 m -99 1131 q -302 1191 -226 1131 q -378 1354 -378 1251 q -372 1406 -378 1369 l -229 1406 q -232 1381 -232 1389 q -194 1293 -232 1328 q -85 1258 -157 1258 q 47 1301 -6 1258 q 110 1406 100 1344 l 254 1406 q 142 1205 232 1279 q -99 1131 53 1131 z "},"ः":{"ha":364,"x_min":35,"x_max":328,"o":"m 200 556 q 134 581 160 556 q 108 643 108 606 q 147 733 108 694 q 238 771 186 771 q 302 745 276 771 q 328 682 328 719 q 289 594 328 632 q 200 556 250 556 m 126 146 q 60 171 86 146 q 35 233 35 196 q 74 322 35 285 q 164 360 114 360 q 230 335 204 360 q 256 271 256 310 q 217 183 256 221 q 126 146 178 146 z "},"ऽ":{"ha":818,"x_min":13,"x_max":778,"o":"m 40 224 l 371 224 q 442 245 417 224 q 468 303 468 267 q 444 365 468 335 q 368 444 419 396 q 288 526 318 492 q 235 606 257 560 q 213 704 213 651 q 217 747 213 725 q 303 887 233 840 q 475 933 374 933 l 778 933 l 751 782 l 493 782 q 424 765 453 782 q 394 707 394 749 q 419 642 394 674 q 496 564 444 611 q 575 484 544 518 q 628 405 606 450 q 650 307 650 360 q 646 264 650 288 q 561 124 631 176 q 389 72 492 72 l 13 72 l 40 224 z "},"्":{"ha":0,"x_min":-403,"x_max":-97,"o":"m -403 -79 l -225 -79 l -97 -376 l -281 -376 l -403 -79 z "},"़":{"ha":0,"x_min":-543,"x_max":-324,"o":"m -451 -304 q -517 -279 -492 -304 q -543 -215 -543 -254 q -504 -126 -543 -164 q -414 -89 -465 -89 q -349 -114 -375 -89 q -324 -178 -324 -139 q -362 -267 -324 -229 q -451 -304 -400 -304 z "},"०":{"ha":861,"x_min":49,"x_max":831,"o":"m 65 499 q 49 328 49 407 q 353 0 49 0 q 663 133 551 0 q 814 499 774 267 q 831 667 831 589 q 528 996 831 996 q 65 499 153 996 m 621 499 q 544 266 594 347 q 385 185 493 185 q 276 228 308 185 q 243 351 243 272 q 258 499 243 415 q 335 731 285 650 q 494 811 386 811 q 603 767 571 811 q 636 644 636 724 q 621 499 636 582 z "},"१":{"ha":458,"x_min":71,"x_max":456,"o":"m 71 797 l 103 981 l 456 981 l 283 0 l 78 0 l 218 797 l 71 797 z "},"२":{"ha":781,"x_min":-28,"x_max":774,"o":"m -3 154 q 565 685 528 481 q 569 726 569 708 q 542 807 569 778 q 454 836 514 836 q 282 649 315 836 l 92 649 q 170 846 111 767 q 313 963 229 925 q 490 1001 396 1001 q 701 938 629 1001 q 774 764 774 874 q 767 694 774 733 q 594 410 742 550 q 261 168 446 269 l 690 168 l 663 8 l -28 8 l -3 154 z "},"३":{"ha":789,"x_min":24,"x_max":781,"o":"m 503 1018 q 708 954 636 1018 q 781 789 781 890 q 776 738 781 765 q 698 592 760 649 q 549 522 636 536 l 547 515 q 669 438 625 490 q 714 300 714 385 q 708 239 714 268 q 597 59 689 128 q 356 -10 506 -10 q 110 64 196 -10 q 24 279 24 138 q 25 317 24 304 l 217 317 q 215 292 215 308 q 253 190 215 226 q 367 154 290 154 q 470 186 429 154 q 519 268 511 218 q 522 304 522 281 q 474 400 522 367 q 333 433 426 433 l 293 433 l 322 593 l 361 593 q 581 722 557 590 q 583 751 583 742 q 553 828 583 800 q 471 856 524 856 q 360 815 408 856 q 299 706 313 775 l 107 706 q 242 936 138 854 q 503 1018 346 1018 z "},"४":{"ha":869,"x_min":1,"x_max":839,"o":"m 1 197 l 31 360 l 610 992 l 821 992 l 711 367 l 839 367 l 808 197 l 681 197 l 647 0 l 449 0 l 483 197 l 1 197 m 597 763 l 232 367 l 529 367 l 597 763 z "},"५":{"ha":829,"x_min":54,"x_max":829,"o":"m 800 828 l 335 828 l 290 581 q 390 642 329 619 q 519 664 451 664 q 708 594 646 664 q 769 410 769 524 q 763 331 769 376 q 633 88 736 179 q 371 -4 531 -4 q 137 66 219 -4 q 54 256 54 136 q 57 301 54 271 l 247 301 q 283 203 246 240 q 390 165 321 165 q 513 212 467 165 q 572 335 560 258 q 576 381 576 360 q 542 476 576 443 q 442 510 507 510 q 344 485 389 510 q 274 421 299 460 l 85 421 l 186 1000 l 829 1000 l 800 828 z "},"६":{"ha":839,"x_min":61,"x_max":806,"o":"m 621 714 q 589 821 618 783 q 493 858 560 858 q 341 773 399 858 q 257 506 283 688 q 362 612 290 572 q 518 651 433 651 q 706 587 639 651 q 774 403 774 522 q 765 315 774 361 q 640 81 740 171 q 382 -10 540 -10 q 136 79 211 -10 q 61 325 61 168 q 79 506 61 401 q 229 890 124 764 q 524 1015 335 1015 q 738 940 671 1015 q 806 743 806 864 l 804 714 l 621 714 m 243 340 q 239 297 239 319 q 276 197 239 235 q 389 158 314 158 q 516 200 464 158 q 582 318 568 242 q 586 364 586 343 q 549 464 586 429 q 446 499 513 499 q 315 458 374 499 q 243 340 256 417 z "},"७":{"ha":675,"x_min":15,"x_max":751,"o":"m 725 843 l 218 0 l 15 0 l 522 821 l 69 821 l 99 989 l 751 989 l 725 843 z "},"८":{"ha":860,"x_min":28,"x_max":838,"o":"m 139 771 q 201 897 151 839 q 337 990 251 954 q 533 1025 422 1025 q 701 993 633 1025 q 803 908 769 961 q 838 789 838 854 q 833 743 838 767 q 770 617 819 669 q 639 536 721 564 q 749 451 711 506 q 788 321 788 397 q 782 260 788 288 q 642 51 758 125 q 347 -24 525 -24 q 116 44 204 -24 q 28 236 28 113 q 33 300 28 271 q 105 444 47 385 q 256 536 163 504 q 165 606 196 558 q 135 717 135 653 q 139 771 133 733 m 324 697 q 359 615 324 643 q 456 586 394 586 q 586 629 535 586 q 638 751 638 672 q 602 835 638 806 q 506 865 567 865 q 375 821 426 865 q 324 697 324 776 m 221 268 q 262 172 221 207 q 376 138 303 138 q 530 189 471 138 q 589 325 589 240 q 546 419 589 388 q 432 451 503 451 q 282 403 343 451 q 221 268 221 356 z "},"९":{"ha":814,"x_min":46,"x_max":797,"o":"m 233 292 q 262 185 231 222 q 357 147 293 147 q 512 232 454 147 q 597 500 569 317 q 493 394 564 433 q 336 354 422 354 q 148 419 215 354 q 81 603 81 483 q 89 690 81 644 q 156 858 106 785 q 290 973 207 931 q 481 1015 374 1015 q 724 931 651 1015 q 797 696 797 847 q 776 500 797 615 q 697 221 747 332 q 560 50 647 110 q 339 -10 472 -10 q 169 32 235 -10 q 74 142 103 74 q 50 292 46 211 l 233 292 m 615 710 q 578 809 615 771 q 465 847 540 847 q 338 803 390 847 q 272 679 286 758 q 268 635 268 657 q 306 539 268 572 q 408 506 343 506 q 507 528 460 506 q 585 598 554 551 q 615 710 615 644 z "},"ॐ":{"ha":1481,"x_min":24,"x_max":1367,"o":"m 883 1256 q 838 1273 856 1256 q 821 1317 821 1290 q 848 1378 821 1351 q 910 1404 875 1404 q 955 1387 938 1404 q 972 1342 972 1369 q 946 1281 972 1307 q 883 1256 919 1256 m 856 1018 q 646 1080 719 1018 q 572 1242 572 1142 q 576 1293 572 1267 l 719 1293 q 718 1269 718 1285 q 756 1182 718 1217 q 868 1147 794 1147 q 999 1189 949 1147 q 1060 1293 1049 1231 l 1204 1293 q 1096 1092 1185 1165 q 856 1018 1007 1018 m 1125 950 q 1367 715 1367 950 q 1357 607 1367 661 l 1325 429 q 1180 128 1290 231 q 886 26 1069 26 q 749 40 832 26 l 775 189 q 882 179 846 179 q 1068 244 1007 179 q 1151 436 1129 310 l 1186 629 q 1192 693 1192 661 q 1099 797 1192 797 q 1003 759 1038 797 q 958 657 969 721 q 859 441 932 506 q 638 374 786 376 q 640 342 640 354 q 635 290 640 324 q 519 90 613 165 q 297 15 426 15 q 97 78 171 15 q 24 246 24 140 q 29 303 24 276 l 197 303 q 194 278 194 286 q 227 200 194 231 q 314 169 260 169 q 419 208 375 169 q 474 307 463 246 q 475 332 475 315 q 443 414 475 382 q 343 446 411 446 l 283 446 l 310 597 l 369 597 q 491 642 444 597 q 538 750 538 688 q 507 823 538 796 q 429 850 476 850 q 332 817 374 850 q 281 732 290 785 l 114 732 q 231 929 136 854 q 460 1004 326 1004 q 640 949 574 1004 q 706 799 706 893 q 701 747 706 775 q 636 609 686 667 q 508 529 586 551 l 507 526 q 543 514 526 522 l 622 514 q 737 545 697 514 q 792 660 776 576 q 896 876 817 801 q 1125 950 975 950 z "},"॰":{"ha":671,"x_min":96,"x_max":575,"o":"m 571 472 q 477 308 553 372 q 299 244 401 244 q 151 295 206 244 q 96 429 96 346 q 100 474 96 451 q 195 639 118 575 q 376 703 272 703 q 521 652 467 703 q 575 518 575 601 q 571 472 575 496 m 207 450 q 237 379 207 406 q 317 353 267 353 q 410 386 369 353 q 460 472 450 419 q 461 496 461 481 q 434 569 461 542 q 360 596 407 596 q 252 554 297 596 q 207 450 207 513 z "},"।":{"ha":446,"x_min":119,"x_max":478,"o":"m 297 0 l 119 0 l 300 1029 l 478 1029 l 297 0 z "},"॥":{"ha":792,"x_min":119,"x_max":824,"o":"m 297 0 l 119 0 l 300 1029 l 478 1029 l 297 0 m 643 0 l 464 0 l 644 1029 l 824 1029 l 643 0 z "},"₨":{"ha":1574,"x_min":3,"x_max":1522,"o":"m 846 678 q 751 492 826 567 q 556 392 676 417 l 731 0 l 514 0 l 351 382 l 267 382 l 200 0 l 3 0 l 176 981 l 550 981 q 776 915 700 981 q 851 740 851 850 q 846 678 851 707 m 646 665 q 649 700 649 678 q 613 785 649 756 q 504 815 578 815 l 343 815 l 290 517 l 451 517 q 585 555 538 517 q 646 665 632 593 m 1065 547 q 1064 535 1064 543 q 1103 481 1064 499 q 1226 444 1142 463 q 1357 410 1306 428 q 1444 355 1408 392 q 1481 257 1481 318 q 1440 122 1481 183 q 1324 26 1399 61 q 1151 -10 1249 -10 q 919 58 1001 -10 q 840 250 838 126 l 1032 250 q 1068 167 1029 197 q 1176 136 1107 136 q 1260 160 1229 136 q 1300 222 1292 183 q 1301 235 1301 226 q 1262 292 1301 274 q 1136 329 1222 310 q 1008 363 1057 346 q 923 417 958 381 q 888 515 888 454 q 929 649 888 589 q 1047 744 971 708 q 1225 779 1124 779 q 1447 708 1372 779 q 1522 519 1522 638 l 1331 519 q 1295 602 1331 571 q 1197 633 1260 633 q 1108 610 1143 633 q 1065 547 1072 588 z "},"₹":{"ha":856,"x_min":68,"x_max":899,"o":"m 735 850 l 713 731 l 854 731 l 835 618 l 689 618 q 551 428 650 492 q 271 365 453 365 l 254 278 q 250 233 250 253 q 350 133 250 133 q 443 169 408 133 q 490 278 478 206 l 672 278 q 556 63 643 140 q 332 -14 468 -14 q 135 44 203 -14 q 68 218 68 103 q 76 306 68 258 l 110 493 q 338 502 261 493 q 451 538 414 511 q 506 618 489 564 l 101 618 l 122 731 l 529 731 l 551 850 l 143 850 l 165 981 l 899 981 l 876 850 l 735 850 z "},"‌":{"ha":0,"x_min":-32,"x_max":33,"o":"m -32 1126 l 33 1126 l 33 -319 l -32 -319 l -32 1126 z "},"‍":{"ha":0,"x_min":-178,"x_max":178,"o":"m 32 882 l 32 -319 l -33 -319 l -33 882 l -129 781 l -175 826 l -46 956 l -178 1088 l -132 1133 l 0 1001 l 133 1133 l 178 1089 l 44 956 l 178 824 l 132 778 l 32 882 z "},"◌":{"ha":904,"x_min":69,"x_max":835,"o":"m 418 633 q 375 649 392 633 q 358 692 358 665 q 375 734 358 718 q 418 750 392 750 q 461 734 444 750 q 478 692 478 718 q 461 649 478 665 q 418 633 444 633 m 586 613 q 543 628 560 613 q 526 671 526 644 q 543 713 526 697 q 586 729 560 729 q 629 713 613 729 q 646 671 646 697 q 629 628 646 644 q 586 613 613 613 m 256 575 q 213 591 229 575 q 196 633 196 607 q 213 676 196 660 q 256 692 229 692 q 299 676 282 692 q 315 633 315 660 q 299 591 315 607 q 256 575 282 575 m 714 510 q 671 526 688 510 q 654 568 654 542 q 671 610 654 594 q 714 626 688 626 q 757 610 740 626 q 774 568 774 594 q 757 526 774 542 q 714 510 740 510 m 150 438 q 107 453 124 438 q 90 496 90 469 q 107 538 90 522 q 150 554 124 554 q 193 538 176 554 q 210 496 210 522 q 193 453 210 469 q 150 438 176 438 m 775 351 q 732 367 749 351 q 715 410 715 383 q 732 452 715 436 q 775 468 749 468 q 818 452 801 468 q 835 410 835 436 q 818 367 835 383 q 775 351 801 351 m 129 269 q 86 285 103 269 q 69 328 69 301 q 86 370 69 354 q 129 386 103 386 q 172 370 156 386 q 189 328 189 354 q 172 285 189 301 q 129 269 156 269 m 761 185 q 718 201 735 185 q 701 243 701 217 q 718 285 701 269 q 761 301 735 301 q 804 285 788 301 q 821 243 821 269 q 804 201 821 217 q 761 185 788 185 m 192 113 q 149 128 165 113 q 132 171 132 144 q 149 213 132 197 q 192 229 165 229 q 235 213 218 229 q 251 171 251 197 q 235 128 251 144 q 192 113 218 113 m 660 51 q 617 67 633 51 q 600 110 600 83 q 617 152 600 136 q 660 168 633 168 q 703 152 686 168 q 719 110 719 136 q 703 67 719 83 q 660 51 686 51 m 328 7 q 285 23 301 7 q 268 65 268 39 q 285 108 268 92 q 328 124 301 124 q 371 108 354 124 q 388 65 388 92 q 371 23 388 39 q 328 7 354 7 m 500 -12 q 457 3 474 -12 q 440 46 440 19 q 457 88 440 72 q 500 104 474 104 q 543 88 526 104 q 560 46 560 72 q 543 3 560 19 q 500 -12 526 -12 z "},"!":{"ha":488,"x_min":57,"x_max":450,"o":"m 450 1021 l 301 326 l 138 326 l 235 1021 l 450 1021 m 306 204 l 268 0 l 57 0 l 94 204 l 306 204 z "},"\"":{"ha":517,"x_min":50,"x_max":483,"o":"m 249 1110 l 182 814 l 50 814 l 86 1110 l 249 1110 m 483 1110 l 417 814 l 285 814 l 321 1110 l 483 1110 z "},"#":{"ha":1190,"x_min":-18,"x_max":1208,"o":"m 954 610 l 881 419 l 1058 419 l 1028 242 l 811 242 l 717 0 l 535 0 l 629 242 l 374 242 l 279 0 l 97 0 l 192 242 l -18 242 l 14 419 l 261 419 l 335 610 l 132 610 l 164 788 l 404 788 l 497 1028 l 679 1028 l 586 788 l 842 788 l 935 1028 l 1117 1028 l 1024 788 l 1208 788 l 1176 610 l 954 610 m 772 610 l 517 610 l 443 419 l 699 419 l 772 610 z "},"$":{"ha":851,"x_min":22,"x_max":817,"o":"m 606 719 q 583 798 607 765 q 511 840 558 831 l 464 576 l 497 565 q 635 513 582 538 q 724 442 688 488 q 761 322 761 396 q 756 268 761 307 q 692 130 743 193 q 558 28 642 67 q 363 -10 474 -10 l 361 -10 l 342 -121 l 289 -121 l 308 -7 q 99 73 176 4 q 22 251 22 142 q 24 283 22 272 l 232 283 q 256 195 229 233 q 336 144 282 157 l 383 418 q 228 473 281 451 q 135 542 176 494 q 93 668 93 590 q 99 722 93 683 q 167 865 113 804 q 303 960 221 926 q 485 994 386 993 l 506 1111 l 558 1111 l 538 993 q 745 917 674 983 q 817 743 817 850 l 815 719 l 606 719 m 310 731 q 308 708 308 722 q 336 642 308 668 q 415 594 364 615 l 458 844 q 358 813 397 842 q 310 731 319 783 m 546 264 q 547 285 547 271 q 518 353 547 326 q 433 401 489 381 l 388 140 q 494 176 451 142 q 546 264 536 210 z "},"%":{"ha":1040,"x_min":65,"x_max":975,"o":"m 349 996 q 484 950 433 996 q 535 822 535 904 q 531 774 535 799 q 440 610 511 669 q 271 551 368 551 q 135 597 186 551 q 85 724 85 643 q 89 774 85 747 q 179 937 107 878 q 349 996 251 996 m 975 983 l 256 0 l 65 0 l 786 983 l 975 983 m 221 774 q 218 747 218 754 q 238 690 218 711 q 290 669 257 669 q 360 698 331 669 q 399 774 390 726 q 401 800 401 793 q 381 857 401 836 q 326 878 361 878 q 258 849 286 878 q 221 774 229 821 m 771 432 q 906 387 856 432 q 956 260 956 342 q 951 210 956 238 q 862 47 933 106 q 693 -12 790 -12 q 558 33 608 -12 q 507 161 507 79 q 511 210 507 185 q 601 373 529 314 q 771 432 674 432 m 642 210 q 639 183 639 190 q 658 125 639 146 q 713 104 678 104 q 783 133 753 104 q 821 210 813 161 q 824 236 824 229 q 804 294 824 272 q 750 315 785 315 q 681 287 710 315 q 642 210 651 258 z "},"&":{"ha":957,"x_min":1,"x_max":865,"o":"m 668 0 l 546 178 q 510 126 529 150 q 409 28 475 65 q 264 -10 343 -10 q 70 56 139 -10 q 1 229 1 121 q 7 289 1 261 q 66 438 22 374 q 173 537 110 501 q 306 575 236 572 l 292 603 q 268 660 276 633 q 260 718 260 686 q 264 763 260 738 q 315 874 274 822 q 423 958 356 926 q 576 990 490 990 q 758 935 700 990 q 819 792 815 879 q 821 761 821 782 q 811 676 821 725 l 628 676 q 635 724 635 707 q 636 747 636 732 q 614 807 636 786 q 550 828 592 828 q 470 795 500 828 q 440 718 440 763 q 449 676 440 696 q 476 628 457 657 l 865 0 l 668 0 m 453 286 q 456 311 456 303 q 419 395 456 363 q 331 428 382 428 q 231 393 274 428 q 176 294 189 358 q 174 265 174 275 q 207 184 174 214 q 294 154 240 154 q 399 191 354 154 q 453 286 443 228 z "},"'":{"ha":288,"x_min":51,"x_max":254,"o":"m 254 1110 l 183 814 l 51 814 l 86 1110 l 254 1110 z "},"(":{"ha":556,"x_min":26,"x_max":751,"o":"m 44 558 q 232 1035 92 824 q 563 1376 372 1246 l 751 1376 l 749 1357 q 233 558 319 1047 q 215 358 215 458 q 467 -240 215 3 l 464 -258 l 275 -258 q 93 1 160 -156 q 26 353 26 157 q 44 558 26 454 z "},")":{"ha":558,"x_min":-194,"x_max":532,"o":"m 514 560 q 326 82 467 293 q -4 -258 186 -129 l -194 -258 l -192 -240 q 325 558 238 68 q 343 758 343 658 q 90 1357 343 1114 l 93 1376 l 283 1376 q 465 1117 399 1274 q 532 765 532 960 q 514 560 532 664 z "},"*":{"ha":706,"x_min":81,"x_max":633,"o":"m 586 954 l 633 828 l 440 763 l 611 699 l 514 568 l 388 693 l 386 500 l 242 500 l 306 693 l 133 567 l 81 699 l 274 764 l 106 828 l 199 954 l 331 832 l 332 1025 l 478 1025 l 413 832 l 586 954 z "},"+":{"ha":786,"x_min":22,"x_max":764,"o":"m 732 404 l 472 404 l 425 140 l 236 140 l 283 404 l 22 404 l 56 583 l 314 583 l 361 849 l 550 849 l 503 583 l 764 583 l 732 404 z "},",":{"ha":297,"x_min":14,"x_max":238,"o":"m 226 126 q 238 36 238 82 q 214 -90 238 -31 q 140 -185 190 -149 q 14 -222 89 -222 l 28 -147 q 83 -130 64 -147 q 111 -68 103 -112 l 114 -54 l 24 -54 l 56 126 l 226 126 z "},"-":{"ha":726,"x_min":81,"x_max":700,"o":"m 700 576 l 671 414 l 81 414 l 108 576 l 700 576 z "},".":{"ha":293,"x_min":22,"x_max":269,"o":"m 269 204 l 233 0 l 22 0 l 58 204 l 269 204 z "},"/":{"ha":532,"x_min":-151,"x_max":689,"o":"m 689 1315 l 38 -251 l -151 -251 l 500 1315 l 689 1315 z "},":":{"ha":339,"x_min":0,"x_max":349,"o":"m 349 782 l 314 578 l 103 578 l 138 782 l 349 782 m 247 204 l 211 0 l 0 0 l 36 204 l 247 204 z "},";":{"ha":439,"x_min":57,"x_max":404,"o":"m 404 775 l 368 571 l 157 571 l 193 775 l 404 775 m 269 126 q 281 36 281 82 q 257 -90 281 -31 q 183 -185 233 -149 q 57 -222 132 -222 l 71 -147 q 126 -130 107 -147 q 154 -68 146 -112 l 157 -54 l 67 -54 l 99 126 l 269 126 z "},"<":{"ha":626,"x_min":39,"x_max":642,"o":"m 288 183 l 39 494 l 397 807 l 642 807 l 283 494 l 532 183 l 288 183 z "},"=":{"ha":835,"x_min":-6,"x_max":840,"o":"m 840 749 l 810 571 l 53 571 l 83 749 l 840 749 m 782 417 l 751 240 l -6 240 l 25 417 l 782 417 z "},">":{"ha":626,"x_min":-17,"x_max":588,"o":"m 94 807 l 339 807 l 588 494 l 229 183 l -17 183 l 342 494 l 94 807 z "},"?":{"ha":717,"x_min":65,"x_max":724,"o":"m 451 1039 q 651 979 578 1039 q 724 807 724 919 q 718 742 724 771 q 592 536 694 607 q 343 463 489 465 l 318 322 l 133 322 l 182 590 l 260 590 q 440 623 369 590 q 526 740 511 656 q 529 772 529 763 q 499 851 529 824 q 415 879 468 879 q 313 844 351 879 q 258 747 274 808 l 72 747 q 194 958 96 876 q 451 1039 293 1039 m 313 204 l 276 0 l 65 0 l 101 204 l 313 204 z "},"@":{"ha":1696,"x_min":39,"x_max":1682,"o":"m 1068 1124 q 1400 1065 1263 1124 q 1610 893 1538 1006 q 1682 622 1682 781 q 1669 485 1682 558 q 1570 233 1644 347 q 1392 54 1496 119 q 1183 -11 1289 -11 q 1047 25 1097 -11 q 997 140 997 61 q 999 168 997 158 q 679 -11 869 -11 q 502 57 567 -11 q 438 240 438 125 q 454 363 438 296 q 559 577 483 482 q 741 726 635 672 q 964 779 847 779 q 1172 715 1097 779 q 1247 540 1247 651 q 1226 417 1247 483 l 1178 267 q 1167 210 1167 235 q 1182 172 1167 183 q 1226 160 1197 160 q 1324 197 1275 160 q 1413 305 1374 233 q 1469 478 1451 376 q 1479 583 1479 528 q 1360 863 1479 761 q 1013 964 1242 964 q 643 879 806 964 q 378 647 481 794 q 244 318 276 500 q 232 192 232 251 q 359 -107 232 -3 q 735 -211 486 -211 l 671 -371 q 201 -229 363 -367 q 39 161 39 -92 q 53 318 39 239 q 243 740 96 557 q 607 1024 390 924 q 1068 1124 824 1124 m 1039 410 q 1047 476 1047 447 q 1009 576 1047 542 q 900 610 971 610 q 741 544 814 610 q 642 365 668 479 q 633 301 633 331 q 673 197 633 233 q 776 160 713 160 q 884 188 831 160 q 979 274 938 217 q 1039 410 1021 331 z "},"A":{"ha":978,"x_min":-68,"x_max":876,"o":"m 635 197 l 243 197 l 139 0 l -68 0 l 463 969 l 688 969 l 876 0 l 668 0 l 635 197 m 610 346 l 539 761 l 321 346 l 610 346 z "},"B":{"ha":881,"x_min":3,"x_max":857,"o":"m 853 732 q 778 583 838 642 q 639 506 719 524 q 756 437 714 489 q 797 313 797 385 q 793 267 797 290 q 676 72 772 143 q 424 0 581 0 l 3 0 l 175 981 l 588 981 q 788 929 719 981 q 857 783 857 878 q 853 732 857 760 m 647 696 q 650 725 650 718 q 517 824 650 824 l 343 824 l 299 569 l 475 569 q 592 602 549 569 q 647 696 636 635 m 597 293 q 600 322 600 313 q 564 401 600 374 q 458 429 528 429 l 275 429 l 226 160 l 411 160 q 539 194 490 160 q 597 293 588 229 z "},"C":{"ha":1054,"x_min":49,"x_max":1022,"o":"m 619 990 q 907 896 803 990 q 1022 639 1011 801 l 815 639 q 740 763 799 717 q 585 810 681 810 q 438 771 507 810 q 322 660 369 732 q 257 490 274 588 q 250 414 250 444 q 311 238 250 303 q 474 172 372 172 q 643 218 568 172 q 764 343 718 264 l 971 343 q 765 86 903 181 q 444 -8 628 -8 q 233 40 322 -8 q 96 177 143 89 q 49 382 49 265 q 58 490 49 438 q 163 750 83 636 q 360 927 242 864 q 619 990 478 990 z "},"D":{"ha":1010,"x_min":3,"x_max":961,"o":"m 951 492 q 844 235 925 346 q 638 62 764 124 q 351 0 511 0 l 3 0 l 175 981 l 524 981 q 847 878 733 981 q 961 599 961 776 q 951 492 961 544 m 365 175 q 624 258 524 175 q 753 492 725 342 q 760 567 760 536 q 688 747 760 685 q 476 810 615 810 l 342 810 l 229 175 l 365 175 z "},"E":{"ha":729,"x_min":3,"x_max":760,"o":"m 343 825 l 300 571 l 646 571 l 619 421 l 272 421 l 226 157 l 615 157 l 588 0 l 3 0 l 175 981 l 760 981 l 732 825 l 343 825 z "},"F":{"ha":740,"x_min":3,"x_max":783,"o":"m 783 981 l 756 825 l 343 825 l 297 563 l 628 563 l 601 413 l 271 413 l 199 0 l 3 0 l 175 981 l 783 981 z "},"G":{"ha":1067,"x_min":49,"x_max":1022,"o":"m 631 990 q 908 901 807 990 q 1022 664 1008 811 l 817 664 q 744 770 800 731 q 601 810 688 810 q 444 771 517 810 q 323 660 372 732 q 257 490 274 588 q 250 410 250 454 q 317 228 250 292 q 507 164 385 164 q 699 226 613 164 q 828 400 786 289 l 496 400 l 521 540 l 1017 540 l 985 351 q 789 91 925 190 q 457 -8 653 -8 q 238 41 331 -8 q 97 181 146 90 q 49 389 49 271 q 58 499 49 444 q 163 753 83 642 q 365 928 243 865 q 631 990 486 990 z "},"H":{"ha":990,"x_min":3,"x_max":988,"o":"m 988 981 l 815 0 l 618 0 l 693 426 l 274 426 l 199 0 l 3 0 l 175 981 l 371 981 l 301 583 l 721 583 l 790 981 l 988 981 z "},"I":{"ha":374,"x_min":3,"x_max":371,"o":"m 371 981 l 199 0 l 3 0 l 175 981 l 371 981 z "},"J":{"ha":728,"x_min":-11,"x_max":733,"o":"m 733 981 l 611 289 q 494 69 586 147 q 263 -10 401 -10 q 61 55 133 -10 q -11 242 -11 119 q -4 322 -11 286 l 190 322 q 185 271 185 286 q 285 167 185 167 q 373 199 340 167 q 415 289 406 232 l 538 981 l 733 981 z "},"K":{"ha":904,"x_min":3,"x_max":971,"o":"m 471 499 l 799 0 l 561 0 l 278 449 l 199 0 l 3 0 l 175 981 l 371 981 l 293 539 l 735 981 l 971 981 l 471 499 z "},"L":{"ha":642,"x_min":3,"x_max":553,"o":"m 225 150 l 553 150 l 528 0 l 3 0 l 175 981 l 371 981 l 225 150 z "},"M":{"ha":1235,"x_min":4,"x_max":1232,"o":"m 1232 969 l 1061 0 l 867 0 l 986 676 l 618 0 l 449 0 l 318 674 l 200 0 l 4 0 l 174 969 l 411 969 l 578 242 l 994 969 l 1232 969 z "},"N":{"ha":1008,"x_min":3,"x_max":1006,"o":"m 833 0 l 638 0 l 317 667 l 199 0 l 3 0 l 175 981 l 371 981 l 692 308 l 810 981 l 1006 981 l 833 0 z "},"O":{"ha":1083,"x_min":49,"x_max":1035,"o":"m 606 994 q 834 942 738 994 q 983 795 931 890 q 1035 575 1035 700 q 1024 460 1035 524 q 924 216 1000 322 q 733 50 849 110 q 479 -10 618 -10 q 249 42 346 -10 q 100 189 151 94 q 49 408 49 283 q 60 526 49 463 q 159 770 83 664 q 351 935 235 876 q 606 994 467 994 m 590 814 q 371 729 464 814 q 251 501 278 644 q 244 424 244 456 q 311 240 244 307 q 494 172 378 172 q 649 210 578 172 q 768 319 719 249 q 832 485 817 390 q 839 564 839 519 q 772 747 839 681 q 590 814 706 814 z "},"P":{"ha":835,"x_min":3,"x_max":833,"o":"m 263 364 l 199 0 l 3 0 l 175 981 l 532 981 q 758 917 683 981 q 833 739 833 853 q 828 671 833 703 q 697 447 803 531 q 424 364 592 364 l 263 364 m 431 521 q 629 671 601 521 q 632 708 632 685 q 597 793 632 764 q 483 822 561 822 l 343 822 l 290 521 l 431 521 z "},"Q":{"ha":1083,"x_min":49,"x_max":1035,"o":"m 1024 460 q 928 222 1000 326 q 750 58 857 118 l 926 -179 l 689 -179 l 574 -3 q 479 -10 522 -10 q 249 42 346 -10 q 100 189 151 94 q 49 408 49 283 q 60 526 49 463 q 159 770 83 664 q 351 935 235 876 q 606 994 467 994 q 834 942 738 994 q 983 795 931 890 q 1035 575 1035 700 q 1024 460 1035 524 m 832 485 q 839 564 839 519 q 772 747 839 681 q 590 814 706 814 q 371 729 464 814 q 251 501 278 644 q 244 424 244 456 q 311 240 244 307 q 494 172 378 172 q 649 210 578 172 q 768 319 719 249 q 832 485 817 390 z "},"R":{"ha":856,"x_min":3,"x_max":851,"o":"m 549 981 q 775 915 699 981 q 851 739 851 849 q 846 678 851 706 q 751 492 826 567 q 554 392 675 417 l 731 0 l 514 0 l 351 382 l 265 382 l 199 0 l 3 0 l 175 981 l 549 981 m 644 665 q 647 701 647 678 q 504 815 647 815 l 343 815 l 289 517 l 450 517 q 644 665 618 517 z "},"S":{"ha":815,"x_min":22,"x_max":782,"o":"m 721 238 q 664 115 710 171 q 542 24 618 58 q 367 -10 467 -10 q 181 28 258 -10 q 63 131 103 65 q 24 283 22 197 l 231 283 q 263 184 226 224 q 369 144 299 144 q 475 184 436 144 q 514 282 514 224 q 490 351 514 322 q 431 399 467 381 q 335 442 396 417 q 208 501 256 474 q 126 578 160 529 q 92 701 92 626 q 97 767 92 735 q 212 933 115 871 q 446 994 308 994 q 694 919 611 994 q 782 719 778 843 l 571 719 q 540 806 572 772 q 443 840 508 840 q 344 808 383 840 q 306 715 306 775 q 328 651 306 676 q 385 608 351 625 q 479 567 418 592 q 608 509 558 536 q 692 432 657 482 q 728 304 728 382 q 721 238 728 279 z "},"T":{"ha":775,"x_min":78,"x_max":842,"o":"m 842 981 l 814 825 l 543 825 l 399 0 l 203 0 l 347 825 l 78 825 l 106 981 l 842 981 z "},"U":{"ha":949,"x_min":60,"x_max":953,"o":"m 365 981 l 264 406 q 257 335 257 364 q 299 215 257 256 q 419 175 340 175 q 575 233 514 175 q 657 406 636 290 l 758 981 l 953 981 l 853 406 q 760 176 828 269 q 594 36 692 82 q 383 -10 497 -10 q 147 68 233 -10 q 60 297 60 146 q 69 406 60 351 l 171 981 l 365 981 z "},"V":{"ha":979,"x_min":103,"x_max":1049,"o":"m 313 981 l 439 204 l 839 981 l 1049 981 l 529 0 l 278 0 l 103 981 l 313 981 z "},"W":{"ha":1419,"x_min":131,"x_max":1461,"o":"m 1461 981 l 1049 0 l 807 0 l 749 711 l 439 0 l 199 0 l 131 981 l 343 981 l 358 218 l 688 981 l 903 981 l 964 221 l 1249 981 l 1461 981 z "},"X":{"ha":914,"x_min":-61,"x_max":968,"o":"m 574 489 l 811 0 l 579 0 l 417 336 l 163 0 l -61 0 l 335 503 l 103 981 l 335 981 l 494 653 l 744 981 l 968 981 l 574 489 z "},"Y":{"ha":896,"x_min":103,"x_max":965,"o":"m 965 981 l 521 343 l 461 0 l 264 0 l 324 343 l 103 981 l 328 981 l 460 551 l 744 981 l 965 981 z "},"Z":{"ha":796,"x_min":-25,"x_max":815,"o":"m 219 158 l 676 158 l 649 0 l -25 0 l 1 150 l 568 824 l 126 824 l 154 981 l 815 981 l 789 831 l 219 158 z "},"[":{"ha":565,"x_min":-12,"x_max":635,"o":"m 635 1315 l 607 1157 l 421 1157 l 201 -93 l 388 -93 l 358 -251 l -12 -251 l 265 1315 l 635 1315 z "},"\\":{"ha":994,"x_min":322,"x_max":631,"o":"m 442 -251 l 322 1315 l 511 1315 l 631 -251 l 442 -251 z "},"]":{"ha":564,"x_min":-71,"x_max":576,"o":"m -71 -251 l -43 -93 l 144 -93 l 364 1157 l 178 1157 l 206 1315 l 576 1315 l 300 -251 l -71 -251 z "},"^":{"ha":939,"x_min":-22,"x_max":831,"o":"m 172 232 l -22 232 l 440 972 l 629 972 l 831 232 l 636 232 l 496 746 l 172 232 z "},"_":{"ha":908,"x_min":-4,"x_max":844,"o":"m 844 -51 l 810 -242 l -4 -242 l 31 -51 l 844 -51 z "},"`":{"ha":418,"x_min":114,"x_max":431,"o":"m 431 961 l 407 828 l 114 978 l 140 1128 l 431 961 z "},"a":{"ha":942,"x_min":43,"x_max":921,"o":"m 454 779 q 619 733 556 779 q 697 610 682 686 l 726 769 l 921 769 l 785 0 l 590 0 l 619 161 q 499 37 576 83 q 324 -10 421 -10 q 118 71 193 -10 q 43 294 43 151 q 53 401 43 349 q 132 603 74 517 q 274 734 190 689 q 454 779 358 779 m 494 608 q 336 549 403 608 q 251 385 269 489 q 246 331 246 346 q 291 207 246 251 q 415 163 336 163 q 572 223 504 163 q 658 385 640 283 q 664 438 664 421 q 617 563 664 517 q 494 608 571 608 z "},"b":{"ha":942,"x_min":11,"x_max":889,"o":"m 11 0 l 193 1028 l 389 1028 l 314 610 q 435 733 357 688 q 610 779 513 779 q 813 700 738 779 q 889 481 889 621 q 881 385 889 435 q 799 174 858 264 q 653 38 739 85 q 469 -10 567 -10 q 312 37 372 -10 q 236 161 251 83 l 207 0 l 11 0 m 439 163 q 597 222 531 163 q 682 385 664 282 q 686 439 686 414 q 642 564 686 519 q 518 608 597 608 q 360 548 429 608 q 274 385 292 488 q 269 335 269 358 q 316 208 269 254 q 439 163 363 163 z "},"c":{"ha":863,"x_min":43,"x_max":825,"o":"m 497 779 q 738 699 650 779 q 825 479 825 618 l 618 479 q 577 576 615 540 q 472 611 539 611 q 331 553 393 611 q 250 385 269 496 q 244 322 244 356 q 285 200 244 242 q 392 158 326 158 q 510 194 460 158 q 585 290 561 229 l 792 290 q 629 71 743 151 q 367 -10 515 -10 q 131 74 218 -10 q 43 307 43 158 q 51 401 43 351 q 136 603 72 518 q 294 734 200 689 q 497 779 388 779 z "},"d":{"ha":936,"x_min":32,"x_max":957,"o":"m 957 1028 l 775 0 l 579 0 l 608 161 q 488 37 565 83 q 313 -10 410 -10 q 109 73 186 -10 q 32 300 32 156 q 42 401 32 339 q 121 603 63 517 q 264 734 179 689 q 444 779 349 779 q 608 733 544 779 q 686 610 671 688 l 761 1028 l 957 1028 m 483 608 q 325 549 392 608 q 240 385 258 489 q 236 332 236 356 q 281 207 236 251 q 404 163 325 163 q 562 223 493 163 q 649 385 631 283 q 653 435 653 413 q 607 563 653 517 q 483 608 561 608 z "},"e":{"ha":863,"x_min":43,"x_max":824,"o":"m 503 779 q 738 700 653 779 q 824 489 824 621 q 817 414 824 458 q 799 347 808 372 l 233 347 q 231 303 231 332 q 272 185 231 222 q 382 147 314 147 q 501 181 450 147 q 575 271 553 215 l 782 271 q 624 68 736 146 q 364 -10 513 -10 q 130 72 217 -10 q 43 300 43 154 q 51 394 43 344 q 137 599 72 513 q 297 733 201 686 q 503 779 392 779 m 622 433 q 628 486 628 460 q 585 590 628 556 q 476 625 542 625 q 333 576 396 625 q 249 433 271 528 l 622 433 z "},"f":{"ha":497,"x_min":24,"x_max":564,"o":"m 535 903 q 410 878 450 908 q 356 771 369 847 l 356 769 l 511 769 l 482 604 l 326 604 l 219 0 l 24 0 l 131 604 l 32 604 l 60 769 l 160 769 l 163 788 q 278 999 186 925 q 525 1074 371 1074 q 564 1072 550 1074 l 535 903 z "},"g":{"ha":939,"x_min":4,"x_max":922,"o":"m 325 -10 q 122 72 199 -10 q 44 299 44 154 q 54 401 44 351 q 133 603 75 518 q 276 735 192 689 q 457 781 361 781 q 620 734 557 781 q 700 610 683 688 l 728 769 l 922 769 l 786 -3 q 710 -195 767 -110 q 563 -329 654 -281 q 356 -378 472 -378 q 101 -299 190 -378 q 4 -83 11 -219 l 197 -83 q 246 -174 204 -142 q 364 -207 288 -207 q 511 -156 449 -207 q 592 -3 574 -104 l 621 161 q 500 37 578 83 q 325 -10 422 -10 m 496 608 q 338 549 404 608 q 253 385 271 489 q 247 331 247 346 q 292 207 247 251 q 417 163 338 163 q 574 223 506 163 q 661 385 643 283 q 665 435 665 413 q 619 563 665 517 q 496 608 574 608 z "},"h":{"ha":921,"x_min":22,"x_max":858,"o":"m 618 781 q 794 717 731 781 q 858 536 858 654 q 850 447 858 496 l 772 0 l 578 0 l 653 425 q 657 475 657 453 q 618 581 657 544 q 511 618 579 618 q 374 570 432 618 q 294 432 317 522 l 218 0 l 22 0 l 203 1028 l 399 1028 l 326 617 q 449 738 372 694 q 618 781 526 781 z "},"i":{"ha":372,"x_min":19,"x_max":414,"o":"m 171 971 q 211 1061 171 1025 q 313 1097 251 1097 q 387 1073 360 1097 q 414 1010 414 1049 q 374 920 414 956 q 274 885 335 885 q 198 908 225 885 q 171 971 171 932 m 351 769 l 215 0 l 19 0 l 156 769 l 351 769 z "},"j":{"ha":378,"x_min":-174,"x_max":424,"o":"m 283 885 q 207 909 235 885 q 179 972 179 933 q 220 1061 179 1025 q 321 1097 261 1097 q 397 1073 369 1097 q 424 1010 424 1049 q 383 921 424 957 q 283 885 343 885 m -144 -197 l -87 -197 q -24 -179 -46 -197 q 7 -117 -1 -161 l 164 769 l 360 769 l 203 -117 q -92 -367 158 -367 l -174 -367 l -144 -197 z "},"k":{"ha":783,"x_min":11,"x_max":826,"o":"m 436 392 l 690 0 l 461 0 l 267 343 l 207 0 l 11 0 l 192 1028 l 388 1028 l 288 457 l 594 769 l 826 769 l 436 392 z "},"l":{"ha":369,"x_min":22,"x_max":399,"o":"m 399 1028 l 218 0 l 22 0 l 203 1028 l 399 1028 z "},"m":{"ha":1454,"x_min":19,"x_max":1389,"o":"m 1138 781 q 1323 716 1257 781 q 1389 531 1389 651 q 1382 447 1389 486 l 1303 0 l 1107 0 l 1183 425 q 1188 472 1188 450 q 1150 574 1188 539 q 1046 610 1113 610 q 908 560 964 610 q 833 415 851 511 l 760 0 l 564 0 l 640 425 q 644 472 644 450 q 607 574 644 539 q 503 610 569 610 q 363 558 421 610 q 289 408 306 507 l 289 415 l 217 0 l 19 0 l 156 769 l 351 769 l 326 625 q 442 740 369 699 q 603 781 515 781 q 757 736 696 781 q 838 608 818 692 q 968 734 888 688 q 1138 781 1049 781 z "},"n":{"ha":922,"x_min":19,"x_max":857,"o":"m 615 781 q 793 716 729 781 q 857 532 857 651 q 850 447 857 486 l 771 0 l 575 0 l 651 425 q 656 474 656 450 q 617 581 656 543 q 508 618 578 618 q 365 564 425 618 q 289 408 306 510 l 289 414 l 217 0 l 19 0 l 156 769 l 351 769 l 325 615 q 447 737 369 693 q 615 781 524 781 z "},"o":{"ha":892,"x_min":43,"x_max":849,"o":"m 511 779 q 688 741 611 779 q 806 631 764 703 q 849 458 849 558 q 840 368 849 417 q 754 167 819 253 q 592 36 689 82 q 385 -10 496 -10 q 206 28 283 -10 q 86 140 129 67 q 43 313 43 213 q 51 401 43 354 q 138 603 72 517 q 301 734 204 689 q 511 779 399 779 m 486 610 q 337 552 404 610 q 250 385 269 494 q 244 326 244 357 q 290 202 244 244 q 406 160 336 160 q 555 217 488 160 q 642 385 622 275 q 647 443 647 413 q 601 567 647 525 q 486 610 556 610 z "},"p":{"ha":940,"x_min":-43,"x_max":899,"o":"m 619 779 q 823 700 747 779 q 899 481 899 621 q 890 385 899 435 q 808 174 868 264 q 663 38 749 85 q 479 -10 576 -10 q 322 37 382 -10 q 246 161 261 83 l 153 -367 l -43 -367 l 157 769 l 353 769 l 324 610 q 444 733 367 688 q 619 779 522 779 m 449 163 q 606 222 539 163 q 692 385 672 281 q 696 438 696 414 q 651 564 696 519 q 526 608 606 608 q 369 548 438 608 q 283 385 301 488 q 279 335 279 358 q 326 208 279 254 q 449 163 372 163 z "},"q":{"ha":935,"x_min":39,"x_max":915,"o":"m 915 769 l 715 -367 l 521 -367 l 613 149 q 490 33 561 74 q 332 -8 419 -8 q 117 74 194 -8 q 39 300 39 157 q 47 399 39 347 q 128 603 68 517 q 276 733 189 689 q 463 778 364 778 q 613 740 553 778 q 697 632 674 701 l 721 769 l 915 769 m 489 607 q 333 548 401 607 q 246 382 264 489 q 240 328 240 343 q 288 205 240 247 q 410 163 335 163 q 565 222 494 163 q 653 385 635 281 q 658 436 658 421 q 610 563 658 518 q 489 607 561 607 z "},"r":{"ha":576,"x_min":19,"x_max":626,"o":"m 325 622 q 459 738 381 696 q 626 781 538 781 l 589 571 l 532 571 q 282 371 317 571 l 217 0 l 19 0 l 156 769 l 351 769 l 325 622 z "},"s":{"ha":740,"x_min":21,"x_max":711,"o":"m 386 779 q 623 709 542 779 q 711 519 704 639 l 519 519 q 479 609 518 576 q 369 642 440 642 q 284 618 317 642 q 251 554 251 594 q 291 493 251 514 q 414 450 331 472 q 545 405 494 426 q 633 342 596 383 q 669 232 669 300 q 664 179 669 206 q 568 42 647 94 q 357 -10 489 -10 q 115 59 206 -10 q 21 250 24 128 l 213 250 q 252 161 208 194 q 374 128 296 128 q 458 153 429 128 q 488 217 488 178 q 466 267 488 247 q 413 299 444 288 q 321 328 381 311 q 193 370 242 350 q 110 431 144 390 q 75 536 75 471 q 79 586 75 560 q 174 726 94 672 q 386 779 254 779 z "},"t":{"ha":551,"x_min":46,"x_max":549,"o":"m 289 268 q 286 235 286 256 q 306 183 286 197 q 369 168 325 168 l 446 168 l 415 0 l 313 0 q 144 44 203 0 q 86 190 86 89 q 94 271 86 228 l 153 604 l 46 604 l 75 769 l 182 769 l 215 960 l 413 960 l 379 769 l 549 769 l 519 604 l 349 604 l 289 268 z "},"u":{"ha":906,"x_min":47,"x_max":885,"o":"m 885 769 l 750 0 l 553 0 l 581 153 q 458 33 535 76 q 289 -10 381 -10 q 112 54 176 -10 q 47 236 47 118 q 56 322 47 276 l 135 769 l 329 769 l 254 344 q 250 294 250 318 q 289 188 250 225 q 397 151 328 151 q 538 203 479 151 q 615 354 597 256 l 689 769 l 885 769 z "},"v":{"ha":821,"x_min":63,"x_max":869,"o":"m 365 196 l 661 769 l 869 769 l 449 0 l 210 0 l 63 769 l 271 769 l 365 196 z "},"w":{"ha":1182,"x_min":63,"x_max":1242,"o":"m 1242 769 l 899 0 l 682 0 l 614 560 l 347 0 l 131 0 l 63 769 l 257 769 l 278 175 l 553 769 l 760 769 l 828 175 l 1058 769 l 1242 769 z "},"x":{"ha":771,"x_min":-65,"x_max":818,"o":"m 492 379 l 692 0 l 472 0 l 342 247 l 150 0 l -65 0 l 260 401 l 65 769 l 285 769 l 413 526 l 603 769 l 818 769 l 492 379 z "},"y":{"ha":835,"x_min":1,"x_max":892,"o":"m 271 769 l 389 247 l 675 769 l 892 769 l 218 -367 l 1 -367 l 244 22 l 53 769 l 271 769 z "},"z":{"ha":658,"x_min":-35,"x_max":679,"o":"m 208 164 l 586 164 l 556 0 l -35 0 l -7 156 l 426 607 l 81 607 l 110 769 l 679 769 l 651 615 l 208 164 z "},"{":{"ha":590,"x_min":47,"x_max":690,"o":"m 235 515 q 330 465 299 503 q 361 367 361 426 q 356 317 361 353 q 342 256 351 288 q 321 193 332 224 q 303 138 318 182 q 281 44 289 93 q 272 -42 272 -1 q 310 -195 272 -133 q 404 -286 347 -257 l 401 -301 l 200 -301 q 116 -214 157 -278 q 75 -43 75 -150 q 83 50 75 0 q 107 144 92 99 q 125 197 122 189 q 161 322 153 282 q 164 358 164 344 q 47 481 164 461 l 60 553 q 229 711 206 575 q 236 785 235 746 q 238 833 238 824 q 249 983 238 919 q 349 1218 275 1132 q 489 1335 424 1304 l 690 1335 l 686 1319 q 536 1200 604 1285 q 446 989 468 1115 q 435 838 435 922 q 433 790 435 828 q 426 717 432 753 q 235 518 396 550 l 235 515 z "},"|":{"ha":324,"x_min":-50,"x_max":374,"o":"m 146 -168 l -50 -168 l 178 1122 l 374 1122 l 146 -168 z "},"}":{"ha":576,"x_min":-92,"x_max":550,"o":"m 363 518 q 235 658 235 546 q 239 700 235 678 q 274 822 249 749 q 292 875 276 829 q 315 972 307 921 q 322 1056 322 1008 q 285 1222 322 1151 q 193 1319 249 1292 l 197 1335 l 396 1335 q 480 1247 439 1311 q 521 1078 521 1183 q 513 983 521 1025 q 472 836 503 926 q 436 711 443 758 q 433 675 433 689 q 460 594 433 628 q 550 553 486 561 l 538 481 q 417 426 457 472 q 367 322 376 381 q 360 247 361 286 q 358 197 358 207 q 349 50 358 106 q 248 -184 322 -99 q 107 -301 174 -269 l -92 -301 l -89 -286 q 12 -215 -39 -264 q 101 -94 63 -165 q 154 61 139 -22 q 165 210 165 128 q 167 257 165 218 q 175 333 168 296 q 233 453 186 407 q 363 515 281 500 l 363 518 z "},"~":{"ha":821,"x_min":15,"x_max":806,"o":"m 308 575 q 382 562 350 575 q 456 522 414 549 q 508 492 486 501 q 554 482 531 482 q 657 576 626 482 l 806 576 q 685 374 761 440 q 513 307 610 307 q 438 320 469 307 q 367 360 407 333 q 314 390 336 381 q 267 400 292 400 q 163 306 194 400 l 15 306 q 136 508 61 442 q 308 575 211 575 z "}," ":{"ha":303,"x_min":0,"x_max":0,"o":""},"¡":{"ha":510,"x_min":31,"x_max":447,"o":"m 30 -239 l 188 456 l 361 456 l 258 -239 l 30 -239 m 183 578 l 223 782 l 447 782 l 407 578 l 183 578 z "},"¢":{"ha":810,"x_min":43,"x_max":774,"o":"m 453 558 q 315 507 374 558 q 239 361 256 456 q 235 311 235 335 q 275 201 235 239 q 383 164 315 164 q 494 197 443 164 q 567 289 546 231 l 747 289 q 617 92 715 167 q 393 7 519 18 l 371 -121 l 283 -121 l 306 8 q 113 91 183 19 q 43 283 43 163 q 50 361 43 315 q 179 607 78 515 q 429 713 281 699 l 451 838 l 539 838 l 517 714 q 703 638 632 704 q 774 461 774 571 q 772 433 774 443 l 593 433 q 551 526 590 493 q 453 558 513 558 z "},"£":{"ha":849,"x_min":32,"x_max":850,"o":"m 668 732 q 640 838 672 797 q 544 878 608 878 q 439 838 483 878 q 382 726 394 799 q 378 674 378 701 q 392 543 378 632 l 639 543 l 615 411 l 401 411 q 397 371 401 392 q 351 256 386 315 q 257 149 317 197 l 744 149 l 717 -6 l 39 -6 l 32 92 q 153 216 110 153 q 211 369 196 279 q 214 411 214 383 l 51 411 l 75 543 l 199 543 q 190 656 190 613 q 197 747 190 707 q 322 959 221 881 q 567 1038 422 1038 q 778 965 706 1038 q 850 772 850 892 q 849 732 850 746 l 668 732 z "},"¤":{"ha":781,"x_min":50,"x_max":731,"o":"m 640 682 q 671 572 671 636 q 667 525 671 550 q 588 369 650 435 l 649 296 l 561 221 l 492 304 q 347 275 422 275 q 210 306 268 275 l 110 221 l 50 296 l 142 372 q 115 474 115 415 q 119 525 115 499 q 197 679 136 618 l 131 758 l 218 833 l 292 743 q 436 772 356 772 q 565 744 510 772 l 669 833 l 731 758 l 640 682 m 271 524 q 268 492 268 501 q 295 416 268 442 q 368 390 322 390 q 460 425 418 390 q 513 524 501 460 q 515 557 515 535 q 487 632 515 606 q 415 658 458 658 q 324 623 364 658 q 271 524 283 588 z "},"¥":{"ha":921,"x_min":39,"x_max":979,"o":"m 693 569 l 851 569 l 829 439 l 601 439 l 543 354 l 814 354 l 790 222 l 514 222 l 475 0 l 278 0 l 317 222 l 39 222 l 63 354 l 333 354 l 304 439 l 76 439 l 100 569 l 260 569 l 117 981 l 342 981 l 469 522 l 758 981 l 979 981 l 693 569 z "},"¦":{"ha":465,"x_min":21,"x_max":444,"o":"m 249 1122 l 444 1122 l 347 569 l 151 569 l 249 1122 m 217 -168 l 21 -168 l 118 386 l 315 386 l 217 -168 z "},"§":{"ha":810,"x_min":29,"x_max":782,"o":"m 586 750 q 588 772 588 758 q 560 849 588 821 q 478 878 533 878 q 398 853 429 878 q 367 782 367 829 q 409 703 367 738 q 557 626 451 669 q 710 533 656 585 q 764 408 764 482 q 711 260 764 326 q 550 157 658 194 q 644 -12 644 89 q 642 -51 644 -37 q 535 -216 624 -154 q 306 -278 447 -278 q 101 -213 172 -278 q 29 -37 29 -149 q 31 -10 29 -19 l 224 -10 q 333 -137 214 -137 q 414 -112 383 -137 q 444 -39 444 -87 q 401 38 444 4 q 253 115 358 71 q 101 206 156 154 q 47 331 47 257 q 101 483 47 414 q 261 582 154 553 q 167 754 167 653 q 169 792 167 779 q 275 956 186 893 q 506 1018 364 1018 q 710 953 639 1018 q 782 775 782 888 l 781 750 l 586 750 m 556 394 q 522 469 556 440 q 428 497 489 497 q 304 453 351 497 q 257 346 257 408 q 290 271 257 299 q 383 243 324 243 q 508 288 461 243 q 556 394 556 332 z "},"¨":{"ha":525,"x_min":125,"x_max":567,"o":"m 125 938 q 157 1010 125 979 q 229 1042 189 1042 q 283 1022 263 1042 q 304 971 304 1001 q 273 897 304 928 q 199 865 242 865 q 146 885 167 865 q 125 938 125 906 m 388 936 q 419 1010 388 979 q 492 1042 450 1042 q 546 1021 525 1042 q 567 968 567 1000 q 535 896 567 926 q 461 865 503 865 q 408 885 428 865 q 388 936 388 906 z "},"©":{"ha":1089,"x_min":49,"x_max":1040,"o":"m 633 990 q 368 927 490 990 q 165 751 246 864 q 58 494 83 639 q 49 390 49 444 q 98 183 49 272 q 240 45 147 94 q 457 -4 332 -4 q 722 60 600 -4 q 924 237 843 124 q 1031 494 1006 350 q 1040 599 1040 544 q 991 803 1040 715 q 849 941 942 892 q 633 990 757 990 m 622 926 q 878 836 786 926 q 971 592 971 746 q 961 494 971 556 q 871 268 939 367 q 699 115 803 169 q 468 60 594 60 q 211 151 304 60 q 118 396 118 243 q 128 494 118 433 q 219 720 150 622 q 391 872 288 818 q 622 926 494 926 m 606 810 q 783 747 714 810 q 854 574 853 683 l 689 574 q 651 650 682 622 q 574 678 621 678 q 461 630 511 678 q 396 493 411 582 q 392 443 392 467 q 424 343 392 378 q 510 308 457 308 q 597 336 557 308 q 660 413 636 364 l 825 413 q 693 240 785 303 q 494 176 601 176 q 307 241 378 176 q 236 421 236 306 q 243 493 236 451 q 313 662 260 590 q 442 772 365 733 q 606 810 518 810 z "},"ª":{"ha":625,"x_min":33,"x_max":633,"o":"m 310 988 q 468 882 438 988 l 486 981 l 633 981 l 547 493 l 400 493 l 417 590 q 222 485 349 485 q 85 535 136 485 q 33 675 33 586 q 39 735 33 707 q 135 919 60 851 q 310 988 210 988 m 339 869 q 243 833 285 869 q 190 735 201 796 q 188 706 188 713 q 215 631 188 657 q 292 604 243 604 q 390 640 347 604 q 443 736 432 675 q 446 765 446 756 q 417 842 446 814 q 339 869 388 869 z "},"«":{"ha":722,"x_min":63,"x_max":704,"o":"m 143 167 l 63 410 l 229 653 l 411 653 l 242 410 l 325 167 l 143 167 m 436 167 l 356 410 l 522 653 l 704 653 l 535 410 l 618 167 l 436 167 z "},"¬":{"ha":1056,"x_min":54,"x_max":1006,"o":"m 1006 608 l 946 271 l 751 271 l 785 460 l 54 460 l 81 608 l 1006 608 z "},"­":{"ha":726,"x_min":81,"x_max":700,"o":"m 700 576 l 671 414 l 81 414 l 108 576 l 700 576 z "},"®":{"ha":1119,"x_min":49,"x_max":1071,"o":"m 649 990 q 873 942 778 990 q 1019 806 968 894 q 1071 599 1071 717 q 1061 494 1071 544 q 953 237 1036 350 q 745 60 871 124 q 472 -4 619 -4 q 247 45 343 -4 q 100 185 151 94 q 49 393 49 275 q 58 494 49 433 q 168 753 85 640 q 376 928 251 865 q 649 990 501 990 m 993 494 q 1001 590 1001 544 q 906 837 1001 747 q 638 926 810 926 q 398 873 506 926 q 220 722 290 819 q 128 494 150 625 q 119 400 119 444 q 216 155 119 244 q 485 65 313 65 q 723 119 615 65 q 901 269 831 172 q 993 494 971 367 m 647 808 q 790 769 743 808 q 836 664 836 729 q 833 629 836 651 q 775 517 821 564 q 653 456 729 471 l 765 206 l 629 206 l 526 450 l 475 450 l 432 206 l 308 206 l 414 808 l 647 808 m 704 613 q 707 633 707 626 q 615 696 707 696 l 518 696 l 489 531 l 588 531 q 669 552 642 531 q 704 613 696 574 z "},"¯":{"ha":592,"x_min":101,"x_max":657,"o":"m 657 1017 l 633 885 l 101 885 l 126 1017 l 657 1017 z "},"°":{"ha":611,"x_min":32,"x_max":581,"o":"m 350 979 q 519 928 457 979 q 581 785 581 876 q 575 732 581 768 q 472 550 556 618 q 267 482 388 482 q 95 536 158 482 q 32 683 32 590 q 36 732 32 707 q 142 913 57 847 q 350 979 228 979 m 332 874 q 240 837 281 874 q 188 731 200 800 q 185 694 185 718 q 213 616 185 643 q 285 589 240 589 q 373 626 335 589 q 424 731 411 663 q 428 769 428 751 q 401 847 428 821 q 332 874 375 874 z "},"±":{"ha":786,"x_min":-18,"x_max":788,"o":"m 496 504 l 461 308 l 721 308 l 690 131 l -18 131 l 13 308 l 272 308 l 307 504 l 47 504 l 78 682 l 338 682 l 372 878 l 561 878 l 526 682 l 788 682 l 756 504 l 496 504 z "},"²":{"ha":519,"x_min":18,"x_max":496,"o":"m 496 871 q 449 760 496 807 q 294 663 401 714 l 181 603 l 449 603 l 429 489 l 18 489 l 36 596 l 235 717 q 305 774 279 746 q 336 835 331 801 l 338 846 q 326 875 338 865 q 293 885 314 885 q 214 807 235 885 l 67 807 q 157 939 88 888 q 331 990 226 990 q 454 957 413 990 q 496 871 496 924 z "},"³":{"ha":504,"x_min":11,"x_max":481,"o":"m 304 990 q 434 958 388 990 q 481 872 481 926 q 449 785 481 819 q 360 740 418 751 l 358 736 q 449 644 449 714 q 386 528 449 572 q 218 483 324 483 q 57 525 103 483 q 17 649 11 567 l 172 649 q 182 601 168 614 q 224 588 196 588 q 272 603 253 588 q 294 646 290 618 q 296 661 296 651 q 279 698 296 686 q 232 710 263 710 l 174 710 l 183 765 l 236 765 q 292 781 269 765 q 319 829 314 797 q 310 870 322 854 q 271 886 297 886 q 196 825 214 886 l 56 825 q 133 943 72 896 q 304 990 194 990 z "},"´":{"ha":381,"x_min":88,"x_max":461,"o":"m 433 978 l 88 828 l 111 961 l 461 1128 l 433 978 z "},"µ":{"ha":928,"x_min":-32,"x_max":919,"o":"m 919 769 l 783 0 l 586 0 l 611 143 q 496 31 568 71 q 338 -10 424 -10 q 233 31 268 -10 l 163 -367 l -32 -367 l 168 769 l 364 769 l 292 368 q 286 314 286 329 q 326 199 286 239 q 438 160 367 160 q 576 212 519 160 q 650 363 633 264 l 650 361 l 722 769 l 919 769 z "},"¶":{"ha":919,"x_min":57,"x_max":896,"o":"m 725 0 l 567 0 l 711 822 l 603 822 l 458 0 l 300 0 l 368 386 l 342 386 q 127 451 197 386 q 57 619 57 515 q 63 678 57 639 q 183 887 85 804 q 444 969 281 969 l 896 969 l 725 0 z "},"·":{"ha":318,"x_min":56,"x_max":303,"o":"m 303 553 l 267 349 l 56 349 l 92 553 l 303 553 z "},"¸":{"ha":424,"x_min":-3,"x_max":389,"o":"m 235 -72 q 344 -99 299 -69 q 389 -190 389 -128 q 386 -222 389 -211 q 315 -332 374 -297 q 178 -367 256 -367 l -3 -367 l 15 -261 l 174 -261 q 256 -207 256 -261 q 240 -177 256 -189 q 192 -165 224 -165 l 100 -165 l 131 10 l 249 10 l 235 -72 z "},"¹":{"ha":324,"x_min":63,"x_max":315,"o":"m 63 863 l 82 978 l 315 978 l 229 489 l 81 489 l 147 863 l 63 863 z "},"º":{"ha":604,"x_min":35,"x_max":588,"o":"m 356 985 q 526 928 464 985 q 588 781 588 872 q 583 733 588 758 q 526 603 571 661 q 415 512 482 544 q 267 479 347 479 q 97 535 158 479 q 35 685 35 592 q 39 733 35 708 q 95 863 51 806 q 206 953 139 921 q 356 985 274 985 m 335 869 q 242 834 282 869 q 189 733 201 799 q 186 699 186 721 q 213 622 186 649 q 286 596 240 596 q 380 632 339 596 q 432 733 421 668 q 435 768 435 746 q 408 844 435 818 q 335 869 381 869 z "},"»":{"ha":722,"x_min":26,"x_max":668,"o":"m 197 410 l 113 653 l 296 653 l 375 410 l 210 167 l 26 167 l 197 410 m 490 410 l 406 653 l 589 653 l 668 410 l 503 167 l 319 167 l 490 410 z "},"¼":{"ha":1044,"x_min":39,"x_max":949,"o":"m 919 981 l 231 0 l 39 0 l 729 981 l 919 981 m 71 863 l 90 978 l 324 978 l 238 489 l 89 489 l 156 863 l 71 863 m 933 90 l 874 90 l 857 0 l 708 0 l 725 90 l 460 90 l 475 171 l 747 490 l 944 490 l 889 175 l 949 175 l 933 90 m 783 381 l 617 179 l 749 179 l 783 381 z "},"½":{"ha":1103,"x_min":42,"x_max":1024,"o":"m 932 983 l 233 0 l 42 0 l 740 983 l 932 983 m 188 863 l 103 863 l 122 978 l 356 978 l 269 489 l 121 489 l 188 863 m 1024 381 q 976 270 1024 317 q 822 172 929 224 l 708 113 l 976 113 l 957 -1 l 546 -1 l 564 106 l 763 226 q 833 283 807 256 q 864 344 858 311 l 865 356 q 853 385 865 375 q 821 394 842 394 q 742 317 763 394 l 594 317 q 685 449 615 397 q 858 500 754 500 q 982 467 940 500 q 1024 381 1024 433 z "},"¾":{"ha":1149,"x_min":47,"x_max":1069,"o":"m 340 990 q 470 958 424 990 q 517 872 517 926 q 485 785 517 819 q 396 740 454 751 l 394 736 q 485 644 485 714 q 422 528 485 572 q 254 483 360 483 q 93 525 139 483 q 53 649 47 567 l 208 649 q 218 601 204 614 q 260 588 232 588 q 308 603 289 588 q 331 646 326 618 q 332 661 332 651 q 315 698 332 686 q 268 710 299 710 l 210 710 l 219 765 l 272 765 q 328 781 306 765 q 356 829 350 797 q 346 870 358 854 q 307 886 333 886 q 232 825 250 886 l 92 825 q 169 943 108 896 q 340 990 231 990 m 1036 983 l 361 0 l 171 0 l 844 983 l 1036 983 m 1054 90 l 994 90 l 979 0 l 831 0 l 846 90 l 581 90 l 594 171 l 850 490 l 1065 490 l 1010 175 l 1069 175 l 1054 90 m 907 397 l 738 175 l 869 175 l 907 397 z "},"¿":{"ha":706,"x_min":-10,"x_max":649,"o":"m 263 -262 q 63 -203 136 -262 q -10 -31 -10 -143 q -4 35 -10 6 q 122 240 19 169 q 371 314 225 311 l 396 454 l 581 454 l 532 186 l 454 186 q 274 153 344 186 q 188 36 203 121 q 185 4 185 14 q 215 -75 185 -47 q 299 -103 246 -103 q 401 -67 363 -103 q 456 29 440 -32 l 642 29 q 519 -181 618 -100 q 263 -262 421 -262 m 401 572 l 438 776 l 649 776 l 613 572 l 401 572 z "},"À":{"ha":978,"x_min":-67,"x_max":878,"o":"m 636 197 l 244 197 l 140 0 l -67 0 l 464 969 l 689 969 l 878 0 l 669 0 l 636 197 m 611 346 l 540 761 l 322 346 l 611 346 m 713 1172 l 689 1039 l 396 1189 l 422 1339 l 713 1172 z "},"Á":{"ha":978,"x_min":-67,"x_max":878,"o":"m 636 197 l 244 197 l 140 0 l -67 0 l 464 969 l 689 969 l 878 0 l 669 0 l 636 197 m 611 346 l 540 761 l 322 346 l 611 346 m 819 1189 l 474 1039 l 497 1172 l 847 1339 l 819 1189 z "},"Â":{"ha":978,"x_min":-62,"x_max":882,"o":"m 640 197 l 249 197 l 144 0 l -62 0 l 468 969 l 693 969 l 882 0 l 674 0 l 640 197 m 615 346 l 544 761 l 326 346 l 615 346 m 614 1167 l 386 1049 l 410 1181 l 638 1296 l 822 1181 l 800 1049 l 614 1167 z "},"Ã":{"ha":978,"x_min":-58,"x_max":889,"o":"m 644 197 l 253 197 l 149 0 l -58 0 l 472 969 l 697 969 l 886 0 l 678 0 l 644 197 m 619 346 l 549 761 l 331 346 l 619 346 m 547 1240 q 597 1231 576 1240 q 646 1203 618 1221 q 681 1181 665 1189 q 715 1174 696 1174 q 760 1190 740 1174 q 789 1239 779 1207 l 889 1239 q 689 1057 829 1057 q 636 1067 658 1057 q 588 1094 614 1076 q 552 1115 565 1108 q 521 1122 539 1122 q 447 1057 469 1122 l 347 1057 q 547 1240 410 1240 z "},"Ä":{"ha":978,"x_min":-60,"x_max":885,"o":"m 643 197 l 251 197 l 147 0 l -60 0 l 471 969 l 696 969 l 885 0 l 676 0 l 643 197 m 618 346 l 547 761 l 329 346 l 618 346 m 397 1149 q 429 1222 397 1190 q 501 1253 461 1253 q 556 1233 535 1253 q 576 1182 576 1213 q 545 1108 576 1139 q 471 1076 514 1076 q 418 1097 439 1076 q 397 1149 397 1117 m 660 1147 q 691 1222 660 1190 q 764 1253 722 1253 q 818 1232 797 1253 q 839 1179 839 1211 q 807 1107 839 1138 q 733 1076 775 1076 q 680 1097 700 1076 q 660 1147 660 1117 z "},"Å":{"ha":978,"x_min":-69,"x_max":875,"o":"m 633 197 l 242 197 l 138 0 l -69 0 l 461 969 l 686 969 l 875 0 l 667 0 l 633 197 m 608 346 l 538 761 l 319 346 l 608 346 m 635 1367 q 732 1333 694 1367 q 769 1240 769 1300 q 743 1139 769 1183 q 673 1071 717 1094 q 579 1047 629 1047 q 482 1081 519 1047 q 444 1175 444 1115 q 472 1276 444 1232 q 542 1343 499 1319 q 635 1367 586 1367 m 621 1286 q 556 1259 583 1286 q 529 1189 529 1232 q 547 1144 529 1161 q 593 1128 565 1128 q 658 1155 631 1128 q 686 1224 686 1182 q 668 1269 686 1253 q 621 1286 650 1286 z "},"Æ":{"ha":1286,"x_min":-81,"x_max":1317,"o":"m 910 825 l 865 574 l 1203 574 l 1176 424 l 839 424 l 792 157 l 1172 157 l 1144 0 l 568 0 l 601 189 l 267 189 l 133 0 l -81 0 l 615 981 l 1317 981 l 1289 825 l 910 825 m 628 338 l 713 818 l 372 338 l 628 338 z "},"Ç":{"ha":1054,"x_min":64,"x_max":1038,"o":"m 635 990 q 922 896 818 990 q 1038 639 1026 801 l 831 639 q 755 763 814 717 q 600 810 696 810 q 453 771 522 810 q 337 660 385 732 q 272 490 289 588 q 265 414 265 444 q 326 238 265 303 q 489 172 388 172 q 658 218 583 172 q 779 343 733 264 l 986 343 q 781 86 918 181 q 460 -8 643 -8 q 248 40 338 -8 q 111 177 158 89 q 64 382 64 265 q 74 490 64 438 q 178 750 99 636 q 375 927 257 864 q 635 990 493 990 m 522 -72 q 631 -99 586 -69 q 676 -190 676 -128 q 674 -222 676 -211 q 602 -332 661 -297 q 465 -367 543 -367 l 285 -367 l 303 -261 l 461 -261 q 543 -207 543 -261 q 527 -177 543 -189 q 479 -165 511 -165 l 388 -165 l 418 10 l 536 10 l 522 -72 z "},"È":{"ha":729,"x_min":-4,"x_max":753,"o":"m 336 825 l 293 571 l 639 571 l 613 421 l 265 421 l 219 157 l 608 157 l 581 0 l -4 0 l 168 981 l 753 981 l 725 825 l 336 825 m 597 1172 l 574 1039 l 281 1189 l 307 1339 l 597 1172 z "},"É":{"ha":729,"x_min":-4,"x_max":753,"o":"m 336 825 l 293 571 l 639 571 l 613 421 l 265 421 l 219 157 l 608 157 l 581 0 l -4 0 l 168 981 l 753 981 l 725 825 l 336 825 m 706 1189 l 360 1039 l 383 1172 l 733 1339 l 706 1189 z "},"Ê":{"ha":729,"x_min":0,"x_max":757,"o":"m 340 825 l 297 571 l 643 571 l 617 421 l 269 421 l 224 157 l 613 157 l 585 0 l 0 0 l 172 981 l 757 981 l 729 825 l 340 825 m 499 1167 l 271 1049 l 294 1181 l 522 1296 l 707 1181 l 685 1049 l 499 1167 z "},"Ë":{"ha":729,"x_min":3,"x_max":760,"o":"m 343 825 l 300 571 l 646 571 l 619 421 l 272 421 l 226 157 l 615 157 l 588 0 l 3 0 l 175 981 l 760 981 l 732 825 l 343 825 m 282 1149 q 314 1222 282 1190 q 386 1253 346 1253 q 440 1233 419 1253 q 461 1182 461 1213 q 430 1108 461 1139 q 356 1076 399 1076 q 303 1097 324 1076 q 282 1149 282 1117 m 544 1147 q 576 1222 544 1190 q 649 1253 607 1253 q 703 1232 682 1253 q 724 1179 724 1211 q 692 1107 724 1138 q 618 1076 660 1076 q 565 1097 585 1076 q 544 1147 544 1117 z "},"Ì":{"ha":374,"x_min":4,"x_max":410,"o":"m 372 981 l 200 0 l 4 0 l 176 981 l 372 981 m 410 1172 l 386 1039 l 93 1189 l 119 1339 l 410 1172 z "},"Í":{"ha":374,"x_min":4,"x_max":546,"o":"m 372 981 l 200 0 l 4 0 l 176 981 l 372 981 m 518 1189 l 172 1039 l 196 1172 l 546 1339 l 518 1189 z "},"Î":{"ha":374,"x_min":8,"x_max":521,"o":"m 376 981 l 204 0 l 8 0 l 181 981 l 376 981 m 313 1167 l 85 1049 l 108 1181 l 336 1296 l 521 1181 l 499 1049 l 313 1167 z "},"Ï":{"ha":374,"x_min":11,"x_max":539,"o":"m 379 981 l 207 0 l 11 0 l 183 981 l 379 981 m 97 1149 q 129 1222 97 1190 q 201 1253 161 1253 q 256 1233 235 1253 q 276 1182 276 1213 q 245 1108 276 1139 q 171 1076 214 1076 q 118 1097 139 1076 q 97 1149 97 1117 m 360 1147 q 391 1222 360 1190 q 464 1253 422 1253 q 518 1232 497 1253 q 539 1179 539 1211 q 507 1107 539 1138 q 433 1076 475 1076 q 380 1097 400 1076 q 360 1147 360 1117 z "},"Ð":{"ha":1032,"x_min":-8,"x_max":983,"o":"m 546 981 q 869 878 756 981 q 983 599 983 776 q 974 492 983 544 q 867 235 947 346 q 660 62 786 124 q 374 0 533 0 l 25 0 l 97 414 l -8 414 l 19 571 l 125 571 l 197 981 l 546 981 m 775 492 q 782 567 782 536 q 710 747 782 685 q 499 810 638 810 l 364 810 l 322 571 l 560 571 l 532 414 l 293 414 l 251 175 l 388 175 q 647 258 546 175 q 775 492 747 342 z "},"Ñ":{"ha":1008,"x_min":4,"x_max":1007,"o":"m 835 0 l 639 0 l 318 667 l 200 0 l 4 0 l 176 981 l 372 981 l 693 308 l 811 981 l 1007 981 l 835 0 m 554 1240 q 604 1231 583 1240 q 653 1203 625 1221 q 688 1181 672 1189 q 722 1174 703 1174 q 767 1190 747 1174 q 796 1239 786 1207 l 896 1239 q 696 1057 836 1057 q 643 1067 665 1057 q 594 1094 621 1076 q 559 1115 572 1108 q 528 1122 546 1122 q 454 1057 476 1122 l 354 1057 q 554 1240 417 1240 z "},"Ò":{"ha":1083,"x_min":43,"x_max":1029,"o":"m 600 994 q 828 942 732 994 q 977 795 925 890 q 1029 575 1029 700 q 1018 460 1029 524 q 919 216 994 322 q 728 50 843 110 q 474 -10 613 -10 q 243 42 340 -10 q 94 189 146 94 q 43 408 43 283 q 54 526 43 463 q 153 770 78 664 q 345 935 229 876 q 600 994 461 994 m 585 814 q 365 729 458 814 q 246 501 272 644 q 239 424 239 456 q 306 240 239 307 q 489 172 372 172 q 643 210 572 172 q 763 319 714 249 q 826 485 811 390 q 833 564 833 519 q 767 747 833 681 q 585 814 700 814 m 765 1172 l 742 1039 l 449 1189 l 475 1339 l 765 1172 z "},"Ó":{"ha":1083,"x_min":36,"x_max":1022,"o":"m 593 994 q 822 942 725 994 q 970 795 918 890 q 1022 575 1022 700 q 1011 460 1022 524 q 912 216 988 322 q 721 50 836 110 q 467 -10 606 -10 q 236 42 333 -10 q 88 189 139 94 q 36 408 36 283 q 47 526 36 463 q 147 770 71 664 q 338 935 222 876 q 593 994 454 994 m 578 814 q 358 729 451 814 q 239 501 265 644 q 232 424 232 456 q 299 240 232 307 q 482 172 365 172 q 636 210 565 172 q 756 319 707 249 q 819 485 804 390 q 826 564 826 519 q 760 747 826 681 q 578 814 693 814 m 867 1189 l 521 1039 l 544 1172 l 894 1339 l 867 1189 z "},"Ô":{"ha":1083,"x_min":40,"x_max":1026,"o":"m 597 994 q 826 942 729 994 q 974 795 922 890 q 1026 575 1026 700 q 1015 460 1026 524 q 916 216 992 322 q 725 50 840 110 q 471 -10 610 -10 q 240 42 338 -10 q 92 189 143 94 q 40 408 40 283 q 51 526 40 463 q 151 770 75 664 q 342 935 226 876 q 597 994 458 994 m 582 814 q 363 729 456 814 q 243 501 269 644 q 236 424 236 456 q 303 240 236 307 q 486 172 369 172 q 640 210 569 172 q 760 319 711 249 q 824 485 808 390 q 831 564 831 519 q 764 747 831 681 q 582 814 697 814 m 660 1167 l 432 1049 l 456 1181 l 683 1296 l 868 1181 l 846 1049 l 660 1167 z "},"Õ":{"ha":1083,"x_min":44,"x_max":1031,"o":"m 601 994 q 830 942 733 994 q 978 795 926 890 q 1031 575 1031 700 q 1019 460 1031 524 q 920 216 996 322 q 729 50 844 110 q 475 -10 614 -10 q 244 42 342 -10 q 96 189 147 94 q 44 408 44 283 q 56 526 44 463 q 155 770 79 664 q 347 935 231 876 q 601 994 463 994 m 586 814 q 367 729 460 814 q 247 501 274 644 q 240 424 240 456 q 307 240 240 307 q 490 172 374 172 q 644 210 574 172 q 764 319 715 249 q 828 485 813 390 q 835 564 835 519 q 768 747 835 681 q 586 814 701 814 m 593 1240 q 643 1231 622 1240 q 692 1203 664 1221 q 726 1181 711 1189 q 761 1174 742 1174 q 806 1190 786 1174 q 835 1239 825 1207 l 935 1239 q 735 1057 875 1057 q 682 1067 704 1057 q 633 1094 660 1076 q 598 1115 611 1108 q 567 1122 585 1122 q 493 1057 515 1122 l 393 1057 q 593 1240 456 1240 z "},"Ö":{"ha":1083,"x_min":43,"x_max":1029,"o":"m 600 994 q 828 942 732 994 q 977 795 925 890 q 1029 575 1029 700 q 1018 460 1029 524 q 919 216 994 322 q 728 50 843 110 q 474 -10 613 -10 q 243 42 340 -10 q 94 189 146 94 q 43 408 43 283 q 54 526 43 463 q 153 770 78 664 q 345 935 229 876 q 600 994 461 994 m 585 814 q 365 729 458 814 q 246 501 272 644 q 239 424 239 456 q 306 240 239 307 q 489 172 372 172 q 643 210 572 172 q 763 319 714 249 q 826 485 811 390 q 833 564 833 519 q 767 747 833 681 q 585 814 700 814 m 444 1149 q 476 1222 444 1190 q 549 1253 508 1253 q 603 1233 582 1253 q 624 1182 624 1213 q 592 1108 624 1139 q 518 1076 561 1076 q 465 1097 486 1076 q 444 1149 444 1117 m 707 1147 q 738 1222 707 1190 q 811 1253 769 1253 q 865 1232 844 1253 q 886 1179 886 1211 q 854 1107 886 1138 q 781 1076 822 1076 q 727 1097 747 1076 q 707 1147 707 1117 z "},"×":{"ha":744,"x_min":11,"x_max":740,"o":"m 507 503 l 678 296 l 526 168 l 356 374 l 117 169 l 11 294 l 251 500 l 86 700 l 239 829 l 403 629 l 635 828 l 740 703 l 507 503 z "},"Ø":{"ha":1097,"x_min":-37,"x_max":1133,"o":"m 963 826 q 1033 575 1033 721 q 1022 460 1033 524 q 923 216 999 322 q 732 50 847 110 q 478 -10 617 -10 q 172 94 288 -10 l 72 1 l -37 1 l 124 150 q 47 410 47 256 q 58 526 47 463 q 158 770 82 664 q 349 935 233 876 q 604 994 465 994 q 781 965 701 994 q 915 882 860 936 l 1025 985 l 1133 985 l 963 826 m 250 501 q 243 425 243 457 q 274 289 243 347 l 769 749 q 589 814 704 814 q 369 729 463 814 q 250 501 276 644 m 831 485 q 838 563 838 531 q 813 688 838 636 l 319 231 q 493 172 385 172 q 647 210 576 172 q 767 319 718 249 q 831 485 815 390 z "},"Ù":{"ha":949,"x_min":54,"x_max":947,"o":"m 360 981 l 258 406 q 251 335 251 364 q 293 215 251 256 q 414 175 335 175 q 569 233 508 175 q 651 406 631 290 l 753 981 l 947 981 l 847 406 q 754 176 822 269 q 589 36 686 82 q 378 -10 492 -10 q 141 68 228 -10 q 54 297 54 146 q 64 406 54 351 l 165 981 l 360 981 m 690 1172 l 667 1039 l 374 1189 l 400 1339 l 690 1172 z "},"Ú":{"ha":949,"x_min":54,"x_max":947,"o":"m 360 981 l 258 406 q 251 335 251 364 q 293 215 251 256 q 414 175 335 175 q 569 233 508 175 q 651 406 631 290 l 753 981 l 947 981 l 847 406 q 754 176 822 269 q 589 36 686 82 q 378 -10 492 -10 q 141 68 228 -10 q 54 297 54 146 q 64 406 54 351 l 165 981 l 360 981 m 799 1189 l 453 1039 l 476 1172 l 826 1339 l 799 1189 z "},"Û":{"ha":949,"x_min":58,"x_max":951,"o":"m 364 981 l 263 406 q 256 335 256 364 q 297 215 256 256 q 418 175 339 175 q 574 233 513 175 q 656 406 635 290 l 757 981 l 951 981 l 851 406 q 758 176 826 269 q 593 36 690 82 q 382 -10 496 -10 q 145 68 232 -10 q 58 297 58 146 q 68 406 58 351 l 169 981 l 364 981 m 592 1167 l 364 1049 l 388 1181 l 615 1296 l 800 1181 l 778 1049 l 592 1167 z "},"Ü":{"ha":949,"x_min":61,"x_max":954,"o":"m 367 981 l 265 406 q 258 335 258 364 q 300 215 258 256 q 421 175 342 175 q 576 233 515 175 q 658 406 638 290 l 760 981 l 954 981 l 854 406 q 761 176 829 269 q 596 36 693 82 q 385 -10 499 -10 q 148 68 235 -10 q 61 297 61 146 q 71 406 61 351 l 172 981 l 367 981 m 375 1149 q 407 1222 375 1190 q 479 1253 439 1253 q 533 1233 513 1253 q 554 1182 554 1213 q 523 1108 554 1139 q 449 1076 492 1076 q 396 1097 417 1076 q 375 1149 375 1117 m 638 1147 q 669 1222 638 1190 q 742 1253 700 1253 q 796 1232 775 1253 q 817 1179 817 1211 q 785 1107 817 1138 q 711 1076 753 1076 q 658 1097 678 1076 q 638 1147 638 1117 z "},"Ý":{"ha":896,"x_min":96,"x_max":958,"o":"m 958 981 l 514 343 l 454 0 l 257 0 l 317 343 l 96 981 l 321 981 l 453 551 l 738 981 l 958 981 m 772 1189 l 426 1039 l 450 1172 l 800 1339 l 772 1189 z "},"Þ":{"ha":835,"x_min":3,"x_max":801,"o":"m 233 193 l 199 0 l 3 0 l 175 981 l 369 981 l 336 793 l 499 793 q 726 731 650 793 q 801 556 801 668 q 796 492 801 521 q 667 274 771 354 q 394 193 563 193 l 233 193 m 400 342 q 597 492 569 342 q 600 529 600 506 q 565 613 600 585 q 453 642 531 642 l 313 642 l 260 342 l 400 342 z "},"ß":{"ha":963,"x_min":-3,"x_max":900,"o":"m 739 540 q 860 428 821 489 q 900 288 900 367 q 893 217 900 258 q 794 53 875 117 q 590 -11 714 -11 q 394 53 465 -11 q 322 229 322 117 q 325 272 322 242 l 486 272 q 485 251 485 265 q 510 183 485 208 q 582 158 535 158 q 665 188 633 158 q 706 257 697 217 q 707 281 707 265 q 688 342 707 314 q 624 403 669 369 l 433 539 l 449 608 l 486 628 q 554 684 532 651 q 576 764 576 717 q 549 833 576 807 q 474 860 522 860 q 372 824 413 860 q 319 724 331 789 l 194 0 l -3 0 l 128 731 q 256 960 154 879 q 521 1042 357 1042 q 721 985 650 1042 q 792 840 792 929 q 788 800 792 821 q 735 697 778 743 q 619 619 692 651 l 739 540 z "},"à":{"ha":940,"x_min":47,"x_max":925,"o":"m 458 779 q 623 733 560 779 q 701 610 686 686 l 731 769 l 925 769 l 789 0 l 594 0 l 624 161 q 503 37 581 83 q 328 -10 425 -10 q 122 71 197 -10 q 47 294 47 151 q 57 401 47 349 q 136 603 78 517 q 278 734 194 689 q 458 779 363 779 m 499 608 q 340 549 407 608 q 256 385 274 489 q 250 331 250 346 q 295 207 250 251 q 419 163 340 163 q 576 223 508 163 q 663 385 644 283 q 668 438 668 421 q 622 563 668 517 q 499 608 575 608 m 639 961 l 615 828 l 322 978 l 349 1128 l 639 961 z "},"á":{"ha":940,"x_min":47,"x_max":925,"o":"m 458 779 q 623 733 560 779 q 701 610 686 686 l 731 769 l 925 769 l 789 0 l 594 0 l 624 161 q 503 37 581 83 q 328 -10 425 -10 q 122 71 197 -10 q 47 294 47 151 q 57 401 47 349 q 136 603 78 517 q 278 734 194 689 q 458 779 363 779 m 499 608 q 340 549 407 608 q 256 385 274 489 q 250 331 250 346 q 295 207 250 251 q 419 163 340 163 q 576 223 508 163 q 663 385 644 283 q 668 438 668 421 q 622 563 668 517 q 499 608 575 608 m 747 978 l 401 828 l 425 961 l 775 1128 l 747 978 z "},"â":{"ha":940,"x_min":35,"x_max":913,"o":"m 446 779 q 610 733 547 779 q 689 610 674 686 l 718 769 l 913 769 l 776 0 l 582 0 l 611 161 q 490 37 568 83 q 315 -10 413 -10 q 110 71 185 -10 q 35 294 35 151 q 44 401 35 349 q 124 603 65 517 q 266 734 182 689 q 446 779 350 779 m 486 608 q 328 549 394 608 q 243 385 261 489 q 238 331 238 346 q 283 207 238 251 q 407 163 328 163 q 564 223 496 163 q 650 385 632 283 q 656 438 656 421 q 609 563 656 517 q 486 608 563 608 m 525 956 l 297 838 l 321 969 l 549 1085 l 733 969 l 711 838 l 525 956 z "},"ã":{"ha":940,"x_min":56,"x_max":933,"o":"m 467 779 q 631 733 568 779 q 710 610 694 686 l 739 769 l 933 769 l 797 0 l 603 0 l 632 161 q 511 37 589 83 q 336 -10 433 -10 q 131 71 206 -10 q 56 294 56 151 q 65 401 56 349 q 144 603 86 517 q 287 734 203 689 q 467 779 371 779 m 507 608 q 349 549 415 608 q 264 385 282 489 q 258 331 258 346 q 303 207 258 251 q 428 163 349 163 q 585 223 517 163 q 671 385 653 283 q 676 438 676 421 q 630 563 676 517 q 507 608 583 608 m 475 1029 q 525 1019 504 1029 q 574 992 546 1010 q 608 970 593 978 q 643 963 624 963 q 688 979 668 963 q 717 1028 707 996 l 817 1028 q 617 846 757 846 q 564 856 586 846 q 515 883 542 865 q 480 904 493 897 q 449 911 467 911 q 375 846 397 911 l 275 846 q 475 1029 338 1029 z "},"ä":{"ha":940,"x_min":54,"x_max":932,"o":"m 465 779 q 630 733 567 779 q 708 610 693 686 l 738 769 l 932 769 l 796 0 l 601 0 l 631 161 q 510 37 588 83 q 335 -10 432 -10 q 129 71 204 -10 q 54 294 54 151 q 64 401 54 349 q 143 603 85 517 q 285 734 201 689 q 465 779 369 779 m 506 608 q 347 549 414 608 q 263 385 281 489 q 257 331 257 346 q 302 207 257 251 q 426 163 347 163 q 583 223 515 163 q 669 385 651 283 q 675 438 675 421 q 628 563 675 517 q 506 608 582 608 m 325 938 q 357 1010 325 979 q 429 1042 389 1042 q 483 1022 463 1042 q 504 971 504 1001 q 473 897 504 928 q 399 865 442 865 q 346 885 367 865 q 325 938 325 906 m 588 936 q 619 1010 588 979 q 692 1042 650 1042 q 746 1021 725 1042 q 767 968 767 1000 q 735 896 767 926 q 661 865 703 865 q 608 885 628 865 q 588 936 588 906 z "},"å":{"ha":940,"x_min":28,"x_max":906,"o":"m 439 779 q 603 733 540 779 q 682 610 667 686 l 711 769 l 906 769 l 769 0 l 575 0 l 604 161 q 483 37 561 83 q 308 -10 406 -10 q 103 71 178 -10 q 28 294 28 151 q 38 401 28 349 q 117 603 58 517 q 259 734 175 689 q 439 779 343 779 m 479 608 q 321 549 388 608 q 236 385 254 489 q 231 331 231 346 q 276 207 231 251 q 400 163 321 163 q 557 223 489 163 q 643 385 625 283 q 649 438 649 421 q 602 563 649 517 q 479 608 556 608 m 546 1156 q 643 1122 606 1156 q 681 1029 681 1089 q 654 928 681 972 q 584 860 628 883 q 490 836 540 836 q 393 870 431 836 q 356 964 356 904 q 383 1065 356 1021 q 453 1132 410 1108 q 546 1156 497 1156 m 532 1075 q 467 1048 494 1075 q 440 978 440 1021 q 458 933 440 950 q 504 917 476 917 q 569 944 542 917 q 597 1013 597 971 q 579 1058 597 1042 q 532 1075 561 1075 z "},"æ":{"ha":1511,"x_min":42,"x_max":1472,"o":"m 1193 779 q 1399 702 1325 779 q 1472 497 1472 625 q 1464 414 1472 458 q 1446 347 1456 372 l 850 347 q 849 313 849 335 q 894 187 849 228 q 1015 146 939 146 q 1144 179 1089 146 q 1222 271 1199 213 l 1429 271 q 1283 69 1385 147 q 1053 -10 1181 -10 q 890 35 954 -10 q 811 161 825 79 l 782 0 l 588 0 l 617 161 q 496 37 574 83 q 321 -10 418 -10 q 117 69 193 -10 q 42 289 42 149 q 50 385 42 335 q 131 595 71 506 q 276 732 190 685 q 460 779 363 779 q 618 733 557 779 q 696 610 679 688 l 724 769 l 919 769 l 890 608 q 1012 735 933 692 q 1193 779 1090 779 m 1269 433 q 1275 482 1275 457 q 1226 589 1275 553 q 1106 625 1178 625 q 955 578 1019 625 q 865 433 890 532 l 1269 433 m 656 385 q 661 438 661 421 q 615 563 661 517 q 492 608 568 608 q 333 549 400 608 q 249 385 267 489 q 243 331 243 346 q 288 207 243 251 q 413 163 333 163 q 569 223 501 163 q 656 385 638 283 z "},"ç":{"ha":857,"x_min":47,"x_max":829,"o":"m 501 779 q 742 699 654 779 q 829 479 829 618 l 622 479 q 581 576 619 540 q 476 611 543 611 q 335 553 397 611 q 254 385 274 496 q 249 322 249 356 q 290 200 249 242 q 396 158 331 158 q 515 194 464 158 q 589 290 565 229 l 796 290 q 633 71 747 151 q 371 -10 519 -10 q 135 74 222 -10 q 47 307 47 158 q 56 401 47 351 q 140 603 76 518 q 298 734 204 689 q 501 779 392 779 m 417 -72 q 526 -99 481 -69 q 571 -190 571 -128 q 568 -222 571 -211 q 497 -332 556 -297 q 360 -367 438 -367 l 179 -367 l 197 -261 l 356 -261 q 438 -207 438 -261 q 422 -177 438 -189 q 374 -165 406 -165 l 282 -165 l 313 10 l 431 10 l 417 -72 z "},"è":{"ha":861,"x_min":39,"x_max":819,"o":"m 499 779 q 734 700 649 779 q 819 489 819 621 q 813 414 819 458 q 794 347 804 372 l 229 347 q 226 303 226 332 q 268 185 226 222 q 378 147 310 147 q 497 181 446 147 q 571 271 549 215 l 778 271 q 620 68 732 146 q 360 -10 508 -10 q 126 72 213 -10 q 39 300 39 154 q 47 394 39 344 q 133 599 68 513 q 292 733 197 686 q 499 779 388 779 m 618 433 q 624 486 624 460 q 581 590 624 556 q 472 625 538 625 q 329 576 392 625 q 244 433 267 528 l 618 433 m 613 961 l 589 828 l 296 978 l 322 1128 l 613 961 z "},"é":{"ha":861,"x_min":39,"x_max":819,"o":"m 499 779 q 734 700 649 779 q 819 489 819 621 q 813 414 819 458 q 794 347 804 372 l 229 347 q 226 303 226 332 q 268 185 226 222 q 378 147 310 147 q 497 181 446 147 q 571 271 549 215 l 778 271 q 620 68 732 146 q 360 -10 508 -10 q 126 72 213 -10 q 39 300 39 154 q 47 394 39 344 q 133 599 68 513 q 292 733 197 686 q 499 779 388 779 m 618 433 q 624 486 624 460 q 581 590 624 556 q 472 625 538 625 q 329 576 392 625 q 244 433 267 528 l 618 433 m 721 978 l 375 828 l 399 961 l 749 1128 l 721 978 z "},"ê":{"ha":861,"x_min":43,"x_max":824,"o":"m 503 779 q 738 700 653 779 q 824 489 824 621 q 817 414 824 458 q 799 347 808 372 l 233 347 q 231 303 231 332 q 272 185 231 222 q 382 147 314 147 q 501 181 450 147 q 575 271 553 215 l 782 271 q 624 68 736 146 q 364 -10 513 -10 q 130 72 217 -10 q 43 300 43 154 q 51 394 43 344 q 137 599 72 513 q 297 733 201 686 q 503 779 392 779 m 622 433 q 628 486 628 460 q 585 590 628 556 q 476 625 542 625 q 333 576 396 625 q 249 433 271 528 l 622 433 m 514 956 l 286 838 l 310 969 l 538 1085 l 722 969 l 700 838 l 514 956 z "},"ë":{"ha":861,"x_min":46,"x_max":826,"o":"m 506 779 q 741 700 656 779 q 826 489 826 621 q 819 414 826 458 q 801 347 811 372 l 236 347 q 233 303 233 332 q 275 185 233 222 q 385 147 317 147 q 504 181 453 147 q 578 271 556 215 l 785 271 q 627 68 739 146 q 367 -10 515 -10 q 133 72 219 -10 q 46 300 46 154 q 54 394 46 344 q 140 599 75 513 q 299 733 204 686 q 506 779 394 779 m 625 433 q 631 486 631 460 q 588 590 631 556 q 479 625 544 625 q 336 576 399 625 q 251 433 274 528 l 625 433 m 297 938 q 329 1010 297 979 q 401 1042 361 1042 q 456 1022 435 1042 q 476 971 476 1001 q 445 897 476 928 q 371 865 414 865 q 318 885 339 865 q 297 938 297 906 m 560 936 q 591 1010 560 979 q 664 1042 622 1042 q 718 1021 697 1042 q 739 968 739 1000 q 707 896 739 926 q 633 865 675 865 q 580 885 600 865 q 560 936 560 906 z "},"ì":{"ha":374,"x_min":19,"x_max":396,"o":"m 351 769 l 215 0 l 19 0 l 156 769 l 351 769 m 396 961 l 372 828 l 79 978 l 106 1128 l 396 961 z "},"í":{"ha":374,"x_min":19,"x_max":532,"o":"m 351 769 l 215 0 l 19 0 l 156 769 l 351 769 m 504 978 l 158 828 l 182 961 l 532 1128 l 504 978 z "},"î":{"ha":374,"x_min":22,"x_max":489,"o":"m 354 769 l 218 0 l 22 0 l 158 769 l 354 769 m 281 956 l 53 838 l 76 969 l 304 1085 l 489 969 l 467 838 l 281 956 z "},"ï":{"ha":374,"x_min":26,"x_max":524,"o":"m 358 769 l 222 0 l 26 0 l 163 769 l 358 769 m 82 938 q 114 1010 82 979 q 186 1042 146 1042 q 240 1022 219 1042 q 261 971 261 1001 q 230 897 261 928 q 156 865 199 865 q 103 885 124 865 q 82 938 82 906 m 344 936 q 376 1010 344 979 q 449 1042 407 1042 q 503 1021 482 1042 q 524 968 524 1000 q 492 896 524 926 q 418 865 460 865 q 365 885 385 865 q 344 936 344 906 z "},"ð":{"ha":886,"x_min":31,"x_max":850,"o":"m 740 925 q 850 561 850 760 q 839 435 850 504 q 745 193 814 293 q 579 42 676 93 q 369 -8 482 -8 q 192 31 269 -8 q 73 142 115 69 q 31 313 31 215 q 38 396 31 360 q 123 599 58 513 q 282 733 188 686 q 486 781 376 781 q 599 751 550 781 q 669 661 649 721 q 600 883 657 779 l 425 831 l 438 900 l 564 938 q 485 1028 533 982 l 658 1028 q 701 979 674 1013 l 850 1024 l 838 954 l 740 925 m 631 385 q 636 442 636 413 q 590 567 636 524 q 475 611 544 611 q 324 556 390 611 q 238 394 257 500 q 232 336 232 367 q 279 206 232 251 q 400 161 326 161 q 547 219 482 161 q 631 385 611 276 z "},"ñ":{"ha":922,"x_min":22,"x_max":860,"o":"m 618 781 q 796 716 732 781 q 860 532 860 651 q 853 447 860 486 l 774 0 l 578 0 l 654 425 q 658 474 658 450 q 619 581 658 543 q 511 618 581 618 q 368 564 428 618 q 292 408 308 510 l 292 414 l 219 0 l 22 0 l 158 769 l 354 769 l 328 615 q 449 737 372 693 q 618 781 526 781 m 478 1029 q 528 1019 507 1029 q 576 992 549 1010 q 611 970 596 978 q 646 963 626 963 q 690 979 671 963 q 719 1028 710 996 l 819 1028 q 619 846 760 846 q 567 856 589 846 q 518 883 544 865 q 483 904 496 897 q 451 911 469 911 q 378 846 400 911 l 278 846 q 478 1029 340 1029 z "},"ò":{"ha":890,"x_min":47,"x_max":853,"o":"m 515 779 q 692 741 615 779 q 810 631 768 703 q 853 458 853 558 q 844 368 853 417 q 758 167 824 253 q 597 36 693 82 q 389 -10 500 -10 q 210 28 288 -10 q 90 140 133 67 q 47 313 47 213 q 56 401 47 354 q 142 603 76 517 q 306 734 208 689 q 515 779 403 779 m 490 610 q 341 552 408 610 q 254 385 274 494 q 249 326 249 357 q 294 202 249 244 q 410 160 340 160 q 559 217 492 160 q 646 385 626 275 q 651 443 651 413 q 606 567 651 525 q 490 610 560 610 m 633 961 l 610 828 l 317 978 l 343 1128 l 633 961 z "},"ó":{"ha":890,"x_min":47,"x_max":853,"o":"m 515 779 q 692 741 615 779 q 810 631 768 703 q 853 458 853 558 q 844 368 853 417 q 758 167 824 253 q 597 36 693 82 q 389 -10 500 -10 q 210 28 288 -10 q 90 140 133 67 q 47 313 47 213 q 56 401 47 354 q 142 603 76 517 q 306 734 208 689 q 515 779 403 779 m 490 610 q 341 552 408 610 q 254 385 274 494 q 249 326 249 357 q 294 202 249 244 q 410 160 340 160 q 559 217 492 160 q 646 385 626 275 q 651 443 651 413 q 606 567 651 525 q 490 610 560 610 m 742 978 l 396 828 l 419 961 l 769 1128 l 742 978 z "},"ô":{"ha":890,"x_min":43,"x_max":849,"o":"m 511 779 q 688 741 611 779 q 806 631 764 703 q 849 458 849 558 q 840 368 849 417 q 754 167 819 253 q 592 36 689 82 q 385 -10 496 -10 q 206 28 283 -10 q 86 140 129 67 q 43 313 43 213 q 51 401 43 354 q 138 603 72 517 q 301 734 204 689 q 511 779 399 779 m 486 610 q 337 552 404 610 q 250 385 269 494 q 244 326 244 357 q 290 202 244 244 q 406 160 336 160 q 555 217 488 160 q 642 385 622 275 q 647 443 647 413 q 601 567 647 525 q 486 610 556 610 m 528 956 l 300 838 l 324 969 l 551 1085 l 736 969 l 714 838 l 528 956 z "},"õ":{"ha":890,"x_min":56,"x_max":861,"o":"m 524 779 q 700 741 624 779 q 819 631 776 703 q 861 458 861 558 q 853 368 861 417 q 767 167 832 253 q 605 36 701 82 q 397 -10 508 -10 q 219 28 296 -10 q 99 140 142 67 q 56 313 56 213 q 64 401 56 354 q 151 603 85 517 q 314 734 217 689 q 524 779 411 779 m 499 610 q 349 552 417 610 q 263 385 282 494 q 257 326 257 357 q 303 202 257 244 q 418 160 349 160 q 567 217 500 160 q 654 385 635 275 q 660 443 660 413 q 614 567 660 525 q 499 610 568 610 m 469 1029 q 519 1019 499 1029 q 568 992 540 1010 q 603 970 588 978 q 638 963 618 963 q 682 979 663 963 q 711 1028 701 996 l 811 1028 q 611 846 751 846 q 558 856 581 846 q 510 883 536 865 q 474 904 488 897 q 443 911 461 911 q 369 846 392 911 l 269 846 q 469 1029 332 1029 z "},"ö":{"ha":890,"x_min":54,"x_max":860,"o":"m 522 779 q 699 741 622 779 q 817 631 775 703 q 860 458 860 558 q 851 368 860 417 q 765 167 831 253 q 603 36 700 82 q 396 -10 507 -10 q 217 28 294 -10 q 97 140 140 67 q 54 313 54 213 q 63 401 54 354 q 149 603 83 517 q 313 734 215 689 q 522 779 410 779 m 497 610 q 348 552 415 610 q 261 385 281 494 q 256 326 256 357 q 301 202 256 244 q 417 160 347 160 q 566 217 499 160 q 653 385 633 275 q 658 443 658 413 q 613 567 658 525 q 497 610 567 610 m 319 938 q 351 1010 319 979 q 424 1042 383 1042 q 478 1022 457 1042 q 499 971 499 1001 q 467 897 499 928 q 393 865 436 865 q 340 885 361 865 q 319 938 319 906 m 582 936 q 613 1010 582 979 q 686 1042 644 1042 q 740 1021 719 1042 q 761 968 761 1000 q 729 896 761 926 q 656 865 697 865 q 602 885 622 865 q 582 936 582 906 z "},"÷":{"ha":786,"x_min":22,"x_max":763,"o":"m 571 911 l 535 707 l 324 707 l 360 911 l 571 911 m 763 583 l 732 406 l 22 406 l 54 583 l 763 583 m 460 285 l 425 81 l 214 81 l 249 285 l 460 285 z "},"ø":{"ha":876,"x_min":-32,"x_max":907,"o":"m 782 656 q 840 458 840 575 q 832 368 840 417 q 746 167 811 253 q 584 36 681 82 q 376 -10 488 -10 q 139 67 231 -10 l 65 0 l -32 0 l 93 115 q 35 313 35 196 q 43 401 35 356 q 130 603 64 517 q 293 734 196 689 q 503 779 390 779 q 736 704 646 779 l 808 769 l 907 769 l 782 656 m 242 385 q 236 328 236 357 q 247 256 236 289 l 590 569 q 478 610 549 610 q 328 552 396 610 q 242 385 261 494 m 633 385 q 639 442 639 413 q 628 514 639 481 l 283 200 q 397 160 328 160 q 547 217 479 160 q 633 385 614 275 z "},"ù":{"ha":914,"x_min":51,"x_max":889,"o":"m 889 769 l 754 0 l 557 0 l 585 153 q 462 33 539 76 q 293 -10 385 -10 q 116 54 181 -10 q 51 236 51 118 q 60 322 51 276 l 139 769 l 333 769 l 258 344 q 254 294 254 318 q 293 188 254 225 q 401 151 332 151 q 542 203 483 151 q 619 354 601 256 l 693 769 l 889 769 m 639 961 l 615 828 l 322 978 l 349 1128 l 639 961 z "},"ú":{"ha":914,"x_min":51,"x_max":889,"o":"m 889 769 l 754 0 l 557 0 l 585 153 q 462 33 539 76 q 293 -10 385 -10 q 116 54 181 -10 q 51 236 51 118 q 60 322 51 276 l 139 769 l 333 769 l 258 344 q 254 294 254 318 q 293 188 254 225 q 401 151 332 151 q 542 203 483 151 q 619 354 601 256 l 693 769 l 889 769 m 747 978 l 401 828 l 425 961 l 775 1128 l 747 978 z "},"û":{"ha":914,"x_min":54,"x_max":892,"o":"m 892 769 l 757 0 l 560 0 l 588 153 q 465 33 542 76 q 296 -10 388 -10 q 119 54 183 -10 q 54 236 54 118 q 63 322 54 276 l 142 769 l 336 769 l 261 344 q 257 294 257 318 q 296 188 257 225 q 404 151 335 151 q 545 203 486 151 q 622 354 604 256 l 696 769 l 892 769 m 539 956 l 311 838 l 335 969 l 563 1085 l 747 969 l 725 838 l 539 956 z "},"ü":{"ha":914,"x_min":58,"x_max":896,"o":"m 896 769 l 761 0 l 564 0 l 592 153 q 469 33 546 76 q 300 -10 392 -10 q 123 54 188 -10 q 58 236 58 118 q 67 322 58 276 l 146 769 l 340 769 l 265 344 q 261 294 261 318 q 300 188 261 225 q 408 151 339 151 q 549 203 490 151 q 626 354 608 256 l 700 769 l 896 769 m 324 938 q 356 1010 324 979 q 428 1042 388 1042 q 482 1022 461 1042 q 503 971 503 1001 q 472 897 503 928 q 397 865 440 865 q 344 885 365 865 q 324 938 324 906 m 586 936 q 617 1010 586 979 q 690 1042 649 1042 q 744 1021 724 1042 q 765 968 765 1000 q 733 896 765 926 q 660 865 701 865 q 606 885 626 865 q 586 936 586 906 z "},"ý":{"ha":843,"x_min":-17,"x_max":874,"o":"m 253 769 l 371 247 l 657 769 l 874 769 l 200 -367 l -17 -367 l 226 22 l 35 769 l 253 769 m 739 978 l 393 828 l 417 961 l 767 1128 l 739 978 z "},"þ":{"ha":939,"x_min":-43,"x_max":897,"o":"m 607 778 q 819 694 740 778 q 897 469 897 611 q 890 382 897 421 q 810 170 869 258 q 666 37 751 82 q 483 -8 581 -8 q 328 33 389 -8 q 243 149 268 74 l 153 -367 l -43 -367 l 204 1028 l 399 1028 l 329 632 q 447 740 376 701 q 607 778 518 778 m 450 163 q 605 219 538 163 q 692 382 672 275 q 697 436 697 421 q 651 563 697 518 q 529 607 604 607 q 374 549 443 607 q 286 385 304 490 q 281 333 281 349 q 329 208 281 253 q 450 163 378 163 z "},"ÿ":{"ha":843,"x_min":3,"x_max":893,"o":"m 272 769 l 390 247 l 676 769 l 893 769 l 219 -367 l 3 -367 l 246 22 l 54 769 l 272 769 m 286 938 q 318 1010 286 979 q 390 1042 350 1042 q 444 1022 424 1042 q 465 971 465 1001 q 434 897 465 928 q 360 865 403 865 q 307 885 328 865 q 286 938 286 906 m 549 936 q 580 1010 549 979 q 653 1042 611 1042 q 707 1021 686 1042 q 728 968 728 1000 q 696 896 728 926 q 622 865 664 865 q 569 885 589 865 q 549 936 549 906 z "},"Ā":{"ha":978,"x_min":-57,"x_max":897,"o":"m 646 197 l 254 197 l 150 0 l -57 0 l 474 969 l 699 969 l 888 0 l 679 0 l 646 197 m 621 346 l 550 761 l 332 346 l 621 346 m 897 1228 l 874 1096 l 342 1096 l 367 1228 l 897 1228 z "},"ā":{"ha":940,"x_min":40,"x_max":918,"o":"m 451 779 q 616 733 553 779 q 694 610 679 686 l 724 769 l 918 769 l 782 0 l 588 0 l 617 161 q 496 37 574 83 q 321 -10 418 -10 q 115 71 190 -10 q 40 294 40 151 q 50 401 40 349 q 129 603 71 517 q 272 734 188 689 q 451 779 356 779 m 492 608 q 333 549 400 608 q 249 385 267 489 q 243 331 243 346 q 288 207 243 251 q 413 163 333 163 q 569 223 501 163 q 656 385 638 283 q 661 438 661 421 q 615 563 661 517 q 492 608 568 608 m 810 1017 l 786 885 l 254 885 l 279 1017 l 810 1017 z "},"Ă":{"ha":978,"x_min":-62,"x_max":882,"o":"m 640 197 l 249 197 l 144 0 l -62 0 l 468 969 l 693 969 l 882 0 l 674 0 l 640 197 m 615 346 l 544 761 l 326 346 l 615 346 m 593 1053 q 456 1099 506 1053 q 406 1228 406 1146 q 410 1281 406 1254 l 413 1297 l 510 1297 q 507 1274 507 1281 q 617 1194 507 1194 q 761 1297 743 1194 l 857 1297 l 854 1281 q 765 1114 836 1175 q 593 1053 694 1053 z "},"ă":{"ha":942,"x_min":51,"x_max":929,"o":"m 463 779 q 627 733 564 779 q 706 610 690 686 l 735 769 l 929 769 l 793 0 l 599 0 l 628 161 q 507 37 585 83 q 332 -10 429 -10 q 126 71 201 -10 q 51 294 51 151 q 61 401 51 349 q 140 603 82 517 q 283 734 199 689 q 463 779 367 779 m 503 608 q 344 549 411 608 q 260 385 278 489 q 254 331 254 346 q 299 207 254 251 q 424 163 344 163 q 581 223 513 163 q 667 385 649 283 q 672 438 672 421 q 626 563 672 517 q 503 608 579 608 m 521 842 q 383 888 433 842 q 333 1017 333 935 q 338 1069 333 1043 l 340 1086 l 438 1086 q 435 1063 435 1069 q 544 983 435 983 q 689 1086 671 983 l 785 1086 l 782 1069 q 693 903 764 964 q 521 842 622 842 z "},"Ą":{"ha":978,"x_min":-46,"x_max":921,"o":"m 921 -183 l 901 -287 l 724 -287 q 606 -256 653 -287 q 560 -164 560 -225 q 592 -61 560 -104 q 690 4 625 -18 l 657 197 l 264 197 l 161 0 l -46 0 l 485 969 l 710 969 l 896 13 l 881 -74 l 782 -74 q 724 -87 746 -74 q 697 -128 701 -101 q 709 -169 692 -154 q 763 -183 726 -183 l 921 -183 m 631 346 l 560 761 l 342 346 l 631 346 z "},"ą":{"ha":940,"x_min":51,"x_max":929,"o":"m 463 779 q 627 733 564 779 q 706 610 690 686 l 735 769 l 929 769 l 793 0 l 599 0 l 628 161 q 507 37 585 83 q 332 -10 429 -10 q 126 71 201 -10 q 51 294 51 151 q 61 401 51 349 q 140 603 82 517 q 283 734 199 689 q 463 779 367 779 m 503 608 q 344 549 411 608 q 260 385 278 489 q 254 331 254 346 q 299 207 254 251 q 424 163 344 163 q 581 223 513 163 q 667 385 649 283 q 672 438 672 421 q 626 563 672 517 q 503 608 579 608 m 796 25 l 779 -69 l 679 -69 q 617 -86 640 -69 q 594 -132 594 -103 q 612 -167 594 -154 q 660 -179 629 -179 l 819 -179 l 800 -285 l 622 -285 q 505 -253 551 -285 q 458 -158 458 -221 q 461 -126 458 -149 q 531 -13 474 -51 q 661 25 589 25 l 796 25 z "},"Ć":{"ha":1054,"x_min":51,"x_max":1025,"o":"m 622 990 q 910 896 806 990 q 1025 639 1014 801 l 818 639 q 742 763 801 717 q 588 810 683 810 q 441 771 510 810 q 324 660 372 732 q 260 490 276 588 q 253 414 253 444 q 314 238 253 303 q 476 172 375 172 q 646 218 571 172 q 767 343 721 264 l 974 343 q 768 86 906 181 q 447 -8 631 -8 q 235 40 325 -8 q 99 177 146 89 q 51 382 51 265 q 61 490 51 438 q 165 750 86 636 q 363 927 244 864 q 622 990 481 990 m 860 1189 l 514 1039 l 538 1172 l 888 1339 l 860 1189 z "},"ć":{"ha":857,"x_min":38,"x_max":819,"o":"m 492 779 q 732 699 644 779 q 819 479 819 618 l 613 479 q 572 576 610 540 q 467 611 533 611 q 326 553 388 611 q 244 385 264 496 q 239 322 239 356 q 280 200 239 242 q 386 158 321 158 q 505 194 454 158 q 579 290 556 229 l 786 290 q 624 71 738 151 q 361 -10 510 -10 q 125 74 213 -10 q 38 307 38 158 q 46 401 38 351 q 131 603 67 518 q 288 734 194 689 q 492 779 382 779 m 717 978 l 371 828 l 394 961 l 744 1128 l 717 978 z "},"Ċ":{"ha":1054,"x_min":58,"x_max":1032,"o":"m 629 990 q 917 896 813 990 q 1032 639 1021 801 l 825 639 q 749 763 808 717 q 594 810 690 810 q 448 771 517 810 q 331 660 379 732 q 267 490 283 588 q 260 414 260 444 q 321 238 260 303 q 483 172 382 172 q 653 218 578 172 q 774 343 728 264 l 981 343 q 775 86 913 181 q 454 -8 638 -8 q 242 40 332 -8 q 106 177 153 89 q 58 382 58 265 q 68 490 58 438 q 172 750 93 636 q 369 927 251 864 q 629 990 488 990 m 567 1147 q 598 1222 567 1190 q 671 1253 629 1253 q 725 1233 704 1253 q 746 1181 746 1213 q 714 1108 746 1139 q 640 1076 682 1076 q 588 1097 608 1076 q 567 1147 567 1117 z "},"ċ":{"ha":857,"x_min":46,"x_max":828,"o":"m 500 779 q 740 699 653 779 q 828 479 828 618 l 621 479 q 580 576 618 540 q 475 611 542 611 q 334 553 396 611 q 253 385 272 496 q 247 322 247 356 q 288 200 247 242 q 394 158 329 158 q 513 194 463 158 q 588 290 564 229 l 794 290 q 632 71 746 151 q 369 -10 518 -10 q 133 74 221 -10 q 46 307 46 158 q 54 401 46 351 q 139 603 75 518 q 297 734 203 689 q 500 779 390 779 m 424 936 q 455 1010 424 979 q 528 1042 486 1042 q 582 1022 561 1042 q 603 969 603 1001 q 571 897 603 928 q 497 865 539 865 q 444 885 465 865 q 424 936 424 906 z "},"Č":{"ha":1054,"x_min":54,"x_max":1028,"o":"m 625 990 q 913 896 808 990 q 1028 639 1017 801 l 821 639 q 745 763 804 717 q 590 810 686 810 q 444 771 513 810 q 327 660 375 732 q 263 490 279 588 q 256 414 256 444 q 317 238 256 303 q 479 172 378 172 q 649 218 574 172 q 769 343 724 264 l 976 343 q 771 86 908 181 q 450 -8 633 -8 q 238 40 328 -8 q 101 177 149 89 q 54 382 54 265 q 64 490 54 438 q 168 750 89 636 q 365 927 247 864 q 625 990 483 990 m 858 1163 l 633 1047 l 446 1163 l 469 1294 l 656 1176 l 882 1294 l 858 1163 z "},"č":{"ha":857,"x_min":42,"x_max":824,"o":"m 496 779 q 736 699 649 779 q 824 479 824 618 l 617 479 q 576 576 614 540 q 471 611 538 611 q 330 553 392 611 q 249 385 268 496 q 243 322 243 356 q 284 200 243 242 q 390 158 325 158 q 509 194 458 158 q 583 290 560 229 l 790 290 q 628 71 742 151 q 365 -10 514 -10 q 129 74 217 -10 q 42 307 42 158 q 50 401 42 351 q 135 603 71 518 q 292 734 199 689 q 496 779 386 779 m 715 951 l 490 836 l 303 951 l 326 1083 l 513 965 l 739 1083 l 715 951 z "},"Ď":{"ha":1010,"x_min":0,"x_max":958,"o":"m 949 492 q 842 235 922 346 q 635 62 761 124 q 349 0 508 0 l 0 0 l 172 981 l 521 981 q 844 878 731 981 q 958 599 958 776 q 949 492 958 544 m 363 175 q 622 258 521 175 q 750 492 722 342 q 757 567 757 536 q 685 747 757 685 q 474 810 613 810 l 339 810 l 226 175 l 363 175 m 842 1163 l 617 1047 l 429 1163 l 453 1294 l 639 1176 l 865 1294 l 842 1163 z "},"ď":{"ha":1086,"x_min":40,"x_max":1178,"o":"m 965 1028 l 783 0 l 588 0 l 617 161 q 496 37 574 83 q 321 -10 418 -10 q 117 73 194 -10 q 40 300 40 156 q 50 401 40 339 q 129 603 71 517 q 272 734 188 689 q 453 779 357 779 q 616 733 553 779 q 694 610 679 688 l 769 1028 l 965 1028 m 1174 1028 q 1178 960 1178 993 q 1171 878 1178 919 q 1102 738 1156 789 q 963 688 1049 688 l 976 764 q 1063 850 1049 764 l 1068 876 l 986 876 l 1013 1028 l 1174 1028 m 492 608 q 333 549 400 608 q 249 385 267 489 q 244 332 244 356 q 289 207 244 251 q 413 163 333 163 q 570 223 501 163 q 657 385 639 283 q 661 435 661 413 q 615 563 661 517 q 492 608 569 608 z "},"Đ":{"ha":1031,"x_min":7,"x_max":999,"o":"m 561 981 q 885 878 771 981 q 999 599 999 776 q 989 492 999 544 q 882 235 963 346 q 675 62 801 124 q 389 0 549 0 l 40 0 l 113 414 l 7 414 l 35 571 l 140 571 l 213 981 l 561 981 m 790 492 q 797 567 797 536 q 725 747 797 685 q 514 810 653 810 l 379 810 l 338 571 l 575 571 l 547 414 l 308 414 l 267 175 l 403 175 q 662 258 561 175 q 790 492 763 342 z "},"đ":{"ha":935,"x_min":40,"x_max":1014,"o":"m 999 854 l 935 854 l 783 0 l 588 0 l 617 161 q 496 37 574 83 q 321 -10 418 -10 q 117 73 194 -10 q 40 300 40 156 q 50 401 40 339 q 129 603 71 517 q 272 734 188 689 q 453 779 357 779 q 616 733 553 779 q 694 610 679 688 l 739 854 l 549 854 l 565 944 l 754 944 l 769 1028 l 965 1028 l 950 944 l 1014 944 l 999 854 m 657 385 q 661 435 661 413 q 615 563 661 517 q 492 608 569 608 q 333 549 400 608 q 249 385 267 489 q 244 332 244 356 q 289 207 244 251 q 413 163 333 163 q 570 223 501 163 q 657 385 639 283 z "},"Ē":{"ha":729,"x_min":6,"x_max":783,"o":"m 346 825 l 303 571 l 649 571 l 622 421 l 275 421 l 229 157 l 618 157 l 590 0 l 6 0 l 178 981 l 763 981 l 735 825 l 346 825 m 783 1228 l 760 1096 l 228 1096 l 253 1228 l 783 1228 z "},"ē":{"ha":861,"x_min":49,"x_max":829,"o":"m 508 779 q 744 700 658 779 q 829 489 829 621 q 822 414 829 458 q 804 347 814 372 l 239 347 q 236 303 236 332 q 278 185 236 222 q 388 147 319 147 q 507 181 456 147 q 581 271 558 215 l 788 271 q 630 68 742 146 q 369 -10 518 -10 q 135 72 222 -10 q 49 300 49 154 q 57 394 49 344 q 142 599 78 513 q 302 733 207 686 q 508 779 397 779 m 628 433 q 633 486 633 460 q 590 590 633 556 q 482 625 547 625 q 339 576 401 625 q 254 433 276 528 l 628 433 m 799 1017 l 775 885 l 243 885 l 268 1017 l 799 1017 z "},"Ĕ":{"ha":729,"x_min":0,"x_max":757,"o":"m 340 825 l 297 571 l 643 571 l 617 421 l 269 421 l 224 157 l 613 157 l 585 0 l 0 0 l 172 981 l 757 981 l 729 825 l 340 825 m 478 1053 q 340 1099 390 1053 q 290 1228 290 1146 q 294 1281 290 1254 l 297 1297 l 394 1297 q 392 1274 392 1281 q 501 1194 392 1194 q 646 1297 628 1194 l 742 1297 l 739 1281 q 650 1114 721 1175 q 478 1053 579 1053 z "},"ĕ":{"ha":861,"x_min":43,"x_max":824,"o":"m 503 779 q 738 700 653 779 q 824 489 824 621 q 817 414 824 458 q 799 347 808 372 l 233 347 q 231 303 231 332 q 272 185 231 222 q 382 147 314 147 q 501 181 450 147 q 575 271 553 215 l 782 271 q 624 68 736 146 q 364 -10 513 -10 q 130 72 217 -10 q 43 300 43 154 q 51 394 43 344 q 137 599 72 513 q 297 733 201 686 q 503 779 392 779 m 622 433 q 628 486 628 460 q 585 590 628 556 q 476 625 542 625 q 333 576 396 625 q 249 433 271 528 l 622 433 m 493 842 q 356 888 406 842 q 306 1017 306 935 q 310 1069 306 1043 l 313 1086 l 410 1086 q 407 1063 407 1069 q 517 983 407 983 q 661 1086 643 983 l 757 1086 l 754 1069 q 665 903 736 964 q 493 842 594 842 z "},"Ė":{"ha":729,"x_min":3,"x_max":760,"o":"m 343 825 l 300 571 l 646 571 l 619 421 l 272 421 l 226 157 l 615 157 l 588 0 l 3 0 l 175 981 l 760 981 l 732 825 l 343 825 m 413 1147 q 444 1222 413 1190 q 517 1253 475 1253 q 571 1233 550 1253 q 592 1181 592 1213 q 560 1108 592 1139 q 486 1076 528 1076 q 433 1097 454 1076 q 413 1147 413 1117 z "},"ė":{"ha":861,"x_min":46,"x_max":826,"o":"m 506 779 q 741 700 656 779 q 826 489 826 621 q 819 414 826 458 q 801 347 811 372 l 236 347 q 233 303 233 332 q 275 185 233 222 q 385 147 317 147 q 504 181 453 147 q 578 271 556 215 l 785 271 q 627 68 739 146 q 367 -10 515 -10 q 133 72 219 -10 q 46 300 46 154 q 54 394 46 344 q 140 599 75 513 q 299 733 204 686 q 506 779 394 779 m 625 433 q 631 486 631 460 q 588 590 631 556 q 479 625 544 625 q 336 576 399 625 q 251 433 274 528 l 625 433 m 428 936 q 459 1010 428 979 q 532 1042 490 1042 q 586 1022 565 1042 q 607 969 607 1001 q 575 897 607 928 q 501 865 543 865 q 449 885 469 865 q 428 936 428 906 z "},"Ę":{"ha":729,"x_min":-1,"x_max":756,"o":"m 339 825 l 296 571 l 642 571 l 615 421 l 268 421 l 222 157 l 611 157 l 583 0 l -1 0 l 171 981 l 756 981 l 728 825 l 339 825 m 597 88 l 581 -7 l 481 -7 q 419 -24 442 -7 q 396 -69 396 -40 q 413 -104 396 -92 q 461 -117 431 -117 l 621 -117 l 601 -222 l 424 -222 q 306 -190 353 -222 q 260 -96 260 -158 q 263 -64 260 -86 q 333 49 275 11 q 463 88 390 88 l 597 88 z "},"ę":{"ha":863,"x_min":58,"x_max":840,"o":"m 519 779 q 755 700 669 779 q 840 489 840 621 q 833 414 840 458 q 824 374 831 393 q 815 347 817 354 l 250 347 q 247 306 247 317 q 290 186 247 225 q 400 147 333 147 q 519 181 468 147 q 592 271 569 214 l 799 271 q 673 94 761 167 q 468 0 585 21 q 432 -32 438 -7 q 448 -69 429 -56 q 506 -83 467 -83 l 647 -83 l 629 -189 l 460 -189 q 342 -158 389 -189 q 296 -65 296 -126 q 299 -35 296 -57 l 306 0 q 124 95 190 18 q 58 296 58 172 q 67 385 58 338 q 152 595 88 506 q 312 732 217 685 q 519 779 407 779 m 639 433 q 644 486 644 460 q 601 590 644 556 q 493 625 558 625 q 351 576 413 625 q 267 433 289 528 l 639 433 z "},"Ě":{"ha":729,"x_min":0,"x_max":757,"o":"m 340 825 l 297 571 l 643 571 l 617 421 l 269 421 l 224 157 l 613 157 l 585 0 l 0 0 l 172 981 l 757 981 l 729 825 l 340 825 m 704 1163 l 479 1047 l 292 1163 l 315 1294 l 501 1176 l 728 1294 l 704 1163 z "},"ě":{"ha":861,"x_min":43,"x_max":824,"o":"m 503 779 q 738 700 653 779 q 824 489 824 621 q 817 414 824 458 q 799 347 808 372 l 233 347 q 231 303 231 332 q 272 185 231 222 q 382 147 314 147 q 501 181 450 147 q 575 271 553 215 l 782 271 q 624 68 736 146 q 364 -10 513 -10 q 130 72 217 -10 q 43 300 43 154 q 51 394 43 344 q 137 599 72 513 q 297 733 201 686 q 503 779 392 779 m 622 433 q 628 486 628 460 q 585 590 628 556 q 476 625 542 625 q 333 576 396 625 q 249 433 271 528 l 622 433 m 719 951 l 494 836 l 307 951 l 331 1083 l 517 965 l 743 1083 l 719 951 z "},"Ğ":{"ha":1067,"x_min":47,"x_max":1021,"o":"m 629 990 q 906 901 806 990 q 1021 664 1007 811 l 815 664 q 742 770 799 731 q 600 810 686 810 q 443 771 515 810 q 322 660 371 732 q 256 490 272 588 q 249 410 249 454 q 316 228 249 292 q 506 164 383 164 q 698 226 611 164 q 826 400 785 289 l 494 400 l 519 540 l 1015 540 l 983 351 q 788 91 924 190 q 456 -8 651 -8 q 237 41 329 -8 q 96 181 144 90 q 47 389 47 271 q 57 499 47 444 q 162 753 82 642 q 363 928 242 865 q 629 990 485 990 m 631 1053 q 493 1099 543 1053 q 443 1228 443 1146 q 447 1281 443 1254 l 450 1297 l 547 1297 q 544 1274 544 1281 q 654 1194 544 1194 q 799 1297 781 1194 l 894 1297 l 892 1281 q 803 1114 874 1175 q 631 1053 732 1053 z "},"ğ":{"ha":939,"x_min":-17,"x_max":901,"o":"m 304 -10 q 101 72 178 -10 q 24 299 24 154 q 33 401 24 351 q 113 603 54 518 q 256 735 171 689 q 436 781 340 781 q 599 734 536 781 q 679 610 663 688 l 707 769 l 901 769 l 765 -3 q 690 -195 746 -110 q 542 -329 633 -281 q 335 -378 451 -378 q 80 -299 169 -378 q -17 -83 -10 -219 l 176 -83 q 225 -174 183 -142 q 343 -207 267 -207 q 490 -156 428 -207 q 571 -3 553 -104 l 600 161 q 479 37 557 83 q 304 -10 401 -10 m 475 608 q 317 549 383 608 q 232 385 250 489 q 226 331 226 346 q 272 207 226 251 q 396 163 317 163 q 553 223 485 163 q 640 385 622 283 q 644 435 644 413 q 599 563 644 517 q 475 608 553 608 m 533 842 q 396 888 446 842 q 346 1017 346 935 q 350 1069 346 1043 l 353 1086 l 450 1086 q 447 1063 447 1069 q 557 983 447 983 q 701 1086 683 983 l 797 1086 l 794 1069 q 706 903 776 964 q 533 842 635 842 z "},"Ġ":{"ha":1067,"x_min":50,"x_max":1024,"o":"m 632 990 q 909 901 808 990 q 1024 664 1010 811 l 818 664 q 745 770 801 731 q 603 810 689 810 q 446 771 518 810 q 324 660 374 732 q 258 490 275 588 q 251 410 251 454 q 319 228 251 292 q 508 164 386 164 q 701 226 614 164 q 829 400 788 289 l 497 400 l 522 540 l 1018 540 l 986 351 q 790 91 926 190 q 458 -8 654 -8 q 240 41 332 -8 q 99 181 147 90 q 50 389 50 271 q 60 499 50 444 q 165 753 85 642 q 366 928 244 865 q 632 990 488 990 m 567 1147 q 598 1222 567 1190 q 671 1253 629 1253 q 725 1233 704 1253 q 746 1181 746 1213 q 714 1108 746 1139 q 640 1076 682 1076 q 588 1097 608 1076 q 567 1147 567 1117 z "},"ġ":{"ha":939,"x_min":-12,"x_max":906,"o":"m 308 -10 q 105 72 182 -10 q 28 299 28 154 q 38 401 28 351 q 117 603 58 518 q 260 735 175 689 q 440 781 344 781 q 603 734 540 781 q 683 610 667 688 l 711 769 l 906 769 l 769 -3 q 694 -195 750 -110 q 547 -329 638 -281 q 339 -378 456 -378 q 84 -299 174 -378 q -12 -83 -6 -219 l 181 -83 q 229 -174 188 -142 q 347 -207 271 -207 q 494 -156 432 -207 q 575 -3 557 -104 l 604 161 q 483 37 561 83 q 308 -10 406 -10 m 479 608 q 321 549 388 608 q 236 385 254 489 q 231 331 231 346 q 276 207 231 251 q 400 163 321 163 q 558 223 489 163 q 644 385 626 283 q 649 435 649 413 q 603 563 649 517 q 479 608 557 608 m 469 936 q 501 1010 469 979 q 574 1042 532 1042 q 628 1022 607 1042 q 649 969 649 1001 q 617 897 649 928 q 543 865 585 865 q 490 885 511 865 q 469 936 469 906 z "},"Ģ":{"ha":1071,"x_min":49,"x_max":1022,"o":"m 631 990 q 908 901 807 990 q 1022 664 1008 811 l 817 664 q 744 770 800 731 q 601 810 688 810 q 444 771 517 810 q 323 660 372 732 q 257 490 274 588 q 250 410 250 454 q 317 228 250 292 q 507 164 385 164 q 699 226 613 164 q 828 400 786 289 l 496 400 l 521 540 l 1017 540 l 985 351 q 789 91 925 190 q 457 -8 653 -8 q 238 41 331 -8 q 97 181 146 90 q 49 389 49 271 q 58 499 49 444 q 163 753 83 642 q 365 928 243 865 q 631 990 486 990 m 553 -62 q 558 -128 558 -92 q 553 -192 558 -165 q 483 -335 538 -283 q 344 -386 429 -386 l 357 -311 q 444 -218 426 -311 l 446 -206 l 369 -206 l 394 -62 l 553 -62 z "},"ģ":{"ha":939,"x_min":-17,"x_max":901,"o":"m 482 829 q 478 892 478 861 q 486 979 478 938 q 556 1119 503 1068 q 693 1169 608 1169 l 679 1093 q 593 1006 610 1093 l 589 981 l 671 981 l 643 829 l 482 829 m 304 -10 q 101 72 178 -10 q 24 299 24 154 q 33 401 24 351 q 113 603 54 518 q 256 735 171 689 q 436 781 340 781 q 599 734 536 781 q 679 610 663 688 l 707 769 l 901 769 l 765 -3 q 690 -195 746 -110 q 542 -329 633 -281 q 335 -378 451 -378 q 80 -299 169 -378 q -17 -83 -10 -219 l 176 -83 q 225 -174 183 -142 q 343 -207 267 -207 q 490 -156 428 -207 q 571 -3 553 -104 l 600 161 q 479 37 557 83 q 304 -10 401 -10 m 475 608 q 317 549 383 608 q 232 385 250 489 q 226 331 226 346 q 272 207 226 251 q 396 163 317 163 q 553 223 485 163 q 640 385 622 283 q 644 435 644 413 q 599 563 644 517 q 475 608 553 608 z "},"Ĩ":{"ha":374,"x_min":13,"x_max":588,"o":"m 381 981 l 208 0 l 13 0 l 185 981 l 381 981 m 246 1240 q 296 1231 275 1240 q 344 1203 317 1221 q 379 1181 364 1189 q 414 1174 394 1174 q 458 1190 439 1174 q 488 1239 478 1207 l 588 1239 q 388 1057 528 1057 q 335 1067 357 1057 q 286 1094 313 1076 q 251 1115 264 1108 q 219 1122 238 1122 q 146 1057 168 1122 l 46 1057 q 246 1240 108 1240 z "},"ĩ":{"ha":374,"x_min":28,"x_max":572,"o":"m 360 769 l 224 0 l 28 0 l 164 769 l 360 769 m 231 1029 q 281 1019 260 1029 q 329 992 301 1010 q 364 970 349 978 q 399 963 379 963 q 443 979 424 963 q 472 1028 463 996 l 572 1028 q 372 846 513 846 q 319 856 342 846 q 271 883 297 865 q 235 904 249 897 q 204 911 222 911 q 131 846 153 911 l 31 846 q 231 1029 93 1029 z "},"Ī":{"ha":374,"x_min":14,"x_max":597,"o":"m 382 981 l 210 0 l 14 0 l 186 981 l 382 981 m 597 1228 l 574 1096 l 42 1096 l 67 1228 l 597 1228 z "},"ī":{"ha":382,"x_min":10,"x_max":565,"o":"m 361 769 l 225 0 l 29 0 l 165 769 l 361 769 m 565 1017 l 542 885 l 10 885 l 35 1017 l 565 1017 z "},"Ĭ":{"ha":374,"x_min":8,"x_max":556,"o":"m 376 981 l 204 0 l 8 0 l 181 981 l 376 981 m 292 1053 q 154 1099 204 1053 q 104 1228 104 1146 q 108 1281 104 1254 l 111 1297 l 208 1297 q 206 1274 206 1281 q 315 1194 206 1194 q 460 1297 442 1194 l 556 1297 l 553 1281 q 464 1114 535 1175 q 292 1053 393 1053 z "},"ĭ":{"ha":374,"x_min":24,"x_max":540,"o":"m 356 769 l 219 0 l 24 0 l 160 769 l 356 769 m 276 842 q 139 888 189 842 q 89 1017 89 935 q 93 1069 89 1043 l 96 1086 l 193 1086 q 190 1063 190 1069 q 300 983 190 983 q 444 1086 426 983 l 540 1086 l 538 1069 q 449 903 519 964 q 276 842 378 842 z "},"Į":{"ha":374,"x_min":-135,"x_max":371,"o":"m 371 981 l 199 0 l 3 0 l 175 981 l 371 981 m 203 25 l 186 -69 l 86 -69 q 24 -86 47 -69 q 1 -132 1 -103 q 19 -167 1 -154 q 67 -179 36 -179 l 226 -179 l 207 -285 l 29 -285 q -88 -253 -42 -285 q -135 -158 -135 -221 q -132 -126 -135 -149 q -62 -13 -119 -51 q 68 25 -4 25 l 203 25 z "},"į":{"ha":365,"x_min":-121,"x_max":406,"o":"m 163 971 q 203 1061 163 1025 q 304 1097 243 1097 q 378 1073 351 1097 q 406 1010 406 1049 q 366 920 406 956 q 265 885 326 885 q 190 908 217 885 q 163 971 163 932 m 343 769 l 207 0 l 11 0 l 147 769 l 343 769 m 217 25 l 200 -69 l 100 -69 q 38 -86 61 -69 q 15 -132 15 -103 q 33 -167 15 -154 q 81 -179 50 -179 l 240 -179 l 221 -285 l 43 -285 q -74 -253 -28 -285 q -121 -158 -121 -221 q -118 -126 -121 -149 q -48 -13 -106 -51 q 82 25 10 25 l 217 25 z "},"İ":{"ha":374,"x_min":11,"x_max":407,"o":"m 379 981 l 207 0 l 11 0 l 183 981 l 379 981 m 228 1147 q 259 1222 228 1190 q 332 1253 290 1253 q 386 1233 365 1253 q 407 1181 407 1213 q 375 1108 407 1139 q 301 1076 343 1076 q 249 1097 269 1076 q 228 1147 228 1117 z "},"ı":{"ha":365,"x_min":17,"x_max":349,"o":"m 349 769 l 213 0 l 17 0 l 153 769 l 349 769 z "},"Ķ":{"ha":897,"x_min":-3,"x_max":965,"o":"m 465 499 l 793 0 l 556 0 l 272 449 l 193 0 l -3 0 l 169 981 l 365 981 l 288 539 l 729 981 l 965 981 l 465 499 m 482 -62 q 486 -122 486 -92 q 481 -192 486 -162 q 412 -335 465 -283 q 274 -386 358 -386 l 288 -311 q 372 -218 356 -311 l 375 -206 l 297 -206 l 324 -62 l 482 -62 z "},"ķ":{"ha":783,"x_min":15,"x_max":831,"o":"m 440 392 l 694 0 l 465 0 l 271 343 l 211 0 l 15 0 l 196 1028 l 392 1028 l 292 457 l 599 769 l 831 769 l 440 392 m 390 -62 q 396 -119 396 -86 q 389 -192 396 -154 q 320 -335 374 -283 q 182 -386 267 -386 l 196 -311 q 282 -218 265 -311 l 285 -206 l 207 -206 l 232 -62 l 390 -62 z "},"Ĺ":{"ha":642,"x_min":-4,"x_max":624,"o":"m 218 150 l 546 150 l 521 0 l -4 0 l 168 981 l 364 981 l 218 150 m 596 1189 l 250 1039 l 274 1172 l 624 1339 l 596 1189 z "},"ĺ":{"ha":367,"x_min":15,"x_max":569,"o":"m 392 1028 l 211 0 l 15 0 l 196 1028 l 392 1028 m 542 1214 l 196 1064 l 219 1197 l 569 1364 l 542 1214 z "},"Ļ":{"ha":646,"x_min":-3,"x_max":547,"o":"m 219 150 l 547 150 l 522 0 l -3 0 l 169 981 l 365 981 l 219 150 m 385 -62 q 390 -128 390 -92 q 385 -192 390 -165 q 315 -335 369 -283 q 176 -386 261 -386 l 190 -311 q 276 -218 258 -311 l 278 -206 l 201 -206 l 226 -62 l 385 -62 z "},"ļ":{"ha":374,"x_min":-8,"x_max":400,"o":"m 400 1028 l 219 0 l 24 0 l 204 1028 l 400 1028 m 200 -62 q 206 -119 206 -86 q 199 -192 206 -154 q 130 -335 183 -283 q -8 -386 76 -386 l 6 -311 q 92 -218 75 -311 l 94 -206 l 17 -206 l 42 -62 l 200 -62 z "},"Ľ":{"ha":700,"x_min":-1,"x_max":688,"o":"m 221 150 l 549 150 l 524 0 l -1 0 l 171 981 l 367 981 l 221 150 m 683 981 q 688 913 688 946 q 681 831 688 875 q 611 691 664 742 q 472 640 558 640 l 486 717 q 543 738 522 717 q 572 804 564 760 l 576 831 l 496 831 l 522 981 l 683 981 z "},"ľ":{"ha":519,"x_min":18,"x_max":628,"o":"m 394 1028 l 214 0 l 18 0 l 199 1028 l 394 1028 m 624 1028 q 628 965 628 997 q 619 878 628 919 q 551 738 604 789 q 413 688 499 688 l 426 764 q 513 850 496 764 l 517 876 l 436 876 l 463 1028 l 624 1028 z "},"Ŀ":{"ha":642,"x_min":0,"x_max":581,"o":"m 222 150 l 550 150 l 525 0 l 0 0 l 172 981 l 368 981 l 222 150 m 401 474 q 433 548 401 517 q 506 579 464 579 q 560 559 539 579 q 581 507 581 539 q 549 434 581 465 q 475 403 517 403 q 422 423 443 403 q 401 474 401 443 z "},"ŀ":{"ha":500,"x_min":11,"x_max":543,"o":"m 388 1028 l 207 0 l 11 0 l 192 1028 l 388 1028 m 364 497 q 395 572 364 540 q 468 603 426 603 q 522 583 501 603 q 543 531 543 563 q 511 458 543 489 q 438 426 479 426 q 385 447 406 426 q 364 497 364 467 z "},"Ł":{"ha":665,"x_min":-10,"x_max":576,"o":"m 576 150 l 551 0 l 26 0 l 94 392 l -10 357 l 25 550 l 129 583 l 199 981 l 394 981 l 336 650 l 499 703 l 464 511 l 303 458 l 249 150 l 576 150 z "},"ł":{"ha":385,"x_min":-11,"x_max":446,"o":"m 413 560 l 304 524 l 213 0 l 17 0 l 96 454 l -11 418 l 22 610 l 131 646 l 197 1028 l 393 1028 l 338 714 l 446 750 l 413 560 z "},"Ń":{"ha":1008,"x_min":-4,"x_max":999,"o":"m 826 0 l 631 0 l 310 667 l 192 0 l -4 0 l 168 981 l 364 981 l 685 308 l 803 981 l 999 981 l 826 0 m 826 1189 l 481 1039 l 504 1172 l 854 1339 l 826 1189 z "},"ń":{"ha":922,"x_min":22,"x_max":860,"o":"m 618 781 q 796 716 732 781 q 860 532 860 651 q 853 447 860 486 l 774 0 l 578 0 l 654 425 q 658 474 658 450 q 619 581 658 543 q 511 618 581 618 q 368 564 428 618 q 292 408 308 510 l 292 414 l 219 0 l 22 0 l 158 769 l 354 769 l 328 615 q 449 737 372 693 q 618 781 526 781 m 760 978 l 414 828 l 438 961 l 788 1128 l 760 978 z "},"Ņ":{"ha":1010,"x_min":0,"x_max":1003,"o":"m 831 0 l 635 0 l 314 667 l 196 0 l 0 0 l 172 981 l 368 981 l 689 308 l 807 981 l 1003 981 l 831 0 m 532 -62 q 538 -125 538 -90 q 532 -192 538 -164 q 462 -335 515 -283 q 324 -386 408 -386 l 338 -311 q 422 -218 408 -311 l 425 -206 l 347 -206 l 374 -62 l 532 -62 z "},"ņ":{"ha":922,"x_min":18,"x_max":856,"o":"m 614 781 q 792 716 728 781 q 856 532 856 651 q 849 447 856 486 l 769 0 l 574 0 l 650 425 q 654 474 654 450 q 615 581 654 543 q 507 618 576 618 q 364 564 424 618 q 288 408 304 510 l 288 414 l 215 0 l 18 0 l 154 769 l 350 769 l 324 615 q 445 737 368 693 q 614 781 522 781 m 507 -62 q 513 -125 513 -90 q 507 -192 513 -164 q 437 -335 490 -283 q 300 -386 383 -386 l 313 -311 q 399 -218 385 -311 l 401 -206 l 324 -206 l 349 -62 l 507 -62 z "},"Ň":{"ha":1008,"x_min":0,"x_max":1003,"o":"m 831 0 l 635 0 l 314 667 l 196 0 l 0 0 l 172 981 l 368 981 l 689 308 l 807 981 l 1003 981 l 831 0 m 826 1163 l 601 1047 l 414 1163 l 438 1294 l 624 1176 l 850 1294 l 826 1163 z "},"ň":{"ha":922,"x_min":26,"x_max":864,"o":"m 622 781 q 800 716 736 781 q 864 532 864 651 q 857 447 864 486 l 778 0 l 582 0 l 658 425 q 663 474 663 450 q 624 581 663 543 q 515 618 585 618 q 372 564 432 618 q 296 408 313 510 l 296 414 l 224 0 l 26 0 l 163 769 l 358 769 l 332 615 q 453 737 376 693 q 622 781 531 781 m 758 951 l 533 836 l 346 951 l 369 1083 l 556 965 l 782 1083 l 758 951 z "},"Ō":{"ha":1083,"x_min":53,"x_max":1039,"o":"m 610 994 q 838 942 742 994 q 987 795 935 890 q 1039 575 1039 700 q 1028 460 1039 524 q 928 216 1004 322 q 738 50 853 110 q 483 -10 622 -10 q 253 42 350 -10 q 104 189 156 94 q 53 408 53 283 q 64 526 53 463 q 163 770 88 664 q 355 935 239 876 q 610 994 471 994 m 594 814 q 375 729 468 814 q 256 501 282 644 q 249 424 249 456 q 315 240 249 307 q 499 172 382 172 q 653 210 582 172 q 772 319 724 249 q 836 485 821 390 q 843 564 843 519 q 776 747 843 681 q 594 814 710 814 m 951 1228 l 928 1096 l 396 1096 l 421 1228 l 951 1228 z "},"ō":{"ha":890,"x_min":57,"x_max":863,"o":"m 525 779 q 701 741 625 779 q 820 631 778 703 q 863 458 863 558 q 854 368 863 417 q 768 167 833 253 q 606 36 703 82 q 399 -10 510 -10 q 220 28 297 -10 q 100 140 143 67 q 57 313 57 213 q 65 401 57 354 q 152 603 86 517 q 315 734 218 689 q 525 779 413 779 m 500 610 q 351 552 418 610 q 264 385 283 494 q 258 326 258 357 q 304 202 258 244 q 419 160 350 160 q 569 217 501 160 q 656 385 636 275 q 661 443 661 413 q 615 567 661 525 q 500 610 569 610 m 819 1017 l 796 885 l 264 885 l 289 1017 l 819 1017 z "},"Ŏ":{"ha":1083,"x_min":40,"x_max":1026,"o":"m 597 994 q 826 942 729 994 q 974 795 922 890 q 1026 575 1026 700 q 1015 460 1026 524 q 916 216 992 322 q 725 50 840 110 q 471 -10 610 -10 q 240 42 338 -10 q 92 189 143 94 q 40 408 40 283 q 51 526 40 463 q 151 770 75 664 q 342 935 226 876 q 597 994 458 994 m 582 814 q 363 729 456 814 q 243 501 269 644 q 236 424 236 456 q 303 240 236 307 q 486 172 369 172 q 640 210 569 172 q 760 319 711 249 q 824 485 808 390 q 831 564 831 519 q 764 747 831 681 q 582 814 697 814 m 639 1053 q 501 1099 551 1053 q 451 1228 451 1146 q 456 1281 451 1254 l 458 1297 l 556 1297 q 553 1274 553 1281 q 663 1194 553 1194 q 807 1297 789 1194 l 903 1297 l 900 1281 q 811 1114 882 1175 q 639 1053 740 1053 z "},"ŏ":{"ha":890,"x_min":43,"x_max":849,"o":"m 511 779 q 688 741 611 779 q 806 631 764 703 q 849 458 849 558 q 840 368 849 417 q 754 167 819 253 q 592 36 689 82 q 385 -10 496 -10 q 206 28 283 -10 q 86 140 129 67 q 43 313 43 213 q 51 401 43 354 q 138 603 72 517 q 301 734 204 689 q 511 779 399 779 m 486 610 q 337 552 404 610 q 250 385 269 494 q 244 326 244 357 q 290 202 244 244 q 406 160 336 160 q 555 217 488 160 q 642 385 622 275 q 647 443 647 413 q 601 567 647 525 q 486 610 556 610 m 507 842 q 369 888 419 842 q 319 1017 319 935 q 324 1069 319 1043 l 326 1086 l 424 1086 q 421 1063 421 1069 q 531 983 421 983 q 675 1086 657 983 l 771 1086 l 768 1069 q 679 903 750 964 q 507 842 608 842 z "},"Ő":{"ha":1083,"x_min":39,"x_max":1025,"o":"m 596 994 q 824 942 728 994 q 973 795 921 890 q 1025 575 1025 700 q 1014 460 1025 524 q 915 216 990 322 q 724 50 839 110 q 469 -10 608 -10 q 239 42 336 -10 q 90 189 142 94 q 39 408 39 283 q 50 526 39 463 q 149 770 74 664 q 341 935 225 876 q 596 994 457 994 m 581 814 q 361 729 454 814 q 242 501 268 644 q 235 424 235 456 q 301 240 235 307 q 485 172 368 172 q 639 210 568 172 q 758 319 710 249 q 822 485 807 390 q 829 564 829 519 q 763 747 829 681 q 581 814 696 814 m 563 1046 l 440 1046 l 588 1307 l 740 1307 l 563 1046 m 808 1046 l 686 1046 l 857 1307 l 1010 1307 l 808 1046 z "},"ő":{"ha":890,"x_min":50,"x_max":896,"o":"m 518 779 q 694 741 618 779 q 813 631 771 703 q 856 458 856 558 q 847 368 856 417 q 761 167 826 253 q 599 36 696 82 q 392 -10 503 -10 q 213 28 290 -10 q 93 140 136 67 q 50 313 50 213 q 58 401 50 354 q 145 603 79 517 q 308 734 211 689 q 518 779 406 779 m 493 610 q 344 552 411 610 q 257 385 276 494 q 251 326 251 357 q 297 202 251 244 q 413 160 343 160 q 562 217 494 160 q 649 385 629 275 q 654 443 654 413 q 608 567 654 525 q 493 610 563 610 m 449 835 l 326 835 l 474 1096 l 626 1096 l 449 835 m 694 835 l 572 835 l 743 1096 l 896 1096 l 694 835 z "},"Œ":{"ha":1489,"x_min":50,"x_max":1519,"o":"m 1058 571 l 1406 571 l 1379 421 l 1033 421 l 986 157 l 1374 157 l 1346 0 l 763 0 l 792 164 q 643 35 736 82 q 447 -14 550 -12 q 238 37 328 -14 q 99 181 147 88 q 50 394 50 274 q 60 507 50 453 q 162 760 85 650 q 356 933 239 871 q 617 994 474 994 q 801 947 722 994 q 907 815 879 899 l 935 981 l 1519 981 l 1492 825 l 1104 825 l 1058 571 m 493 167 q 719 254 624 167 q 840 490 814 342 q 847 567 847 535 q 783 748 847 682 q 607 814 718 814 q 450 776 522 814 q 329 666 378 738 q 264 499 281 594 q 257 417 257 463 q 320 233 257 300 q 493 167 383 167 z "},"œ":{"ha":1454,"x_min":33,"x_max":1414,"o":"m 1094 779 q 1329 700 1244 779 q 1414 489 1414 621 q 1407 414 1414 458 q 1389 347 1401 382 l 825 347 q 822 301 822 331 q 865 185 822 222 q 974 147 907 147 q 1092 181 1040 147 q 1165 271 1143 215 l 1372 271 q 1282 126 1343 190 q 1135 26 1221 63 q 954 -10 1050 -10 q 790 30 858 -10 q 690 143 722 69 q 549 31 635 71 q 367 -10 464 -10 q 192 27 268 -10 q 75 134 117 64 q 33 299 33 204 q 42 385 33 339 q 131 595 64 506 q 296 732 197 685 q 507 779 394 779 q 674 739 603 779 q 775 626 744 699 q 915 740 832 700 q 1094 779 997 779 m 1214 433 q 1219 485 1219 457 q 1176 590 1219 554 q 1067 625 1133 625 q 925 576 988 625 q 840 433 863 528 l 1214 433 m 632 385 q 638 443 638 413 q 592 567 638 525 q 476 610 546 610 q 327 552 394 610 q 240 385 260 494 q 235 326 235 357 q 281 202 235 244 q 397 160 326 160 q 546 217 479 160 q 632 385 613 275 z "},"Ŕ":{"ha":856,"x_min":-4,"x_max":844,"o":"m 542 981 q 768 915 692 981 q 844 739 844 849 q 839 678 844 706 q 744 492 819 567 q 547 392 668 417 l 724 0 l 507 0 l 344 382 l 258 382 l 192 0 l -4 0 l 168 981 l 542 981 m 638 665 q 640 701 640 678 q 497 815 640 815 l 336 815 l 282 517 l 443 517 q 638 665 611 517 m 776 1189 l 431 1039 l 454 1172 l 804 1339 l 776 1189 z "},"ŕ":{"ha":576,"x_min":22,"x_max":647,"o":"m 328 622 q 462 738 383 696 q 629 781 540 781 l 592 571 l 535 571 q 285 371 319 571 l 219 0 l 22 0 l 158 769 l 354 769 l 328 622 m 619 978 l 274 828 l 297 961 l 647 1128 l 619 978 z "},"Ŗ":{"ha":882,"x_min":-28,"x_max":821,"o":"m 518 981 q 744 915 668 981 q 821 739 821 849 q 815 678 821 706 q 720 492 796 567 q 524 392 644 417 l 700 0 l 483 0 l 321 382 l 235 382 l 168 0 l -28 0 l 144 981 l 518 981 m 614 665 q 617 701 617 678 q 474 815 617 815 l 313 815 l 258 517 l 419 517 q 614 665 588 517 m 451 -62 q 457 -125 457 -90 q 451 -192 457 -164 q 382 -335 436 -283 q 243 -386 328 -386 l 257 -311 q 343 -218 326 -311 l 344 -206 l 268 -206 l 293 -62 l 451 -62 z "},"ŗ":{"ha":576,"x_min":8,"x_max":624,"o":"m 322 622 q 456 738 378 696 q 624 781 535 781 l 586 571 l 529 571 q 279 371 314 571 l 214 0 l 17 0 l 153 769 l 349 769 l 322 622 m 217 -62 q 222 -122 222 -89 q 215 -192 222 -154 q 147 -335 200 -283 q 8 -386 93 -386 l 22 -311 q 108 -218 92 -311 l 110 -206 l 33 -206 l 58 -62 l 217 -62 z "},"Ř":{"ha":856,"x_min":0,"x_max":849,"o":"m 546 981 q 772 915 696 981 q 849 739 849 849 q 843 678 849 706 q 748 492 824 567 q 551 392 672 417 l 728 0 l 511 0 l 349 382 l 263 382 l 196 0 l 0 0 l 172 981 l 546 981 m 642 665 q 644 701 644 678 q 501 815 644 815 l 340 815 l 286 517 l 447 517 q 642 665 615 517 m 775 1163 l 550 1047 l 363 1163 l 386 1294 l 572 1176 l 799 1294 l 775 1163 z "},"ř":{"ha":576,"x_min":26,"x_max":642,"o":"m 332 622 q 466 738 388 696 q 633 781 544 781 l 596 571 l 539 571 q 289 371 324 571 l 224 0 l 26 0 l 163 769 l 358 769 l 332 622 m 618 951 l 393 836 l 206 951 l 229 1083 l 415 965 l 642 1083 l 618 951 z "},"Ś":{"ha":815,"x_min":14,"x_max":774,"o":"m 713 238 q 656 115 701 171 q 534 24 610 58 q 358 -10 458 -10 q 172 28 250 -10 q 54 131 94 65 q 15 283 14 197 l 222 283 q 254 184 218 224 q 361 144 290 144 q 467 184 428 144 q 506 282 506 224 q 482 351 506 322 q 423 399 458 381 q 326 442 388 417 q 199 501 247 474 q 117 578 151 529 q 83 701 83 626 q 89 767 83 735 q 203 933 107 871 q 438 994 300 994 q 686 919 603 994 q 774 719 769 843 l 563 719 q 532 806 564 772 q 435 840 500 840 q 336 808 375 840 q 297 715 297 775 q 320 651 297 676 q 376 608 343 625 q 471 567 410 592 q 599 509 550 536 q 684 432 649 482 q 719 304 719 382 q 713 238 719 279 m 733 1189 l 388 1039 l 411 1172 l 761 1339 l 733 1189 z "},"ś":{"ha":758,"x_min":24,"x_max":714,"o":"m 389 779 q 626 709 544 779 q 714 519 707 639 l 522 519 q 482 609 521 576 q 372 642 443 642 q 287 618 319 642 q 254 554 254 594 q 294 493 254 514 q 417 450 333 472 q 548 405 497 426 q 635 342 599 383 q 672 232 672 300 q 667 179 672 206 q 571 42 650 94 q 360 -10 492 -10 q 117 59 208 -10 q 24 250 26 128 l 215 250 q 255 161 211 194 q 376 128 299 128 q 461 153 432 128 q 490 217 490 178 q 469 267 490 247 q 415 299 447 288 q 324 328 383 311 q 196 370 244 350 q 113 431 147 390 q 78 536 78 471 q 82 586 78 560 q 177 726 97 672 q 389 779 257 779 m 674 978 l 328 828 l 351 961 l 701 1128 l 674 978 z "},"Ş":{"ha":817,"x_min":21,"x_max":781,"o":"m 719 238 q 663 115 708 171 q 541 24 617 58 q 365 -10 465 -10 q 179 28 257 -10 q 61 131 101 65 q 22 283 21 197 l 229 283 q 261 184 225 224 q 368 144 297 144 q 474 184 435 144 q 513 282 513 224 q 489 351 513 322 q 430 399 465 381 q 333 442 394 417 q 206 501 254 474 q 124 578 158 529 q 90 701 90 626 q 96 767 90 735 q 210 933 114 871 q 444 994 307 994 q 693 919 610 994 q 781 719 776 843 l 569 719 q 539 806 571 772 q 442 840 507 840 q 343 808 382 840 q 304 715 304 775 q 327 651 304 676 q 383 608 350 625 q 478 567 417 592 q 606 509 557 536 q 691 432 656 482 q 726 304 726 382 q 719 238 726 279 m 403 -72 q 512 -99 467 -69 q 557 -190 557 -128 q 554 -222 557 -211 q 483 -332 542 -297 q 346 -367 424 -367 l 165 -367 l 183 -261 l 342 -261 q 424 -207 424 -261 q 408 -177 424 -189 q 360 -165 392 -165 l 268 -165 l 299 10 l 417 10 l 403 -72 z "},"ş":{"ha":758,"x_min":28,"x_max":718,"o":"m 393 779 q 630 709 549 779 q 718 519 711 639 l 526 519 q 486 609 525 576 q 376 642 447 642 q 291 618 324 642 q 258 554 258 594 q 298 493 258 514 q 421 450 338 472 q 552 405 501 426 q 640 342 603 383 q 676 232 676 300 q 671 179 676 206 q 575 42 654 94 q 364 -10 496 -10 q 122 59 213 -10 q 28 250 31 128 l 219 250 q 259 161 215 194 q 381 128 303 128 q 465 153 436 128 q 494 217 494 178 q 473 267 494 247 q 419 299 451 288 q 328 328 388 311 q 200 370 249 350 q 117 431 151 390 q 82 536 82 471 q 86 586 82 560 q 181 726 101 672 q 393 779 261 779 m 413 -72 q 522 -99 476 -69 q 567 -190 567 -128 q 564 -222 567 -211 q 492 -332 551 -297 q 356 -367 433 -367 l 175 -367 l 193 -261 l 351 -261 q 433 -207 433 -261 q 417 -177 433 -189 q 369 -165 401 -165 l 278 -165 l 308 10 l 426 10 l 413 -72 z "},"Š":{"ha":817,"x_min":19,"x_max":779,"o":"m 718 238 q 661 115 707 171 q 540 24 615 58 q 364 -10 464 -10 q 178 28 256 -10 q 60 131 100 65 q 21 283 19 197 l 228 283 q 260 184 224 224 q 367 144 296 144 q 472 184 433 144 q 511 282 511 224 q 488 351 511 322 q 428 399 464 381 q 332 442 393 417 q 205 501 253 474 q 123 578 157 529 q 89 701 89 626 q 94 767 89 735 q 209 933 113 871 q 443 994 306 994 q 692 919 608 994 q 779 719 775 843 l 568 719 q 538 806 569 772 q 440 840 506 840 q 342 808 381 840 q 303 715 303 775 q 326 651 303 676 q 382 608 349 625 q 476 567 415 592 q 605 509 556 536 q 690 432 654 482 q 725 304 725 382 q 718 238 725 279 m 732 1163 l 507 1047 l 319 1163 l 343 1294 l 529 1176 l 756 1294 l 732 1163 z "},"š":{"ha":758,"x_min":28,"x_max":718,"o":"m 393 779 q 630 709 549 779 q 718 519 711 639 l 526 519 q 486 609 525 576 q 376 642 447 642 q 291 618 324 642 q 258 554 258 594 q 298 493 258 514 q 421 450 338 472 q 552 405 501 426 q 640 342 603 383 q 676 232 676 300 q 671 179 676 206 q 575 42 654 94 q 364 -10 496 -10 q 122 59 213 -10 q 28 250 31 128 l 219 250 q 259 161 215 194 q 381 128 303 128 q 465 153 436 128 q 494 217 494 178 q 473 267 494 247 q 419 299 451 288 q 328 328 388 311 q 200 370 249 350 q 117 431 151 390 q 82 536 82 471 q 86 586 82 560 q 181 726 101 672 q 393 779 261 779 m 672 951 l 447 836 l 260 951 l 283 1083 l 469 965 l 696 1083 l 672 951 z "},"Ţ":{"ha":775,"x_min":78,"x_max":842,"o":"m 842 981 l 813 825 l 543 825 l 399 7 q 490 -99 490 -25 q 488 -125 490 -106 q 415 -237 475 -200 q 276 -274 356 -274 l 101 -274 l 121 -169 l 279 -169 q 356 -119 346 -169 q 296 -72 363 -72 l 189 -72 l 346 825 l 78 825 l 106 981 l 842 981 z "},"ţ":{"ha":551,"x_min":50,"x_max":554,"o":"m 294 268 q 292 233 292 256 q 311 183 292 197 q 374 168 331 168 l 450 168 l 419 0 l 321 0 l 307 -72 q 418 -99 372 -69 q 464 -187 464 -128 q 461 -218 464 -196 q 388 -330 447 -293 q 250 -367 328 -367 l 71 -367 l 89 -261 l 247 -261 q 328 -211 318 -261 q 317 -178 332 -190 q 265 -165 301 -165 l 174 -165 l 206 15 q 90 190 90 53 q 99 271 90 228 l 158 604 l 50 604 l 79 769 l 188 769 l 221 960 l 417 960 l 383 769 l 554 769 l 525 604 l 354 604 l 294 268 z "},"Ť":{"ha":775,"x_min":75,"x_max":839,"o":"m 839 981 l 811 825 l 540 825 l 396 0 l 200 0 l 344 825 l 75 825 l 103 981 l 839 981 m 710 1163 l 485 1047 l 297 1163 l 321 1294 l 507 1176 l 733 1294 l 710 1163 z "},"ť":{"ha":543,"x_min":39,"x_max":660,"o":"m 654 1153 q 660 1082 660 1100 q 653 1011 660 1050 q 585 883 638 928 q 447 838 533 838 l 461 914 q 542 971 531 914 l 547 1001 l 467 1001 l 493 1153 l 654 1153 m 372 769 l 542 769 l 513 604 l 342 604 l 282 268 q 279 235 279 256 q 299 183 279 197 q 363 168 318 168 l 439 168 l 408 0 l 306 0 q 138 44 196 0 q 79 190 79 89 q 88 271 79 228 l 146 604 l 39 604 l 68 769 l 175 769 l 208 960 l 406 960 l 372 769 z "},"Ũ":{"ha":949,"x_min":63,"x_max":956,"o":"m 368 981 l 267 406 q 260 335 260 364 q 301 215 260 256 q 422 175 343 175 q 578 233 517 175 q 660 406 639 290 l 761 981 l 956 981 l 856 406 q 763 176 831 269 q 597 36 694 82 q 386 -10 500 -10 q 149 68 236 -10 q 63 297 63 146 q 72 406 63 351 l 174 981 l 368 981 m 525 1240 q 575 1231 554 1240 q 624 1203 596 1221 q 658 1181 643 1189 q 693 1174 674 1174 q 738 1190 718 1174 q 767 1239 757 1207 l 867 1239 q 667 1057 807 1057 q 614 1067 636 1057 q 565 1094 592 1076 q 530 1115 543 1108 q 499 1122 517 1122 q 425 1057 447 1122 l 325 1057 q 525 1240 388 1240 z "},"ũ":{"ha":914,"x_min":60,"x_max":897,"o":"m 897 769 l 763 0 l 565 0 l 593 153 q 470 33 547 76 q 301 -10 393 -10 q 124 54 189 -10 q 60 236 60 118 q 68 322 60 276 l 147 769 l 342 769 l 267 344 q 263 294 263 318 q 301 188 263 225 q 410 151 340 151 q 551 203 492 151 q 628 354 610 256 l 701 769 l 897 769 m 474 1029 q 524 1019 503 1029 q 572 992 544 1010 q 607 970 592 978 q 642 963 622 963 q 686 979 667 963 q 715 1028 706 996 l 815 1028 q 615 846 756 846 q 563 856 585 846 q 514 883 540 865 q 478 904 492 897 q 447 911 465 911 q 374 846 396 911 l 274 846 q 474 1029 336 1029 z "},"Ū":{"ha":949,"x_min":64,"x_max":957,"o":"m 369 981 l 268 406 q 261 335 261 364 q 303 215 261 256 q 424 175 344 175 q 579 233 518 175 q 661 406 640 290 l 763 981 l 957 981 l 857 406 q 764 176 832 269 q 599 36 696 82 q 388 -10 501 -10 q 151 68 238 -10 q 64 297 64 146 q 74 406 64 351 l 175 981 l 369 981 m 876 1228 l 853 1096 l 321 1096 l 346 1228 l 876 1228 z "},"ū":{"ha":914,"x_min":61,"x_max":899,"o":"m 899 769 l 764 0 l 567 0 l 594 153 q 472 33 549 76 q 303 -10 394 -10 q 126 54 190 -10 q 61 236 61 118 q 69 322 61 276 l 149 769 l 343 769 l 268 344 q 264 294 264 318 q 303 188 264 225 q 411 151 342 151 q 552 203 493 151 q 629 354 611 256 l 703 769 l 899 769 m 825 1017 l 801 885 l 269 885 l 294 1017 l 825 1017 z "},"Ŭ":{"ha":949,"x_min":58,"x_max":951,"o":"m 364 981 l 263 406 q 256 335 256 364 q 297 215 256 256 q 418 175 339 175 q 574 233 513 175 q 656 406 635 290 l 757 981 l 951 981 l 851 406 q 758 176 826 269 q 593 36 690 82 q 382 -10 496 -10 q 145 68 232 -10 q 58 297 58 146 q 68 406 58 351 l 169 981 l 364 981 m 571 1053 q 433 1099 483 1053 q 383 1228 383 1146 q 388 1281 383 1254 l 390 1297 l 488 1297 q 485 1274 485 1281 q 594 1194 485 1194 q 739 1297 721 1194 l 835 1297 l 832 1281 q 743 1114 814 1175 q 571 1053 672 1053 z "},"ŭ":{"ha":914,"x_min":54,"x_max":892,"o":"m 892 769 l 757 0 l 560 0 l 588 153 q 465 33 542 76 q 296 -10 388 -10 q 119 54 183 -10 q 54 236 54 118 q 63 322 54 276 l 142 769 l 336 769 l 261 344 q 257 294 257 318 q 296 188 257 225 q 404 151 335 151 q 545 203 486 151 q 622 354 604 256 l 696 769 l 892 769 m 518 842 q 381 888 431 842 q 331 1017 331 935 q 335 1069 331 1043 l 338 1086 l 435 1086 q 432 1063 432 1069 q 542 983 432 983 q 686 1086 668 983 l 782 1086 l 779 1069 q 690 903 761 964 q 518 842 619 842 z "},"Ů":{"ha":949,"x_min":51,"x_max":944,"o":"m 357 981 l 256 406 q 249 335 249 364 q 290 215 249 256 q 411 175 332 175 q 567 233 506 175 q 649 406 628 290 l 750 981 l 944 981 l 844 406 q 751 176 819 269 q 586 36 683 82 q 375 -10 489 -10 q 138 68 225 -10 q 51 297 51 146 q 61 406 51 351 l 163 981 l 357 981 m 614 1367 q 711 1333 674 1367 q 749 1240 749 1300 q 722 1139 749 1183 q 652 1071 696 1094 q 558 1047 608 1047 q 461 1081 499 1047 q 424 1175 424 1115 q 451 1276 424 1232 q 522 1343 478 1319 q 614 1367 565 1367 m 600 1286 q 535 1259 563 1286 q 508 1189 508 1232 q 526 1144 508 1161 q 572 1128 544 1128 q 638 1155 610 1128 q 665 1224 665 1182 q 647 1269 665 1253 q 600 1286 629 1286 z "},"ů":{"ha":914,"x_min":49,"x_max":886,"o":"m 886 769 l 751 0 l 554 0 l 582 153 q 459 33 536 76 q 290 -10 382 -10 q 113 54 178 -10 q 49 236 49 118 q 57 322 49 276 l 136 769 l 331 769 l 256 344 q 251 294 251 318 q 290 188 251 225 q 399 151 329 151 q 540 203 481 151 q 617 354 599 256 l 690 769 l 886 769 m 561 1156 q 658 1122 621 1156 q 696 1029 696 1089 q 669 928 696 972 q 599 860 643 883 q 506 836 556 836 q 408 870 446 836 q 371 964 371 904 q 398 1065 371 1021 q 469 1132 425 1108 q 561 1156 513 1156 m 547 1075 q 483 1048 510 1075 q 456 978 456 1021 q 474 933 456 950 q 519 917 492 917 q 585 944 557 917 q 613 1013 613 971 q 594 1058 613 1042 q 547 1075 576 1075 z "},"Ű":{"ha":949,"x_min":56,"x_max":949,"o":"m 361 981 l 260 406 q 253 335 253 364 q 294 215 253 256 q 415 175 336 175 q 571 233 510 175 q 653 406 632 290 l 754 981 l 949 981 l 849 406 q 756 176 824 269 q 590 36 688 82 q 379 -10 493 -10 q 142 68 229 -10 q 56 297 56 146 q 65 406 56 351 l 167 981 l 361 981 m 446 1046 l 324 1046 l 471 1307 l 624 1307 l 446 1046 m 692 1046 l 569 1046 l 740 1307 l 893 1307 l 692 1046 z "},"ű":{"ha":914,"x_min":54,"x_max":892,"o":"m 892 769 l 757 0 l 560 0 l 588 153 q 465 33 542 76 q 296 -10 388 -10 q 119 54 183 -10 q 54 236 54 118 q 63 322 54 276 l 142 769 l 336 769 l 261 344 q 257 294 257 318 q 296 188 257 225 q 404 151 335 151 q 545 203 486 151 q 622 354 604 256 l 696 769 l 892 769 m 393 835 l 271 835 l 418 1096 l 571 1096 l 393 835 m 639 835 l 517 835 l 688 1096 l 840 1096 l 639 835 z "},"Ų":{"ha":949,"x_min":63,"x_max":956,"o":"m 368 981 l 267 406 q 260 335 260 364 q 301 215 260 256 q 422 175 343 175 q 576 231 514 175 q 658 406 639 286 l 761 981 l 956 981 l 854 406 q 722 131 824 232 q 485 4 619 29 q 400 -67 400 -10 q 417 -99 400 -87 q 468 -111 435 -111 l 617 -111 l 599 -215 l 414 -215 q 308 -182 350 -215 q 265 -89 265 -149 q 268 -57 265 -68 q 281 -24 271 -39 q 307 -1 292 -8 q 129 99 196 21 q 63 310 63 178 q 71 406 63 354 l 174 981 l 368 981 z "},"ų":{"ha":914,"x_min":44,"x_max":882,"o":"m 882 769 l 747 0 l 550 0 l 578 153 q 455 33 532 76 q 286 -10 378 -10 q 109 54 174 -10 q 44 236 44 118 q 53 322 44 276 l 132 769 l 326 769 l 251 344 q 247 294 247 318 q 286 188 247 225 q 394 151 325 151 q 535 203 476 151 q 613 354 594 256 l 686 769 l 882 769 m 750 25 l 733 -69 l 633 -69 q 572 -86 594 -69 q 549 -132 549 -103 q 566 -167 549 -154 q 614 -179 583 -179 l 774 -179 l 754 -285 l 576 -285 q 459 -253 506 -285 q 413 -158 413 -221 q 415 -126 413 -149 q 485 -13 428 -51 q 615 25 543 25 l 750 25 z "},"Ŵ":{"ha":1419,"x_min":128,"x_max":1458,"o":"m 1458 981 l 1046 0 l 804 0 l 746 711 l 436 0 l 196 0 l 128 981 l 340 981 l 356 218 l 685 981 l 900 981 l 961 221 l 1246 981 l 1458 981 m 828 1167 l 600 1049 l 624 1181 l 851 1296 l 1036 1181 l 1014 1049 l 828 1167 z "},"ŵ":{"ha":1199,"x_min":68,"x_max":1247,"o":"m 1247 769 l 904 0 l 688 0 l 619 560 l 353 0 l 136 0 l 68 769 l 263 769 l 283 175 l 558 769 l 765 769 l 833 175 l 1064 769 l 1247 769 m 689 956 l 461 838 l 485 969 l 713 1085 l 897 969 l 875 838 l 689 956 z "},"Ŷ":{"ha":896,"x_min":100,"x_max":963,"o":"m 963 981 l 518 343 l 458 0 l 261 0 l 321 343 l 100 981 l 325 981 l 457 551 l 742 981 l 963 981 m 565 1167 l 338 1049 l 361 1181 l 589 1296 l 774 1181 l 751 1049 l 565 1167 z "},"ŷ":{"ha":844,"x_min":-1,"x_max":889,"o":"m 268 769 l 386 247 l 672 769 l 889 769 l 215 -367 l -1 -367 l 242 22 l 50 769 l 268 769 m 501 956 l 274 838 l 297 969 l 525 1085 l 710 969 l 688 838 l 501 956 z "},"Ÿ":{"ha":896,"x_min":103,"x_max":965,"o":"m 965 981 l 521 343 l 461 0 l 264 0 l 324 343 l 103 981 l 328 981 l 460 551 l 744 981 l 965 981 m 350 1149 q 382 1222 350 1190 q 454 1253 414 1253 q 508 1233 488 1253 q 529 1182 529 1213 q 498 1108 529 1139 q 424 1076 467 1076 q 371 1097 392 1076 q 350 1149 350 1117 m 613 1147 q 644 1222 613 1190 q 717 1253 675 1253 q 771 1232 750 1253 q 792 1179 792 1211 q 760 1107 792 1138 q 686 1076 728 1076 q 633 1097 653 1076 q 613 1147 613 1117 z "},"Ź":{"ha":796,"x_min":-32,"x_max":808,"o":"m 213 158 l 669 158 l 642 0 l -32 0 l -6 150 l 561 824 l 119 824 l 147 981 l 808 981 l 782 831 l 213 158 m 721 1189 l 375 1039 l 399 1172 l 749 1339 l 721 1189 z "},"ź":{"ha":658,"x_min":-32,"x_max":682,"o":"m 211 164 l 589 164 l 558 0 l -32 0 l -4 156 l 429 607 l 83 607 l 113 769 l 682 769 l 654 615 l 211 164 m 608 978 l 263 828 l 286 961 l 636 1128 l 608 978 z "},"Ż":{"ha":794,"x_min":-25,"x_max":815,"o":"m 219 158 l 676 158 l 649 0 l -25 0 l 1 150 l 568 824 l 126 824 l 154 981 l 815 981 l 789 831 l 219 158 m 429 1147 q 460 1222 429 1190 q 533 1253 492 1253 q 588 1233 567 1253 q 608 1181 608 1213 q 576 1108 608 1139 q 503 1076 544 1076 q 450 1097 471 1076 q 429 1147 429 1117 z "},"ż":{"ha":658,"x_min":-33,"x_max":681,"o":"m 210 164 l 588 164 l 557 0 l -33 0 l -6 156 l 428 607 l 82 607 l 111 769 l 681 769 l 653 615 l 210 164 m 317 936 q 348 1010 317 979 q 421 1042 379 1042 q 475 1022 454 1042 q 496 969 496 1001 q 464 897 496 928 q 390 865 432 865 q 338 885 358 865 q 317 936 317 906 z "},"Ž":{"ha":796,"x_min":-28,"x_max":813,"o":"m 217 158 l 674 158 l 646 0 l -28 0 l -1 150 l 565 824 l 124 824 l 151 981 l 813 981 l 786 831 l 217 158 m 719 1163 l 494 1047 l 307 1163 l 331 1294 l 517 1176 l 743 1294 l 719 1163 z "},"ž":{"ha":658,"x_min":-28,"x_max":686,"o":"m 215 164 l 593 164 l 563 0 l -28 0 l 0 156 l 433 607 l 88 607 l 117 769 l 686 769 l 658 615 l 215 164 m 624 951 l 399 836 l 211 951 l 235 1083 l 421 965 l 647 1083 l 624 951 z "},"ƒ":{"ha":467,"x_min":-196,"x_max":629,"o":"m 583 911 q 480 888 518 911 q 428 813 442 865 l 415 769 l 554 769 l 508 606 l 369 606 l 169 -100 q 53 -280 133 -226 q -153 -333 -28 -333 l -196 -333 l -151 -165 l -106 -165 q -56 -151 -74 -165 q -26 -100 -37 -136 l 174 606 l 92 606 l 136 769 l 219 769 l 232 813 q 369 1015 271 950 q 629 1079 467 1079 l 583 911 z "},"Ǽ":{"ha":1286,"x_min":-87,"x_max":1310,"o":"m 903 825 l 858 574 l 1196 574 l 1169 424 l 832 424 l 785 157 l 1165 157 l 1138 0 l 561 0 l 594 189 l 260 189 l 126 0 l -87 0 l 608 981 l 1310 981 l 1282 825 l 903 825 m 621 338 l 706 818 l 365 338 l 621 338 m 1142 1189 l 796 1039 l 819 1172 l 1169 1339 l 1142 1189 z "},"ǽ":{"ha":1508,"x_min":46,"x_max":1476,"o":"m 1197 779 q 1403 702 1329 779 q 1476 497 1476 625 q 1468 414 1476 458 q 1450 347 1460 372 l 854 347 q 853 313 853 335 q 898 187 853 228 q 1019 146 943 146 q 1148 179 1093 146 q 1226 271 1203 213 l 1433 271 q 1287 69 1389 147 q 1057 -10 1185 -10 q 894 35 958 -10 q 815 161 829 79 l 786 0 l 592 0 l 621 161 q 500 37 578 83 q 325 -10 422 -10 q 122 69 197 -10 q 46 289 46 149 q 54 385 46 335 q 135 595 75 506 q 281 732 194 685 q 464 779 367 779 q 622 733 561 779 q 700 610 683 688 l 728 769 l 924 769 l 894 608 q 1016 735 938 692 q 1197 779 1094 779 m 1274 433 q 1279 482 1279 457 q 1231 589 1279 553 q 1110 625 1182 625 q 959 578 1024 625 q 869 433 894 532 l 1274 433 m 660 385 q 665 438 665 421 q 619 563 665 517 q 496 608 572 608 q 338 549 404 608 q 253 385 271 489 q 247 331 247 346 q 292 207 247 251 q 417 163 338 163 q 574 223 506 163 q 660 385 642 283 m 1051 978 l 706 828 l 729 961 l 1079 1128 l 1051 978 z "},"Ș":{"ha":819,"x_min":22,"x_max":782,"o":"m 721 238 q 664 115 710 171 q 542 24 618 58 q 367 -10 467 -10 q 181 28 258 -10 q 63 131 103 65 q 24 283 22 197 l 231 283 q 263 184 226 224 q 369 144 299 144 q 475 184 436 144 q 514 282 514 224 q 490 351 514 322 q 431 399 467 381 q 335 442 396 417 q 208 501 256 474 q 126 578 160 529 q 92 701 92 626 q 97 767 92 735 q 212 933 115 871 q 446 994 308 994 q 694 919 611 994 q 782 719 778 843 l 571 719 q 540 806 572 772 q 443 840 508 840 q 344 808 383 840 q 306 715 306 775 q 328 651 306 676 q 385 608 351 625 q 479 567 418 592 q 608 509 558 536 q 692 432 657 482 q 728 304 728 382 q 721 238 728 279 m 460 -62 q 465 -125 465 -90 q 460 -192 465 -164 q 390 -335 443 -283 q 251 -386 336 -386 l 265 -311 q 350 -218 336 -311 l 353 -206 l 276 -206 l 301 -62 l 460 -62 z "},"ș":{"ha":758,"x_min":29,"x_max":719,"o":"m 394 779 q 631 709 550 779 q 719 519 713 639 l 528 519 q 488 609 526 576 q 378 642 449 642 q 292 618 325 642 q 260 554 260 594 q 299 493 260 514 q 422 450 339 472 q 553 405 503 426 q 641 342 604 383 q 678 232 678 300 q 672 179 678 206 q 576 42 656 94 q 365 -10 497 -10 q 123 59 214 -10 q 29 250 32 128 l 221 250 q 260 161 217 194 q 382 128 304 128 q 467 153 438 128 q 496 217 496 178 q 474 267 496 247 q 421 299 453 288 q 329 328 389 311 q 201 370 250 350 q 118 431 153 390 q 83 536 83 471 q 88 586 83 560 q 183 726 103 672 q 394 779 263 779 m 408 -62 q 413 -122 413 -92 q 407 -192 413 -162 q 338 -335 392 -283 q 200 -386 285 -386 l 213 -311 q 299 -218 282 -311 l 301 -206 l 224 -206 l 250 -62 l 408 -62 z "},"Ț":{"ha":775,"x_min":72,"x_max":836,"o":"m 836 981 l 808 825 l 538 825 l 393 0 l 197 0 l 342 825 l 72 825 l 100 981 l 836 981 m 365 -62 q 369 -122 369 -92 q 364 -192 369 -162 q 295 -335 349 -283 q 157 -386 242 -386 l 171 -311 q 256 -218 239 -311 l 258 -206 l 181 -206 l 207 -62 l 365 -62 z "},"ț":{"ha":551,"x_min":58,"x_max":561,"o":"m 301 268 q 299 235 299 256 q 318 183 299 197 q 382 168 338 168 l 458 168 l 428 0 l 325 0 q 157 44 215 0 q 99 190 99 89 q 107 271 99 228 l 165 604 l 58 604 l 88 769 l 194 769 l 228 960 l 425 960 l 392 769 l 561 769 l 532 604 l 361 604 l 301 268 m 351 -62 q 356 -125 356 -94 q 351 -192 356 -161 q 281 -335 335 -283 q 143 -386 228 -386 l 157 -311 q 242 -218 228 -311 l 244 -206 l 168 -206 l 193 -62 l 351 -62 z "},"ʼ":{"ha":301,"x_min":40,"x_max":254,"o":"m 250 1142 q 254 1072 254 1107 q 247 992 254 1033 q 179 851 232 903 q 40 800 126 800 l 54 878 q 140 964 124 878 l 144 990 l 64 990 l 89 1142 l 250 1142 z "},"ˆ":{"ha":474,"x_min":92,"x_max":528,"o":"m 319 956 l 92 838 l 115 969 l 343 1085 l 528 969 l 506 838 l 319 956 z "},"ˇ":{"ha":474,"x_min":113,"x_max":549,"o":"m 525 951 l 300 836 l 113 951 l 136 1083 l 322 965 l 549 1083 l 525 951 z "},"ˉ":{"ha":592,"x_min":101,"x_max":657,"o":"m 657 1017 l 633 885 l 101 885 l 126 1017 l 657 1017 z "},"˘":{"ha":504,"x_min":128,"x_max":579,"o":"m 315 842 q 178 888 228 842 q 128 1017 128 935 q 132 1069 128 1043 l 135 1086 l 232 1086 q 229 1063 229 1069 q 339 983 229 983 q 483 1086 465 983 l 579 1086 l 576 1069 q 488 903 558 964 q 315 842 417 842 z "},"˙":{"ha":246,"x_min":117,"x_max":296,"o":"m 117 936 q 148 1010 117 979 q 221 1042 179 1042 q 275 1022 254 1042 q 296 969 296 1001 q 264 897 296 928 q 190 865 232 865 q 138 885 158 865 q 117 936 117 906 z "},"˚":{"ha":381,"x_min":111,"x_max":436,"o":"m 301 1156 q 399 1122 361 1156 q 436 1029 436 1089 q 410 928 436 972 q 340 860 383 883 q 246 836 296 836 q 149 870 186 836 q 111 964 111 904 q 138 1065 111 1021 q 209 1132 165 1108 q 301 1156 253 1156 m 288 1075 q 223 1048 250 1075 q 196 978 196 1021 q 214 933 196 950 q 260 917 232 917 q 325 944 297 917 q 353 1013 353 971 q 335 1058 353 1042 q 288 1075 317 1075 z "},"˛":{"ha":411,"x_min":19,"x_max":381,"o":"m 357 1 l 340 -93 l 240 -93 q 178 -110 201 -93 q 156 -156 156 -126 q 173 -190 156 -178 q 221 -203 190 -203 l 381 -203 l 361 -308 l 183 -308 q 66 -276 113 -308 q 19 -182 19 -244 q 22 -150 19 -172 q 92 -37 35 -75 q 222 1 150 1 l 357 1 z "},"˜":{"ha":554,"x_min":89,"x_max":631,"o":"m 289 1029 q 339 1019 318 1029 q 388 992 360 1010 q 422 970 407 978 q 457 963 438 963 q 501 979 482 963 q 531 1028 521 996 l 631 1028 q 431 846 571 846 q 378 856 400 846 q 329 883 356 865 q 294 904 307 897 q 263 911 281 911 q 189 846 211 911 l 89 846 q 289 1029 151 1029 z "},"˝":{"ha":583,"x_min":90,"x_max":660,"o":"m 213 835 l 90 835 l 238 1096 l 390 1096 l 213 835 m 458 835 l 336 835 l 507 1096 l 660 1096 l 458 835 z "},"π":{"ha":990,"x_min":79,"x_max":1018,"o":"m 1018 769 l 992 622 l 889 622 l 779 0 l 583 0 l 693 622 l 385 622 l 275 0 l 79 0 l 188 622 l 86 622 l 113 769 l 1018 769 z "},"Ẁ":{"ha":1419,"x_min":124,"x_max":1454,"o":"m 1454 981 l 1042 0 l 800 0 l 742 711 l 432 0 l 192 0 l 124 981 l 336 981 l 351 218 l 681 981 l 896 981 l 957 221 l 1242 981 l 1454 981 m 925 1172 l 901 1039 l 608 1189 l 635 1339 l 925 1172 z "},"ẁ":{"ha":1199,"x_min":65,"x_max":1244,"o":"m 1244 769 l 901 0 l 685 0 l 617 560 l 350 0 l 133 0 l 65 769 l 260 769 l 281 175 l 556 769 l 763 769 l 831 175 l 1061 769 l 1244 769 m 788 961 l 764 828 l 471 978 l 497 1128 l 788 961 z "},"Ẃ":{"ha":1419,"x_min":124,"x_max":1454,"o":"m 1454 981 l 1042 0 l 800 0 l 742 711 l 432 0 l 192 0 l 124 981 l 336 981 l 351 218 l 681 981 l 896 981 l 957 221 l 1242 981 l 1454 981 m 1033 1189 l 688 1039 l 711 1172 l 1061 1339 l 1033 1189 z "},"ẃ":{"ha":1199,"x_min":65,"x_max":1244,"o":"m 1244 769 l 901 0 l 685 0 l 617 560 l 350 0 l 133 0 l 65 769 l 260 769 l 281 175 l 556 769 l 763 769 l 831 175 l 1061 769 l 1244 769 m 896 978 l 550 828 l 574 961 l 924 1128 l 896 978 z "},"Ẅ":{"ha":1419,"x_min":132,"x_max":1463,"o":"m 1463 981 l 1050 0 l 808 0 l 750 711 l 440 0 l 200 0 l 132 981 l 344 981 l 360 218 l 689 981 l 904 981 l 965 221 l 1250 981 l 1463 981 m 611 1149 q 643 1222 611 1190 q 715 1253 675 1253 q 769 1233 749 1253 q 790 1182 790 1213 q 759 1108 790 1139 q 685 1076 728 1076 q 632 1097 653 1076 q 611 1149 611 1117 m 874 1147 q 905 1222 874 1190 q 978 1253 936 1253 q 1032 1232 1011 1253 q 1053 1179 1053 1211 q 1021 1107 1053 1138 q 947 1076 989 1076 q 894 1097 914 1076 q 874 1147 874 1117 z "},"ẅ":{"ha":1199,"x_min":72,"x_max":1251,"o":"m 1251 769 l 908 0 l 692 0 l 624 560 l 357 0 l 140 0 l 72 769 l 267 769 l 288 175 l 563 769 l 769 769 l 838 175 l 1068 769 l 1251 769 m 474 938 q 506 1010 474 979 q 578 1042 538 1042 q 632 1022 611 1042 q 653 971 653 1001 q 622 897 653 928 q 547 865 590 865 q 494 885 515 865 q 474 938 474 906 m 736 936 q 767 1010 736 979 q 840 1042 799 1042 q 894 1021 874 1042 q 915 968 915 1000 q 883 896 915 926 q 810 865 851 865 q 756 885 776 865 q 736 936 736 906 z "},"Ẽ":{"ha":729,"x_min":4,"x_max":774,"o":"m 344 825 l 301 571 l 647 571 l 621 421 l 274 421 l 228 157 l 617 157 l 589 0 l 4 0 l 176 981 l 761 981 l 733 825 l 344 825 m 432 1240 q 482 1231 461 1240 q 531 1203 503 1221 q 565 1181 550 1189 q 600 1174 581 1174 q 644 1190 625 1174 q 674 1239 664 1207 l 774 1239 q 574 1057 714 1057 q 521 1067 543 1057 q 472 1094 499 1076 q 437 1115 450 1108 q 406 1122 424 1122 q 332 1057 354 1122 l 232 1057 q 432 1240 294 1240 z "},"ẽ":{"ha":861,"x_min":47,"x_max":828,"o":"m 507 779 q 742 700 657 779 q 828 489 828 621 q 821 414 828 458 q 803 347 813 372 l 238 347 q 235 303 235 332 q 276 185 235 222 q 386 147 318 147 q 506 181 454 147 q 579 271 557 215 l 786 271 q 628 68 740 146 q 368 -10 517 -10 q 134 72 221 -10 q 47 300 47 154 q 56 394 47 344 q 141 599 76 513 q 301 733 206 686 q 507 779 396 779 m 626 433 q 632 486 632 460 q 589 590 632 556 q 481 625 546 625 q 338 576 400 625 q 253 433 275 528 l 626 433 m 447 1029 q 497 1019 476 1029 q 546 992 518 1010 q 581 970 565 978 q 615 963 596 963 q 660 979 640 963 q 689 1028 679 996 l 789 1028 q 589 846 729 846 q 536 856 558 846 q 488 883 514 865 q 452 904 465 897 q 421 911 439 911 q 347 846 369 911 l 247 846 q 447 1029 310 1029 z "},"Ỳ":{"ha":896,"x_min":96,"x_max":958,"o":"m 958 981 l 514 343 l 454 0 l 257 0 l 317 343 l 96 981 l 321 981 l 453 551 l 738 981 l 958 981 m 664 1172 l 640 1039 l 347 1189 l 374 1339 l 664 1172 z "},"ỳ":{"ha":843,"x_min":-7,"x_max":883,"o":"m 263 769 l 381 247 l 667 769 l 883 769 l 210 -367 l -7 -367 l 236 22 l 44 769 l 263 769 m 599 961 l 575 828 l 282 978 l 308 1128 l 599 961 z "},"Ỹ":{"ha":896,"x_min":104,"x_max":967,"o":"m 967 981 l 522 343 l 463 0 l 265 0 l 325 343 l 104 981 l 329 981 l 461 551 l 746 981 l 967 981 m 499 1240 q 549 1231 528 1240 q 597 1203 569 1221 q 632 1181 617 1189 q 667 1174 647 1174 q 711 1190 692 1174 q 740 1239 731 1207 l 840 1239 q 640 1057 781 1057 q 588 1067 610 1057 q 539 1094 565 1076 q 503 1115 517 1108 q 472 1122 490 1122 q 399 1057 421 1122 l 299 1057 q 499 1240 361 1240 z "},"ỹ":{"ha":844,"x_min":-14,"x_max":876,"o":"m 256 769 l 374 247 l 660 769 l 876 769 l 203 -367 l -14 -367 l 229 22 l 38 769 l 256 769 m 418 1029 q 468 1019 447 1029 q 517 992 489 1010 q 551 970 536 978 q 586 963 567 963 q 631 979 611 963 q 660 1028 650 996 l 760 1028 q 560 846 700 846 q 507 856 529 846 q 458 883 485 865 q 423 904 436 897 q 392 911 410 911 q 318 846 340 911 l 218 846 q 418 1029 281 1029 z "},"–":{"ha":892,"x_min":54,"x_max":839,"o":"m 839 576 l 810 414 l 54 414 l 82 576 l 839 576 z "},"—":{"ha":1204,"x_min":54,"x_max":1151,"o":"m 1151 576 l 1122 414 l 54 414 l 82 576 l 1151 576 z "},"‘":{"ha":301,"x_min":49,"x_max":263,"o":"m 53 800 q 49 872 49 838 q 54 951 49 918 q 124 1091 71 1040 q 263 1142 176 1142 l 250 1065 q 193 1044 214 1065 q 163 978 172 1022 l 160 953 l 240 953 l 214 800 l 53 800 z "},"’":{"ha":301,"x_min":40,"x_max":254,"o":"m 250 1142 q 254 1072 254 1107 q 247 992 254 1033 q 179 851 232 903 q 40 800 126 800 l 54 878 q 140 964 124 878 l 144 990 l 64 990 l 89 1142 l 250 1142 z "},"‚":{"ha":307,"x_min":-3,"x_max":221,"o":"m 210 126 q 221 36 221 82 q 197 -90 221 -31 q 123 -185 174 -149 q -3 -222 72 -222 l 11 -147 q 67 -130 47 -147 q 94 -68 86 -112 l 97 -54 l 7 -54 l 39 126 l 210 126 z "},"“":{"ha":538,"x_min":49,"x_max":497,"o":"m 53 800 q 49 872 49 838 q 54 951 49 918 q 124 1091 71 1040 q 263 1142 176 1142 l 250 1065 q 193 1044 214 1065 q 163 978 172 1022 l 160 953 l 240 953 l 214 800 l 53 800 m 288 800 q 282 867 282 832 q 290 951 282 899 q 358 1091 306 1040 q 497 1142 411 1142 l 485 1065 q 427 1044 449 1065 q 397 978 406 1022 l 393 953 l 475 953 l 449 800 l 288 800 z "},"”":{"ha":538,"x_min":40,"x_max":489,"o":"m 250 1142 q 254 1072 254 1107 q 247 992 254 1033 q 179 851 232 903 q 40 800 126 800 l 54 878 q 140 964 124 878 l 144 990 l 64 990 l 89 1142 l 250 1142 m 485 1142 q 489 1069 489 1104 q 483 992 489 1025 q 414 851 467 901 q 275 800 361 800 l 289 878 q 346 899 325 878 q 375 964 367 919 l 379 990 l 297 990 l 324 1142 l 485 1142 z "},"„":{"ha":538,"x_min":-6,"x_max":443,"o":"m 204 151 q 208 82 208 117 q 201 1 208 43 q 133 -139 186 -87 q -6 -190 81 -190 l 8 -112 q 94 -26 78 -112 l 99 0 l 18 0 l 43 151 l 204 151 m 439 151 q 443 79 443 114 q 438 1 443 35 q 368 -140 421 -89 q 229 -190 315 -190 l 243 -112 q 300 -92 279 -112 q 329 -26 321 -71 l 333 0 l 251 0 l 278 151 l 439 151 z "},"†":{"ha":836,"x_min":104,"x_max":849,"o":"m 822 621 l 544 635 l 386 -367 l 192 -367 l 386 635 l 104 621 l 131 769 l 408 756 l 449 1092 l 644 1092 l 565 756 l 849 769 l 822 621 z "},"‡":{"ha":836,"x_min":-12,"x_max":849,"o":"m 544 635 l 449 90 l 732 107 l 706 -44 l 426 -31 l 386 -367 l 190 -367 l 269 -31 l -12 -44 l 13 107 l 290 90 l 388 635 l 104 621 l 129 769 l 408 756 l 449 1092 l 643 1092 l 567 756 l 849 769 l 822 621 l 544 635 z "},"•":{"ha":589,"x_min":97,"x_max":492,"o":"m 97 428 q 130 542 97 489 q 216 627 163 596 q 329 658 269 658 q 447 613 401 658 q 492 499 492 568 q 459 385 492 438 q 373 301 426 332 q 260 269 319 269 q 142 314 188 269 q 97 428 97 358 z "},"…":{"ha":896,"x_min":1,"x_max":851,"o":"m 550 204 l 514 0 l 303 0 l 339 204 l 550 204 m 851 204 l 815 0 l 604 0 l 640 204 l 851 204 m 249 204 l 213 0 l 1 0 l 38 204 l 249 204 z "},"‰":{"ha":1531,"x_min":65,"x_max":1446,"o":"m 349 996 q 484 950 433 996 q 535 822 535 904 q 531 774 535 799 q 440 610 511 669 q 271 551 368 551 q 135 597 186 551 q 85 724 85 643 q 89 774 85 747 q 179 937 107 878 q 349 996 251 996 m 975 983 l 256 0 l 65 0 l 786 983 l 975 983 m 221 774 q 218 747 218 754 q 238 690 218 711 q 290 669 257 669 q 360 698 331 669 q 399 774 390 726 q 401 800 401 793 q 381 857 401 836 q 326 878 361 878 q 258 849 286 878 q 221 774 229 821 m 771 432 q 906 387 856 432 q 956 260 956 342 q 951 210 956 238 q 862 47 933 106 q 693 -12 790 -12 q 558 33 608 -12 q 507 161 507 79 q 511 210 507 185 q 601 373 529 314 q 771 432 674 432 m 1261 432 q 1396 387 1346 432 q 1446 260 1446 342 q 1442 210 1446 238 q 1352 47 1424 106 q 1183 -12 1281 -12 q 1047 33 1099 -12 q 996 161 996 78 q 1000 210 996 185 q 1092 373 1019 314 q 1261 432 1164 432 m 642 210 q 639 183 639 190 q 658 125 639 146 q 713 104 678 104 q 783 133 753 104 q 821 210 813 161 q 824 236 824 229 q 804 294 824 272 q 750 315 785 315 q 681 287 710 315 q 642 210 651 258 m 1132 210 q 1129 183 1129 190 q 1149 125 1129 146 q 1201 104 1168 104 q 1281 141 1249 104 q 1313 238 1313 178 q 1293 294 1313 274 q 1239 315 1274 315 q 1171 287 1200 315 q 1132 210 1142 258 z "},"‹":{"ha":438,"x_min":63,"x_max":411,"o":"m 143 167 l 63 410 l 229 653 l 411 653 l 242 410 l 325 167 l 143 167 z "},"›":{"ha":438,"x_min":26,"x_max":375,"o":"m 197 410 l 113 653 l 296 653 l 375 410 l 210 167 l 26 167 l 197 410 z "},"⁄":{"ha":578,"x_min":-168,"x_max":742,"o":"m 742 983 l 22 0 l -168 0 l 551 983 l 742 983 z "},"€":{"ha":1124,"x_min":-3,"x_max":1090,"o":"m 542 172 q 712 218 636 172 q 833 343 788 264 l 1039 343 q 835 86 972 181 q 514 -8 697 -8 q 234 88 339 -8 q 118 344 129 183 l -3 344 l 14 436 l 119 436 q 126 490 121 454 l 136 539 l 32 539 l 49 632 l 167 632 q 374 894 235 797 q 689 990 513 990 q 976 895 872 990 q 1090 639 1081 800 l 885 639 q 808 764 868 718 q 653 810 749 810 q 493 763 567 810 q 375 632 419 717 l 654 632 l 639 539 l 338 539 q 326 490 329 511 q 319 436 321 454 l 621 436 l 604 344 l 326 344 q 400 218 343 264 q 542 172 457 172 z "},"₺":{"ha":1110,"x_min":13,"x_max":1088,"o":"m 1088 613 q 973 256 1050 394 q 770 51 896 118 q 458 -17 644 -17 q 157 18 335 -17 l 214 346 l 13 307 l 35 425 l 235 464 l 254 575 l 53 535 l 74 650 l 275 690 l 326 985 l 525 985 l 481 732 l 701 776 l 681 658 l 460 615 l 440 504 l 664 547 l 643 428 l 419 385 l 383 178 q 489 167 432 167 q 761 283 671 167 q 889 613 851 399 l 1088 613 z "},"₽":{"ha":918,"x_min":-18,"x_max":919,"o":"m 615 981 q 843 919 767 981 q 919 749 919 857 q 914 689 919 717 q 785 474 889 551 q 513 396 682 396 l 351 396 l 332 285 l 579 285 l 553 138 l 307 138 l 282 0 l 86 0 l 110 138 l -18 138 l 8 285 l 136 285 l 156 396 l 28 396 l 56 547 l 182 547 l 258 981 l 615 981 m 715 689 q 718 721 718 711 q 684 803 718 774 q 578 832 650 832 l 429 832 l 379 547 l 528 547 q 715 689 690 547 z "},"ℓ":{"ha":363,"x_min":-4,"x_max":372,"o":"m 372 1028 l 192 0 l -4 0 l 176 1028 l 372 1028 z "},"™":{"ha":1172,"x_min":64,"x_max":1168,"o":"m 464 864 l 333 864 l 268 494 l 129 494 l 194 864 l 64 864 l 85 981 l 485 981 l 464 864 m 1168 981 l 1082 494 l 953 494 l 1004 804 l 817 494 l 719 494 l 644 819 l 586 494 l 464 494 l 550 981 l 738 981 l 801 658 l 997 981 l 1168 981 z "},"Ω":{"ha":1100,"x_min":-22,"x_max":1058,"o":"m 1050 518 q 808 149 1004 265 l 974 149 l 947 0 l 569 0 l 597 156 q 759 288 693 203 q 844 492 825 374 q 851 569 851 526 q 785 749 851 683 q 607 814 719 814 q 375 727 472 814 q 251 492 278 640 q 244 414 244 446 q 281 260 244 325 q 383 156 318 194 l 356 0 l -22 0 l 4 149 l 171 149 q 49 414 49 239 q 58 518 49 456 q 169 771 85 663 q 376 937 253 879 q 638 994 499 994 q 856 949 760 994 q 1005 817 951 903 q 1058 614 1058 731 q 1050 518 1058 568 z "},"℮":{"ha":1046,"x_min":42,"x_max":1006,"o":"m 449 -10 q 235 33 328 -10 q 92 160 143 76 q 42 360 42 243 q 51 464 42 411 q 153 729 78 611 q 345 915 228 847 q 610 983 463 983 q 827 934 738 983 q 961 801 917 885 q 1006 614 1006 717 q 999 529 1006 565 l 983 442 l 282 442 l 240 201 q 468 108 322 108 q 656 149 567 108 q 840 269 744 189 l 899 188 q 449 -10 676 -10 m 803 788 q 715 849 769 828 q 590 869 660 869 q 342 776 443 869 l 301 551 l 761 551 l 803 788 z "},"∂":{"ha":829,"x_min":10,"x_max":806,"o":"m 465 774 q 622 632 614 774 q 625 699 625 656 q 582 860 625 804 q 436 915 539 915 q 344 906 400 915 l 361 1006 q 524 1028 450 1028 q 734 949 663 1028 q 806 715 806 869 q 792 567 806 644 q 687 258 760 389 q 507 58 614 128 q 269 -11 400 -11 q 82 55 154 -11 q 10 247 10 121 q 18 332 10 286 q 105 559 40 458 q 263 717 169 660 q 465 774 357 774 m 456 611 q 302 533 367 611 q 217 333 238 456 q 211 281 211 307 q 240 190 211 221 q 315 160 269 160 q 470 240 406 160 q 557 446 535 319 q 561 496 561 474 q 533 583 561 554 q 456 611 506 611 z "},"∆":{"ha":993,"x_min":-58,"x_max":906,"o":"m 663 972 l 906 150 l 879 0 l -58 0 l -32 150 l 503 972 l 663 972 m 169 150 l 704 150 l 542 750 l 169 150 z "},"∏":{"ha":1033,"x_min":60,"x_max":1076,"o":"m 1076 983 l 1050 835 l 947 835 l 800 0 l 604 0 l 751 835 l 403 835 l 256 0 l 60 0 l 207 835 l 104 835 l 132 983 l 1076 983 z "},"∑":{"ha":703,"x_min":-37,"x_max":768,"o":"m 742 822 l 296 822 l 596 535 l 569 385 l 156 65 l 608 65 l 582 -85 l -37 -85 l 3 143 l 394 454 l 108 746 l 149 972 l 768 972 l 742 822 z "},"−":{"ha":668,"x_min":33,"x_max":653,"o":"m 653 576 l 624 414 l 33 414 l 61 576 l 653 576 z "},"∕":{"ha":532,"x_min":-151,"x_max":689,"o":"m 689 1315 l 38 -251 l -151 -251 l 500 1315 l 689 1315 z "},"∙":{"ha":318,"x_min":56,"x_max":303,"o":"m 303 553 l 267 349 l 56 349 l 92 553 l 303 553 z "},"√":{"ha":1217,"x_min":-24,"x_max":1297,"o":"m 1297 1238 l 357 -58 l 267 -58 l 133 286 l 15 226 l -24 318 l 283 481 l 406 163 l 1182 1238 l 1297 1238 z "},"∞":{"ha":1024,"x_min":32,"x_max":1011,"o":"m 804 710 q 957 665 903 710 q 1011 538 1011 621 q 1006 483 1011 510 q 910 317 988 379 q 731 256 832 256 q 592 290 647 256 q 492 383 536 324 q 378 290 443 325 q 238 256 313 256 q 85 301 139 256 q 32 431 32 346 q 36 482 32 456 q 132 649 54 588 q 310 710 210 710 q 449 674 396 710 q 542 574 501 638 q 660 672 592 635 q 804 710 728 710 m 268 386 q 354 409 311 386 q 433 475 397 432 q 374 555 403 528 q 306 582 346 582 q 228 555 260 582 q 189 482 197 528 q 188 460 188 475 q 208 406 188 425 q 268 386 229 386 m 853 483 q 854 506 854 490 q 833 560 854 540 q 772 581 811 581 q 681 553 726 581 q 597 478 636 526 q 658 408 626 432 q 736 385 689 385 q 813 412 782 385 q 853 483 844 439 z "},"∫":{"ha":390,"x_min":-207,"x_max":601,"o":"m 265 1068 q 381 1243 300 1190 q 578 1296 461 1296 l 601 1296 l 556 1128 l 528 1128 q 486 1114 503 1128 q 460 1068 469 1100 l 131 -100 q 17 -279 96 -225 q -181 -333 -62 -333 l -207 -333 l -161 -165 l -132 -165 q -90 -151 -104 -165 q -64 -100 -75 -137 l 265 1068 z "},"≈":{"ha":821,"x_min":-6,"x_max":842,"o":"m 288 476 q 361 463 329 476 q 435 424 393 450 q 488 393 465 403 q 533 383 510 383 q 636 478 606 383 l 785 478 q 665 275 740 342 q 492 208 589 208 q 417 222 449 208 q 346 261 386 235 q 293 292 315 282 q 246 301 271 301 q 142 207 174 301 l -6 207 q 115 410 40 343 q 288 476 190 476 m 344 803 q 418 790 386 803 q 492 750 450 776 q 544 719 522 729 q 590 710 567 710 q 693 804 663 710 l 842 804 q 722 601 797 668 q 549 535 646 535 q 474 548 506 535 q 403 588 443 561 q 350 618 372 608 q 303 628 328 628 q 199 533 231 628 l 51 533 q 172 736 97 669 q 344 803 247 803 z "},"≠":{"ha":835,"x_min":-4,"x_max":842,"o":"m 538 571 l 399 417 l 783 417 l 753 240 l 240 240 l 110 96 l 8 96 l 139 240 l -4 240 l 26 417 l 297 417 l 436 571 l 54 571 l 85 749 l 596 749 l 726 893 l 828 893 l 697 749 l 842 749 l 811 571 l 538 571 z "},"≤":{"ha":628,"x_min":-3,"x_max":653,"o":"m 306 546 l 561 286 l 319 286 l 60 546 l 410 807 l 653 807 l 306 546 m 24 199 l 549 199 l 522 46 l -3 46 l 24 199 z "},"≥":{"ha":628,"x_min":-28,"x_max":610,"o":"m 18 286 l 364 546 l 108 807 l 351 807 l 610 546 l 260 286 l 18 286 m -1 199 l 525 199 l 497 46 l -28 46 l -1 199 z "},"◊":{"ha":779,"x_min":36,"x_max":743,"o":"m 743 489 l 328 135 l 36 489 l 453 842 l 743 489 m 231 489 l 361 328 l 550 489 l 419 649 l 231 489 z "},"ﬁ":{"ha":868,"x_min":49,"x_max":890,"o":"m 381 769 l 829 769 l 694 0 l 499 0 l 604 604 l 351 604 l 244 0 l 49 0 l 156 604 l 57 604 l 86 769 l 185 769 l 188 788 q 301 1000 211 926 q 542 1074 392 1074 l 576 1072 l 547 903 q 431 877 468 907 q 381 771 393 847 l 381 769 m 786 1072 q 863 1049 835 1072 q 890 988 890 1026 q 850 901 890 935 q 750 868 810 868 q 674 890 701 868 q 646 950 646 913 q 685 1038 646 1004 q 786 1072 725 1072 z "},"ﬂ":{"ha":868,"x_min":40,"x_max":876,"o":"m 551 903 q 426 878 467 908 q 372 771 386 847 l 372 769 l 528 769 l 499 604 l 343 604 l 236 0 l 40 0 l 147 604 l 49 604 l 76 769 l 176 769 l 179 788 q 295 999 203 925 q 542 1074 388 1074 q 581 1072 567 1074 l 551 903 m 876 1028 l 696 0 l 500 0 l 681 1028 l 876 1028 z "}}}
